SplineFontDB: 3.0
FontName: Flexible-Mud-Symbols
FullName: Flexible Mud Symbols
FamilyName: Flexible Mud
Weight: Regular
Copyright: Copyright 2010, 2012 Adobe Systems Incorporated. All Rights Reserved.
Version: 1.017;PS Version 1.000;hotconv 1.0.70;makeotf.lib2.5.5900
ItalicAngle: 0
UnderlinePosition: -100
UnderlineWidth: 50
Ascent: 750
Descent: 250
InvalidEm: 0
sfntRevision: 0x0001045a
LayerCount: 2
Layer: 0 0 "Back" 1
Layer: 1 0 "Fore" 0
XUID: [1021 758 163197438 11267941]
BaseHoriz: 2 'ideo' 'romn'
BaseScript: 'DFLT' 1  -170 0
BaseScript: 'latn' 1  -170 0
StyleMap: 0x0040
FSType: 0
OS2Version: 3
OS2_WeightWidthSlopeOnly: 0
OS2_UseTypoMetrics: 0
CreationTime: 1357901823
ModificationTime: 1537565739
PfmFamily: 17
TTFWeight: 400
TTFWidth: 5
LineGap: 0
VLineGap: 0
Panose: 2 11 5 9 3 4 3 2 2 4
OS2TypoAscent: 750
OS2TypoAOffset: 0
OS2TypoDescent: -250
OS2TypoDOffset: 0
OS2TypoLinegap: 0
OS2WinAscent: 984
OS2WinAOffset: 0
OS2WinDescent: 273
OS2WinDOffset: 0
HheadAscent: 984
HheadAOffset: 0
HheadDescent: -273
HheadDOffset: 0
OS2SubXSize: 650
OS2SubYSize: 600
OS2SubXOff: 0
OS2SubYOff: 75
OS2SupXSize: 650
OS2SupYSize: 600
OS2SupXOff: 0
OS2SupYOff: 350
OS2StrikeYSize: 50
OS2StrikeYPos: 288
OS2CapHeight: 660
OS2XHeight: 480
OS2Vendor: 'ADBE'
OS2CodePages: 60000193.00000000
OS2UnicodeRanges: 20000007.00001801.00000000.00000000
Lookup: 1 0 0 "'aalt' Access All Alternates in Latin lookup 0" { "'aalt' Access All Alternates in Latin lookup 0 subtable"  } ['aalt' ('DFLT' <'dflt' > 'latn' <'dflt' > ) ]
Lookup: 3 0 0 "'aalt' Access All Alternates in Latin lookup 1" { "'aalt' Access All Alternates in Latin lookup 1 subtable"  } ['aalt' ('DFLT' <'dflt' > 'latn' <'dflt' > ) ]
Lookup: 2 0 0 "Multiple Substitution lookup 2" { "Multiple Substitution lookup 2 subtable"  } []
Lookup: 6 0 0 "'ccmp' Glyph Composition/Decomposition in Latin lookup 3" { "'ccmp' Glyph Composition/Decomposition in Latin lookup 3 subtable"  } ['ccmp' ('DFLT' <'dflt' > 'latn' <'dflt' > ) ]

StartChar: uniE000
Encoding: 57344 57344 0
Width: 600
GlyphClass: 2
Flags: W
HStem: -72 50<369.607 830.393> 624 50<369.607 830.393>
VStem: 227 50<70.607 531.393> 923 50<70.607 531.393>
LayerCount: 2
Fore
SplineSet
748 674 m 2
 872 674 973 573 973 449 c 2
 973 153 l 2
 973 29 872 -72 748 -72 c 2
 452 -72 l 2
 328 -72 227 29 227 153 c 2
 227 449 l 2
 227 573 328 674 452 674 c 2
 748 674 l 2
748 624 m 2
 452 624 l 2
 356 624 277 545 277 449 c 2
 277 153 l 2
 277 57 356 -22 452 -22 c 2
 748 -22 l 2
 844 -22 923 57 923 153 c 2
 923 449 l 2
 923 545 844 624 748 624 c 2
EndSplineSet
Validated: 1
EndChar

StartChar: uniE001
Encoding: 57345 57345 1
Width: 600
GlyphClass: 2
Flags: W
HStem: -72 50<369.607 830.393> 624 50<369.607 575 625 830.393>
VStem: 227 50<70.607 531.393> 575 50<674 1001.8> 923 50<70.607 531.393>
CounterMasks: 1 38
LayerCount: 2
Fore
SplineSet
748 674 m 2
 872 674 973 573 973 449 c 2
 973 153 l 2
 973 29 872 -72 748 -72 c 2
 452 -72 l 2
 328 -72 227 29 227 153 c 2
 227 449 l 2
 227 573 328 674 452 674 c 2
 575 674 l 1
 575 977 l 2
 575 991 586 1002 600 1002 c 0
 614 1002 625 991 625 977 c 2
 625 674 l 1
 748 674 l 2
600 624 m 1
 452 624 l 2
 356 624 277 545 277 449 c 2
 277 153 l 2
 277 57 356 -22 452 -22 c 2
 748 -22 l 2
 844 -22 923 57 923 153 c 2
 923 449 l 2
 923 545 844 624 748 624 c 2
 600 624 l 1
EndSplineSet
Validated: 1
EndChar

StartChar: uniE002
Encoding: 57346 57346 2
Width: 600
GlyphClass: 2
Flags: W
HStem: -72 50<369.607 830.393> 624 50<368.873 830.393>
VStem: 227 50<70.607 532.127> 923 50<70.607 531.393>
LayerCount: 2
Fore
SplineSet
748 674 m 2
 872 674 973 573 973 449 c 2
 973 153 l 2
 973 29 872 -72 748 -72 c 2
 452 -72 l 2
 328 -72 227 29 227 153 c 2
 227 449 l 2
 227 504.660156422 247.350114094 555.686128447 280.995897885 595.023471677 c 1
 -174 1079 l 2
 -179 1084 -182 1090 -182 1097 c 0
 -182 1104 -179 1110 -174 1115 c 0
 -169 1120 -162 1122 -156 1122 c 0
 -150 1122 -143 1120 -138 1115 c 2
 318.195755481 629.74719003 l 1
 355.626800619 657.53823758 401.939041222 674 452 674 c 2
 748 674 l 2
748 624 m 2
 452 624 l 2
 356 624 277 545 277 449 c 2
 277 153 l 2
 277 57 356 -22 452 -22 c 2
 748 -22 l 2
 844 -22 923 57 923 153 c 2
 923 449 l 2
 923 545 844 624 748 624 c 2
EndSplineSet
Validated: 1
EndChar

StartChar: uniE003
Encoding: 57347 57347 3
Width: 600
GlyphClass: 2
Flags: W
HStem: -72 50<369.607 830.393> 624 50<368.873 575 625 830.393>
VStem: 227 50<70.607 532.127> 575 50<674 1001.8> 923 50<70.607 531.393>
CounterMasks: 1 38
LayerCount: 2
Fore
SplineSet
748 674 m 2
 872 674 973 573 973 449 c 2
 973 153 l 2
 973 29 872 -72 748 -72 c 2
 452 -72 l 2
 328 -72 227 29 227 153 c 2
 227 449 l 2
 227 504.660156422 247.350114094 555.686128447 280.995897885 595.023471677 c 1
 -174 1079 l 2
 -179 1084 -182 1090 -182 1097 c 0
 -182 1104 -179 1110 -174 1115 c 0
 -169 1120 -162 1122 -156 1122 c 0
 -150 1122 -143 1120 -138 1115 c 2
 318.195755481 629.74719003 l 1
 355.626800619 657.53823758 401.939041222 674 452 674 c 2
 575 674 l 1
 575 977 l 2
 575 991 586 1002 600 1002 c 0
 614 1002 625 991 625 977 c 2
 625 674 l 1
 748 674 l 2
600 624 m 1
 452 624 l 2
 356 624 277 545 277 449 c 2
 277 153 l 2
 277 57 356 -22 452 -22 c 2
 748 -22 l 2
 844 -22 923 57 923 153 c 2
 923 449 l 2
 923 545 844 624 748 624 c 2
 600 624 l 1
EndSplineSet
Validated: 1
EndChar

StartChar: uniE004
Encoding: 57348 57348 4
Width: 600
GlyphClass: 2
Flags: W
HStem: -72 50<369.607 830.393> 276 50<-58.8024 227> 624 50<369.607 830.393>
VStem: 227 50<70.607 276 326 531.393> 923 50<70.607 531.393>
CounterMasks: 1 e0
LayerCount: 2
Fore
SplineSet
748 674 m 2
 872 674 973 573 973 449 c 2
 973 153 l 2
 973 29 872 -72 748 -72 c 2
 452 -72 l 2
 328 -72 227 29 227 153 c 2
 227 276 l 1
 -34 276 l 2
 -48 276 -59 287 -59 301 c 0
 -59 315 -48 326 -34 326 c 2
 227 326 l 1
 227 449 l 2
 227 573 328 674 452 674 c 2
 748 674 l 2
748 624 m 2
 452 624 l 2
 356 624 277 545 277 449 c 2
 277 301 l 1
 277 153 l 2
 277 57 356 -22 452 -22 c 2
 748 -22 l 2
 844 -22 923 57 923 153 c 2
 923 449 l 2
 923 545 844 624 748 624 c 2
EndSplineSet
Validated: 1
EndChar

StartChar: uniE005
Encoding: 57349 57349 5
Width: 600
GlyphClass: 2
Flags: W
HStem: -72 50<369.607 830.393> 276 50<-58.8024 227> 624 50<369.607 575 625 830.393>
VStem: 227 50<70.607 276 326 531.393> 575 50<674 1001.8> 923 50<70.607 531.393>
CounterMasks: 1 fc
LayerCount: 2
Fore
SplineSet
748 674 m 2
 872 674 973 573 973 449 c 2
 973 153 l 2
 973 29 872 -72 748 -72 c 2
 452 -72 l 2
 328 -72 227 29 227 153 c 2
 227 276 l 1
 -34 276 l 2
 -48 276 -59 287 -59 301 c 0
 -59 315 -48 326 -34 326 c 2
 227 326 l 1
 227 449 l 2
 227 573 328 674 452 674 c 2
 575 674 l 1
 575 977 l 2
 575 991 586 1002 600 1002 c 0
 614 1002 625 991 625 977 c 2
 625 674 l 1
 748 674 l 2
277 301 m 1
 277 153 l 2
 277 57 356 -22 452 -22 c 2
 748 -22 l 2
 844 -22 923 57 923 153 c 2
 923 449 l 2
 923 545 844 624 748 624 c 2
 600 624 l 1
 452 624 l 2
 356 624 277 545 277 449 c 2
 277 301 l 1
EndSplineSet
Validated: 1
EndChar

StartChar: uniE006
Encoding: 57350 57350 6
Width: 600
GlyphClass: 2
Flags: W
HStem: -72 50<369.607 830.393> 276 50<-58.8024 227> 624 50<368.873 830.393>
VStem: 227 50<70.607 276 326 532.127> 923 50<70.607 531.393>
CounterMasks: 1 e0
LayerCount: 2
Fore
SplineSet
748 674 m 2
 872 674 973 573 973 449 c 2
 973 153 l 2
 973 29 872 -72 748 -72 c 2
 452 -72 l 2
 328 -72 227 29 227 153 c 2
 227 276 l 1
 -34 276 l 2
 -48 276 -59 287 -59 301 c 0
 -59 315 -48 326 -34 326 c 2
 227 326 l 1
 227 449 l 2
 227 504.660156422 247.350114094 555.686128447 280.995897885 595.023471677 c 1
 -174 1079 l 2
 -179 1084 -182 1090 -182 1097 c 0
 -182 1104 -179 1110 -174 1115 c 0
 -169 1120 -162 1122 -156 1122 c 0
 -150 1122 -143 1120 -138 1115 c 2
 318.195755481 629.74719003 l 1
 355.626800619 657.53823758 401.939041222 674 452 674 c 2
 748 674 l 2
748 624 m 2
 452 624 l 2
 356 624 277 545 277 449 c 2
 277 301 l 1
 277 153 l 2
 277 57 356 -22 452 -22 c 2
 748 -22 l 2
 844 -22 923 57 923 153 c 2
 923 449 l 2
 923 545 844 624 748 624 c 2
EndSplineSet
Validated: 1
EndChar

StartChar: uniE007
Encoding: 57351 57351 7
Width: 600
GlyphClass: 2
Flags: W
HStem: -72 50<369.607 830.393> 276 50<-58.8024 227> 624 50<368.873 575 625 830.393>
VStem: 227 50<70.607 276 326 532.127> 575 50<674 1001.8> 923 50<70.607 531.393>
CounterMasks: 1 fc
LayerCount: 2
Fore
SplineSet
748 674 m 2
 872 674 973 573 973 449 c 2
 973 153 l 2
 973 29 872 -72 748 -72 c 2
 452 -72 l 2
 328 -72 227 29 227 153 c 2
 227 276 l 1
 -34 276 l 2
 -48 276 -59 287 -59 301 c 0
 -59 315 -48 326 -34 326 c 2
 227 326 l 1
 227 449 l 2
 227 504.660156422 247.350114094 555.686128447 280.995897885 595.023471677 c 1
 -174 1079 l 2
 -179 1084 -182 1090 -182 1097 c 0
 -182 1104 -179 1110 -174 1115 c 0
 -169 1120 -162 1122 -156 1122 c 0
 -150 1122 -143 1120 -138 1115 c 2
 318.195755481 629.74719003 l 1
 355.626800619 657.53823758 401.939041222 674 452 674 c 2
 575 674 l 1
 575 977 l 2
 575 991 586 1002 600 1002 c 0
 614 1002 625 991 625 977 c 2
 625 674 l 1
 748 674 l 2
277 301 m 1
 277 153 l 2
 277 57 356 -22 452 -22 c 2
 748 -22 l 2
 844 -22 923 57 923 153 c 2
 923 449 l 2
 923 545 844 624 748 624 c 2
 600 624 l 1
 452 624 l 2
 356 624 277 545 277 449 c 2
 277 301 l 1
EndSplineSet
Validated: 1
EndChar

StartChar: uniE008
Encoding: 57352 57352 8
Width: 600
GlyphClass: 2
Flags: W
HStem: -72 50<368.873 830.393> 624 50<369.607 830.393>
VStem: 227 50<69.8726 531.393> 923 50<70.607 531.393>
LayerCount: 2
Fore
SplineSet
748 674 m 2
 872 674 973 573 973 449 c 2
 973 153 l 2
 973 29 872 -72 748 -72 c 2
 452 -72 l 2
 401.939041222 -72 355.626800619 -55.5382375801 318.195755481 -27.7471900299 c 1
 -138 -513 l 2
 -143 -518 -150 -520 -156 -520 c 0
 -162 -520 -169 -518 -174 -513 c 0
 -179 -508 -182 -502 -182 -495 c 0
 -182 -488 -179 -482 -174 -477 c 2
 280.995897885 6.97652832318 l 1
 247.350114094 46.3138715533 227 97.3398435778 227 153 c 2
 227 449 l 2
 227 573 328 674 452 674 c 2
 748 674 l 2
748 624 m 2
 452 624 l 2
 356 624 277 545 277 449 c 2
 277 153 l 2
 277 57 356 -22 452 -22 c 2
 748 -22 l 2
 844 -22 923 57 923 153 c 2
 923 449 l 2
 923 545 844 624 748 624 c 2
EndSplineSet
Validated: 1
EndChar

StartChar: uniE009
Encoding: 57353 57353 9
Width: 600
GlyphClass: 2
Flags: W
HStem: -72 50<368.873 830.393> 624 50<369.607 575 625 830.393>
VStem: 227 50<69.8726 531.393> 575 50<674 1001.8> 923 50<70.607 531.393>
CounterMasks: 1 38
LayerCount: 2
Fore
SplineSet
748 674 m 2
 872 674 973 573 973 449 c 2
 973 153 l 2
 973 29 872 -72 748 -72 c 2
 452 -72 l 2
 401.939041222 -72 355.626800619 -55.5382375801 318.195755481 -27.7471900299 c 1
 -138 -513 l 2
 -143 -518 -150 -520 -156 -520 c 0
 -162 -520 -169 -518 -174 -513 c 0
 -179 -508 -182 -502 -182 -495 c 0
 -182 -488 -179 -482 -174 -477 c 2
 280.995897885 6.97652832318 l 1
 247.350114094 46.3138715533 227 97.3398435778 227 153 c 2
 227 449 l 2
 227 573 328 674 452 674 c 2
 575 674 l 1
 575 977 l 2
 575 991 586 1002 600 1002 c 0
 614 1002 625 991 625 977 c 2
 625 674 l 1
 748 674 l 2
600 624 m 1
 452 624 l 2
 356 624 277 545 277 449 c 2
 277 153 l 2
 277 57 356 -22 452 -22 c 2
 748 -22 l 2
 844 -22 923 57 923 153 c 2
 923 449 l 2
 923 545 844 624 748 624 c 2
 600 624 l 1
EndSplineSet
Validated: 1
EndChar

StartChar: uniE00A
Encoding: 57354 57354 10
Width: 600
GlyphClass: 2
Flags: W
HStem: -72 50<368.873 830.393> 624 50<368.873 830.393>
VStem: 227 50<69.8726 532.127> 923 50<70.607 531.393>
LayerCount: 2
Fore
SplineSet
748 674 m 2
 872 674 973 573 973 449 c 2
 973 153 l 2
 973 29 872 -72 748 -72 c 2
 452 -72 l 2
 401.939041222 -72 355.626800619 -55.5382375801 318.195755481 -27.7471900299 c 1
 -138 -513 l 2
 -143 -518 -150 -520 -156 -520 c 0
 -162 -520 -169 -518 -174 -513 c 0
 -179 -508 -182 -502 -182 -495 c 0
 -182 -488 -179 -482 -174 -477 c 2
 280.995897885 6.97652832318 l 1
 247.350114094 46.3138715533 227 97.3398435778 227 153 c 2
 227 449 l 2
 227 504.660156422 247.350114094 555.686128447 280.995897885 595.023471677 c 1
 -174 1079 l 2
 -179 1084 -182 1090 -182 1097 c 0
 -182 1104 -179 1110 -174 1115 c 0
 -169 1120 -162 1122 -156 1122 c 0
 -150 1122 -143 1120 -138 1115 c 2
 318.195755481 629.74719003 l 1
 355.626800619 657.53823758 401.939041222 674 452 674 c 2
 748 674 l 2
748 624 m 2
 452 624 l 2
 356 624 277 545 277 449 c 2
 277 153 l 2
 277 57 356 -22 452 -22 c 2
 748 -22 l 2
 844 -22 923 57 923 153 c 2
 923 449 l 2
 923 545 844 624 748 624 c 2
EndSplineSet
Validated: 1
EndChar

StartChar: uniE00B
Encoding: 57355 57355 11
Width: 600
GlyphClass: 2
Flags: W
HStem: -72 50<368.873 830.393> 624 50<368.873 575 625 830.393>
VStem: 227 50<69.8726 532.127> 575 50<674 1001.8> 923 50<70.607 531.393>
CounterMasks: 1 38
LayerCount: 2
Fore
SplineSet
748 674 m 2
 872 674 973 573 973 449 c 2
 973 153 l 2
 973 29 872 -72 748 -72 c 2
 452 -72 l 2
 401.939041222 -72 355.626800619 -55.5382375801 318.195755481 -27.7471900299 c 1
 -138 -513 l 2
 -143 -518 -150 -520 -156 -520 c 0
 -162 -520 -169 -518 -174 -513 c 0
 -179 -508 -182 -502 -182 -495 c 0
 -182 -488 -179 -482 -174 -477 c 2
 280.995897885 6.97652832318 l 1
 247.350114094 46.3138715533 227 97.3398435778 227 153 c 2
 227 449 l 2
 227 504.660156422 247.350114094 555.686128447 280.995897885 595.023471677 c 1
 -174 1079 l 2
 -179 1084 -182 1090 -182 1097 c 0
 -182 1104 -179 1110 -174 1115 c 0
 -169 1120 -162 1122 -156 1122 c 0
 -150 1122 -143 1120 -138 1115 c 2
 318.195755481 629.74719003 l 1
 355.626800619 657.53823758 401.939041222 674 452 674 c 2
 575 674 l 1
 575 977 l 2
 575 991 586 1002 600 1002 c 0
 614 1002 625 991 625 977 c 2
 625 674 l 1
 748 674 l 2
600 624 m 1
 452 624 l 2
 356 624 277 545 277 449 c 2
 277 153 l 2
 277 57 356 -22 452 -22 c 2
 748 -22 l 2
 844 -22 923 57 923 153 c 2
 923 449 l 2
 923 545 844 624 748 624 c 2
 600 624 l 1
EndSplineSet
Validated: 1
EndChar

StartChar: uniE00C
Encoding: 57356 57356 12
Width: 600
GlyphClass: 2
Flags: W
HStem: -72 50<368.873 830.393> 276 50<-58.8024 227> 624 50<369.607 830.393>
VStem: 227 50<69.8726 276 326 531.393> 923 50<70.607 531.393>
CounterMasks: 1 e0
LayerCount: 2
Fore
SplineSet
748 674 m 2
 872 674 973 573 973 449 c 2
 973 153 l 2
 973 29 872 -72 748 -72 c 2
 452 -72 l 2
 401.939041222 -72 355.626800619 -55.5382375801 318.195755481 -27.7471900299 c 1
 -138 -513 l 2
 -143 -518 -150 -520 -156 -520 c 0
 -162 -520 -169 -518 -174 -513 c 0
 -179 -508 -182 -502 -182 -495 c 0
 -182 -488 -179 -482 -174 -477 c 2
 280.995897885 6.97652832318 l 1
 247.350114094 46.3138715533 227 97.3398435778 227 153 c 2
 227 276 l 1
 -34 276 l 2
 -48 276 -59 287 -59 301 c 0
 -59 315 -48 326 -34 326 c 2
 227 326 l 1
 227 449 l 2
 227 573 328 674 452 674 c 2
 748 674 l 2
748 624 m 2
 452 624 l 2
 356 624 277 545 277 449 c 2
 277 301 l 1
 277 153 l 2
 277 57 356 -22 452 -22 c 2
 748 -22 l 2
 844 -22 923 57 923 153 c 2
 923 449 l 2
 923 545 844 624 748 624 c 2
EndSplineSet
Validated: 1
EndChar

StartChar: uniE00D
Encoding: 57357 57357 13
Width: 600
GlyphClass: 2
Flags: W
HStem: -72 50<368.873 830.393> 276 50<-58.8024 227> 624 50<369.607 575 625 830.393>
VStem: 227 50<69.8726 276 326 531.393> 575 50<674 1001.8> 923 50<70.607 531.393>
CounterMasks: 1 fc
LayerCount: 2
Fore
SplineSet
748 674 m 2
 872 674 973 573 973 449 c 2
 973 153 l 2
 973 29 872 -72 748 -72 c 2
 452 -72 l 2
 401.939041222 -72 355.626800619 -55.5382375801 318.195755481 -27.7471900299 c 1
 -138 -513 l 2
 -143 -518 -150 -520 -156 -520 c 0
 -162 -520 -169 -518 -174 -513 c 0
 -179 -508 -182 -502 -182 -495 c 0
 -182 -488 -179 -482 -174 -477 c 2
 280.995897885 6.97652832318 l 1
 247.350114094 46.3138715533 227 97.3398435778 227 153 c 2
 227 276 l 1
 -34 276 l 2
 -48 276 -59 287 -59 301 c 0
 -59 315 -48 326 -34 326 c 2
 227 326 l 1
 227 449 l 2
 227 573 328 674 452 674 c 2
 575 674 l 1
 575 977 l 2
 575 991 586 1002 600 1002 c 0
 614 1002 625 991 625 977 c 2
 625 674 l 1
 748 674 l 2
277 301 m 1
 277 153 l 2
 277 57 356 -22 452 -22 c 2
 748 -22 l 2
 844 -22 923 57 923 153 c 2
 923 449 l 2
 923 545 844 624 748 624 c 2
 600 624 l 1
 452 624 l 2
 356 624 277 545 277 449 c 2
 277 301 l 1
EndSplineSet
Validated: 1
EndChar

StartChar: uniE00E
Encoding: 57358 57358 14
Width: 600
GlyphClass: 2
Flags: W
HStem: -72 50<368.873 830.393> 276 50<-58.8024 227> 624 50<368.873 830.393>
VStem: 227 50<69.8726 276 326 532.127> 923 50<70.607 531.393>
CounterMasks: 1 e0
LayerCount: 2
Fore
SplineSet
748 674 m 2
 872 674 973 573 973 449 c 2
 973 153 l 2
 973 29 872 -72 748 -72 c 2
 452 -72 l 2
 401.939041222 -72 355.626800619 -55.5382375801 318.195755481 -27.7471900299 c 1
 -138 -513 l 2
 -143 -518 -150 -520 -156 -520 c 0
 -162 -520 -169 -518 -174 -513 c 0
 -179 -508 -182 -502 -182 -495 c 0
 -182 -488 -179 -482 -174 -477 c 2
 280.995897885 6.97652832318 l 1
 247.350114094 46.3138715533 227 97.3398435778 227 153 c 2
 227 276 l 1
 -34 276 l 2
 -48 276 -59 287 -59 301 c 0
 -59 315 -48 326 -34 326 c 2
 227 326 l 1
 227 449 l 2
 227 504.660156422 247.350114094 555.686128447 280.995897885 595.023471677 c 1
 -174 1079 l 2
 -179 1084 -182 1090 -182 1097 c 0
 -182 1104 -179 1110 -174 1115 c 0
 -169 1120 -162 1122 -156 1122 c 0
 -150 1122 -143 1120 -138 1115 c 2
 318.195755481 629.74719003 l 1
 355.626800619 657.53823758 401.939041222 674 452 674 c 2
 748 674 l 2
748 624 m 2
 452 624 l 2
 356 624 277 545 277 449 c 2
 277 301 l 1
 277 153 l 2
 277 57 356 -22 452 -22 c 2
 748 -22 l 2
 844 -22 923 57 923 153 c 2
 923 449 l 2
 923 545 844 624 748 624 c 2
EndSplineSet
Validated: 1
EndChar

StartChar: uniE00F
Encoding: 57359 57359 15
Width: 600
GlyphClass: 2
Flags: W
HStem: -72 50<368.873 830.393> 276 50<-58.8024 227> 624 50<368.873 575 625 830.393>
VStem: 227 50<69.8726 276 326 532.127> 575 50<674 1001.8> 923 50<70.607 531.393>
CounterMasks: 1 fc
LayerCount: 2
Fore
SplineSet
748 674 m 2
 872 674 973 573 973 449 c 2
 973 153 l 2
 973 29 872 -72 748 -72 c 2
 452 -72 l 2
 401.939041222 -72 355.626800619 -55.5382375801 318.195755481 -27.7471900299 c 1
 -138 -513 l 2
 -143 -518 -150 -520 -156 -520 c 0
 -162 -520 -169 -518 -174 -513 c 0
 -179 -508 -182 -502 -182 -495 c 0
 -182 -488 -179 -482 -174 -477 c 2
 280.995897885 6.97652832318 l 1
 247.350114094 46.3138715533 227 97.3398435778 227 153 c 2
 227 276 l 1
 -34 276 l 2
 -48 276 -59 287 -59 301 c 0
 -59 315 -48 326 -34 326 c 2
 227 326 l 1
 227 449 l 2
 227 504.660156422 247.350114094 555.686128447 280.995897885 595.023471677 c 1
 -174 1079 l 2
 -179 1084 -182 1090 -182 1097 c 0
 -182 1104 -179 1110 -174 1115 c 0
 -169 1120 -162 1122 -156 1122 c 0
 -150 1122 -143 1120 -138 1115 c 2
 318.195755481 629.74719003 l 1
 355.626800619 657.53823758 401.939041222 674 452 674 c 2
 575 674 l 1
 575 977 l 2
 575 991 586 1002 600 1002 c 0
 614 1002 625 991 625 977 c 2
 625 674 l 1
 748 674 l 2
277 301 m 1
 277 153 l 2
 277 57 356 -22 452 -22 c 2
 748 -22 l 2
 844 -22 923 57 923 153 c 2
 923 449 l 2
 923 545 844 624 748 624 c 2
 600 624 l 1
 452 624 l 2
 356 624 277 545 277 449 c 2
 277 301 l 1
EndSplineSet
Validated: 1
EndChar

StartChar: uniE010
Encoding: 57360 57360 16
Width: 600
GlyphClass: 2
Flags: W
HStem: -72 50<369.607 575 625 830.393> 624 50<369.607 830.393>
VStem: 227 50<70.607 531.393> 575 50<-399.802 -72> 923 50<70.607 531.393>
CounterMasks: 1 38
LayerCount: 2
Fore
SplineSet
748 674 m 2
 872 674 973 573 973 449 c 2
 973 153 l 2
 973 29 872 -72 748 -72 c 2
 625 -72 l 1
 625 -375 l 2
 625 -389 614 -400 600 -400 c 0
 586 -400 575 -389 575 -375 c 2
 575 -72 l 1
 452 -72 l 2
 328 -72 227 29 227 153 c 2
 227 449 l 2
 227 573 328 674 452 674 c 2
 748 674 l 2
748 624 m 2
 452 624 l 2
 356 624 277 545 277 449 c 2
 277 153 l 2
 277 57 356 -22 452 -22 c 2
 600 -22 l 1
 748 -22 l 2
 844 -22 923 57 923 153 c 2
 923 449 l 2
 923 545 844 624 748 624 c 2
EndSplineSet
Validated: 1
EndChar

StartChar: uniE011
Encoding: 57361 57361 17
Width: 600
GlyphClass: 2
Flags: W
HStem: -72 50<369.607 575 625 830.393> 624 50<369.607 575 625 830.393>
VStem: 227 50<70.607 531.393> 575 50<-399.802 -72 674 1001.8> 923 50<70.607 531.393>
CounterMasks: 1 38
LayerCount: 2
Fore
SplineSet
748 674 m 2
 872 674 973 573 973 449 c 2
 973 153 l 2
 973 29 872 -72 748 -72 c 2
 625 -72 l 1
 625 -375 l 2
 625 -389 614 -400 600 -400 c 0
 586 -400 575 -389 575 -375 c 2
 575 -72 l 1
 452 -72 l 2
 328 -72 227 29 227 153 c 2
 227 449 l 2
 227 573 328 674 452 674 c 2
 575 674 l 1
 575 977 l 2
 575 991 586 1002 600 1002 c 0
 614 1002 625 991 625 977 c 2
 625 674 l 1
 748 674 l 2
600 624 m 1
 452 624 l 2
 356 624 277 545 277 449 c 2
 277 153 l 2
 277 57 356 -22 452 -22 c 2
 600 -22 l 1
 748 -22 l 2
 844 -22 923 57 923 153 c 2
 923 449 l 2
 923 545 844 624 748 624 c 2
 600 624 l 1
EndSplineSet
Validated: 1
EndChar

StartChar: uniE012
Encoding: 57362 57362 18
Width: 600
GlyphClass: 2
Flags: W
HStem: -72 50<369.607 575 625 830.393> 624 50<368.873 830.393>
VStem: 227 50<70.607 532.127> 575 50<-399.802 -72> 923 50<70.607 531.393>
CounterMasks: 1 38
LayerCount: 2
Fore
SplineSet
748 674 m 2
 872 674 973 573 973 449 c 2
 973 153 l 2
 973 29 872 -72 748 -72 c 2
 625 -72 l 1
 625 -375 l 2
 625 -389 614 -400 600 -400 c 0
 586 -400 575 -389 575 -375 c 2
 575 -72 l 1
 452 -72 l 2
 328 -72 227 29 227 153 c 2
 227 449 l 2
 227 504.660156422 247.350114094 555.686128447 280.995897885 595.023471677 c 1
 -174 1079 l 2
 -179 1084 -182 1090 -182 1097 c 0
 -182 1104 -179 1110 -174 1115 c 0
 -169 1120 -162 1122 -156 1122 c 0
 -150 1122 -143 1120 -138 1115 c 2
 318.195755481 629.74719003 l 1
 355.626800619 657.53823758 401.939041222 674 452 674 c 2
 748 674 l 2
748 624 m 2
 452 624 l 2
 356 624 277 545 277 449 c 2
 277 153 l 2
 277 57 356 -22 452 -22 c 2
 600 -22 l 1
 748 -22 l 2
 844 -22 923 57 923 153 c 2
 923 449 l 2
 923 545 844 624 748 624 c 2
EndSplineSet
Validated: 1
EndChar

StartChar: uniE013
Encoding: 57363 57363 19
Width: 600
GlyphClass: 2
Flags: W
HStem: -72 50<369.607 575 625 830.393> 624 50<368.873 575 625 830.393>
VStem: 227 50<70.607 532.127> 575 50<-399.802 -72 674 1001.8> 923 50<70.607 531.393>
CounterMasks: 1 38
LayerCount: 2
Fore
SplineSet
748 674 m 2
 872 674 973 573 973 449 c 2
 973 153 l 2
 973 29 872 -72 748 -72 c 2
 625 -72 l 1
 625 -375 l 2
 625 -389 614 -400 600 -400 c 0
 586 -400 575 -389 575 -375 c 2
 575 -72 l 1
 452 -72 l 2
 328 -72 227 29 227 153 c 2
 227 449 l 2
 227 504.660156422 247.350114094 555.686128447 280.995897885 595.023471677 c 1
 -174 1079 l 2
 -179 1084 -182 1090 -182 1097 c 0
 -182 1104 -179 1110 -174 1115 c 0
 -169 1120 -162 1122 -156 1122 c 0
 -150 1122 -143 1120 -138 1115 c 2
 318.195755481 629.74719003 l 1
 355.626800619 657.53823758 401.939041222 674 452 674 c 2
 575 674 l 1
 575 977 l 2
 575 991 586 1002 600 1002 c 0
 614 1002 625 991 625 977 c 2
 625 674 l 1
 748 674 l 2
600 624 m 1
 452 624 l 2
 356 624 277 545 277 449 c 2
 277 153 l 2
 277 57 356 -22 452 -22 c 2
 600 -22 l 1
 748 -22 l 2
 844 -22 923 57 923 153 c 2
 923 449 l 2
 923 545 844 624 748 624 c 2
 600 624 l 1
EndSplineSet
Validated: 1
EndChar

StartChar: uniE014
Encoding: 57364 57364 20
Width: 600
GlyphClass: 2
Flags: W
HStem: -72 50<369.607 575 625 830.393> 276 50<-58.8024 227> 624 50<369.607 830.393>
VStem: 227 50<70.607 276 326 531.393> 575 50<-399.802 -72> 923 50<70.607 531.393>
CounterMasks: 1 fc
LayerCount: 2
Fore
SplineSet
748 674 m 2
 872 674 973 573 973 449 c 2
 973 153 l 2
 973 29 872 -72 748 -72 c 2
 625 -72 l 1
 625 -375 l 2
 625 -389 614 -400 600 -400 c 0
 586 -400 575 -389 575 -375 c 2
 575 -72 l 1
 452 -72 l 2
 328 -72 227 29 227 153 c 2
 227 276 l 1
 -34 276 l 2
 -48 276 -59 287 -59 301 c 0
 -59 315 -48 326 -34 326 c 2
 227 326 l 1
 227 449 l 2
 227 573 328 674 452 674 c 2
 748 674 l 2
748 624 m 2
 452 624 l 2
 356 624 277 545 277 449 c 2
 277 301 l 1
 277 153 l 2
 277 57 356 -22 452 -22 c 2
 600 -22 l 1
 748 -22 l 2
 844 -22 923 57 923 153 c 2
 923 449 l 2
 923 545 844 624 748 624 c 2
EndSplineSet
Validated: 1
EndChar

StartChar: uniE015
Encoding: 57365 57365 21
Width: 600
GlyphClass: 2
Flags: W
HStem: -72 50<369.607 575 625 830.393> 276 50<-58.8024 227> 624 50<369.607 575 625 830.393>
VStem: 227 50<70.607 276 326 531.393> 575 50<-399.802 -72 674 1001.8> 923 50<70.607 531.393>
CounterMasks: 1 fc
LayerCount: 2
Fore
SplineSet
748 674 m 2
 872 674 973 573 973 449 c 2
 973 153 l 2
 973 29 872 -72 748 -72 c 2
 625 -72 l 1
 625 -375 l 2
 625 -389 614 -400 600 -400 c 0
 586 -400 575 -389 575 -375 c 2
 575 -72 l 1
 452 -72 l 2
 328 -72 227 29 227 153 c 2
 227 276 l 1
 -34 276 l 2
 -48 276 -59 287 -59 301 c 0
 -59 315 -48 326 -34 326 c 2
 227 326 l 1
 227 449 l 2
 227 573 328 674 452 674 c 2
 575 674 l 1
 575 977 l 2
 575 991 586 1002 600 1002 c 0
 614 1002 625 991 625 977 c 2
 625 674 l 1
 748 674 l 2
277 301 m 1
 277 153 l 2
 277 57 356 -22 452 -22 c 2
 600 -22 l 1
 748 -22 l 2
 844 -22 923 57 923 153 c 2
 923 449 l 2
 923 545 844 624 748 624 c 2
 600 624 l 1
 452 624 l 2
 356 624 277 545 277 449 c 2
 277 301 l 1
EndSplineSet
Validated: 1
EndChar

StartChar: uniE016
Encoding: 57366 57366 22
Width: 600
GlyphClass: 2
Flags: W
HStem: -72 50<369.607 575 625 830.393> 276 50<-58.8024 227> 624 50<368.873 830.393>
VStem: 227 50<70.607 276 326 532.127> 575 50<-399.802 -72> 923 50<70.607 531.393>
CounterMasks: 1 fc
LayerCount: 2
Fore
SplineSet
748 674 m 2
 872 674 973 573 973 449 c 2
 973 153 l 2
 973 29 872 -72 748 -72 c 2
 625 -72 l 1
 625 -375 l 2
 625 -389 614 -400 600 -400 c 0
 586 -400 575 -389 575 -375 c 2
 575 -72 l 1
 452 -72 l 2
 328 -72 227 29 227 153 c 2
 227 276 l 1
 -34 276 l 2
 -48 276 -59 287 -59 301 c 0
 -59 315 -48 326 -34 326 c 2
 227 326 l 1
 227 449 l 2
 227 504.660156422 247.350114094 555.686128447 280.995897885 595.023471677 c 1
 -174 1079 l 2
 -179 1084 -182 1090 -182 1097 c 0
 -182 1104 -179 1110 -174 1115 c 0
 -169 1120 -162 1122 -156 1122 c 0
 -150 1122 -143 1120 -138 1115 c 2
 318.195755481 629.74719003 l 1
 355.626800619 657.53823758 401.939041222 674 452 674 c 2
 748 674 l 2
748 624 m 2
 452 624 l 2
 356 624 277 545 277 449 c 2
 277 301 l 1
 277 153 l 2
 277 57 356 -22 452 -22 c 2
 600 -22 l 1
 748 -22 l 2
 844 -22 923 57 923 153 c 2
 923 449 l 2
 923 545 844 624 748 624 c 2
EndSplineSet
Validated: 1
EndChar

StartChar: uniE017
Encoding: 57367 57367 23
Width: 600
GlyphClass: 2
Flags: W
HStem: -72 50<369.607 575 625 830.393> 276 50<-58.8024 227> 624 50<368.873 575 625 830.393>
VStem: 227 50<70.607 276 326 532.127> 575 50<-399.802 -72 674 1001.8> 923 50<70.607 531.393>
CounterMasks: 1 fc
LayerCount: 2
Fore
SplineSet
748 674 m 2
 872 674 973 573 973 449 c 2
 973 153 l 2
 973 29 872 -72 748 -72 c 2
 625 -72 l 1
 625 -375 l 2
 625 -389 614 -400 600 -400 c 0
 586 -400 575 -389 575 -375 c 2
 575 -72 l 1
 452 -72 l 2
 328 -72 227 29 227 153 c 2
 227 276 l 1
 -34 276 l 2
 -48 276 -59 287 -59 301 c 0
 -59 315 -48 326 -34 326 c 2
 227 326 l 1
 227 449 l 2
 227 504.660156422 247.350114094 555.686128447 280.995897885 595.023471677 c 1
 -174 1079 l 2
 -179 1084 -182 1090 -182 1097 c 0
 -182 1104 -179 1110 -174 1115 c 0
 -169 1120 -162 1122 -156 1122 c 0
 -150 1122 -143 1120 -138 1115 c 2
 318.195755481 629.74719003 l 1
 355.626800619 657.53823758 401.939041222 674 452 674 c 2
 575 674 l 1
 575 977 l 2
 575 991 586 1002 600 1002 c 0
 614 1002 625 991 625 977 c 2
 625 674 l 1
 748 674 l 2
277 301 m 1
 277 153 l 2
 277 57 356 -22 452 -22 c 2
 600 -22 l 1
 748 -22 l 2
 844 -22 923 57 923 153 c 2
 923 449 l 2
 923 545 844 624 748 624 c 2
 600 624 l 1
 452 624 l 2
 356 624 277 545 277 449 c 2
 277 301 l 1
EndSplineSet
Validated: 1
EndChar

StartChar: uniE018
Encoding: 57368 57368 24
Width: 600
GlyphClass: 2
Flags: W
HStem: -72 50<368.873 575 625 830.393> 624 50<369.607 830.393>
VStem: 227 50<69.8726 531.393> 575 50<-399.802 -72> 923 50<70.607 531.393>
CounterMasks: 1 38
LayerCount: 2
Fore
SplineSet
748 674 m 2
 872 674 973 573 973 449 c 2
 973 153 l 2
 973 29 872 -72 748 -72 c 2
 625 -72 l 1
 625 -375 l 2
 625 -389 614 -400 600 -400 c 0
 586 -400 575 -389 575 -375 c 2
 575 -72 l 1
 452 -72 l 2
 401.939041222 -72 355.626800619 -55.5382375801 318.195755481 -27.7471900299 c 1
 -138 -513 l 2
 -143 -518 -150 -520 -156 -520 c 0
 -162 -520 -169 -518 -174 -513 c 0
 -179 -508 -182 -502 -182 -495 c 0
 -182 -488 -179 -482 -174 -477 c 2
 280.995897885 6.97652832318 l 1
 247.350114094 46.3138715533 227 97.3398435778 227 153 c 2
 227 449 l 2
 227 573 328 674 452 674 c 2
 748 674 l 2
748 624 m 2
 452 624 l 2
 356 624 277 545 277 449 c 2
 277 153 l 2
 277 57 356 -22 452 -22 c 2
 600 -22 l 1
 748 -22 l 2
 844 -22 923 57 923 153 c 2
 923 449 l 2
 923 545 844 624 748 624 c 2
EndSplineSet
Validated: 1
EndChar

StartChar: uniE019
Encoding: 57369 57369 25
Width: 600
GlyphClass: 2
Flags: W
HStem: -72 50<368.873 575 625 830.393> 624 50<369.607 575 625 830.393>
VStem: 227 50<69.8726 531.393> 575 50<-399.802 -72 674 1001.8> 923 50<70.607 531.393>
CounterMasks: 1 38
LayerCount: 2
Fore
SplineSet
748 674 m 2
 872 674 973 573 973 449 c 2
 973 153 l 2
 973 29 872 -72 748 -72 c 2
 625 -72 l 1
 625 -375 l 2
 625 -389 614 -400 600 -400 c 0
 586 -400 575 -389 575 -375 c 2
 575 -72 l 1
 452 -72 l 2
 401.939041222 -72 355.626800619 -55.5382375801 318.195755481 -27.7471900299 c 1
 -138 -513 l 2
 -143 -518 -150 -520 -156 -520 c 0
 -162 -520 -169 -518 -174 -513 c 0
 -179 -508 -182 -502 -182 -495 c 0
 -182 -488 -179 -482 -174 -477 c 2
 280.995897885 6.97652832318 l 1
 247.350114094 46.3138715533 227 97.3398435778 227 153 c 2
 227 449 l 2
 227 573 328 674 452 674 c 2
 575 674 l 1
 575 977 l 2
 575 991 586 1002 600 1002 c 0
 614 1002 625 991 625 977 c 2
 625 674 l 1
 748 674 l 2
600 624 m 1
 452 624 l 2
 356 624 277 545 277 449 c 2
 277 153 l 2
 277 57 356 -22 452 -22 c 2
 600 -22 l 1
 748 -22 l 2
 844 -22 923 57 923 153 c 2
 923 449 l 2
 923 545 844 624 748 624 c 2
 600 624 l 1
EndSplineSet
Validated: 1
EndChar

StartChar: uniE01A
Encoding: 57370 57370 26
Width: 600
GlyphClass: 2
Flags: W
HStem: -72 50<368.873 575 625 830.393> 624 50<368.873 830.393>
VStem: 227 50<69.8726 532.127> 575 50<-399.802 -72> 923 50<70.607 531.393>
CounterMasks: 1 38
LayerCount: 2
Fore
SplineSet
748 674 m 2
 872 674 973 573 973 449 c 2
 973 153 l 2
 973 29 872 -72 748 -72 c 2
 625 -72 l 1
 625 -375 l 2
 625 -389 614 -400 600 -400 c 0
 586 -400 575 -389 575 -375 c 2
 575 -72 l 1
 452 -72 l 2
 401.939041222 -72 355.626800619 -55.5382375801 318.195755481 -27.7471900299 c 1
 -138 -513 l 2
 -143 -518 -150 -520 -156 -520 c 0
 -162 -520 -169 -518 -174 -513 c 0
 -179 -508 -182 -502 -182 -495 c 0
 -182 -488 -179 -482 -174 -477 c 2
 280.995897885 6.97652832318 l 1
 247.350114094 46.3138715533 227 97.3398435778 227 153 c 2
 227 449 l 2
 227 504.660156422 247.350114094 555.686128447 280.995897885 595.023471677 c 1
 -174 1079 l 2
 -179 1084 -182 1090 -182 1097 c 0
 -182 1104 -179 1110 -174 1115 c 0
 -169 1120 -162 1122 -156 1122 c 0
 -150 1122 -143 1120 -138 1115 c 2
 318.195755481 629.74719003 l 1
 355.626800619 657.53823758 401.939041222 674 452 674 c 2
 748 674 l 2
748 624 m 2
 452 624 l 2
 356 624 277 545 277 449 c 2
 277 153 l 2
 277 57 356 -22 452 -22 c 2
 600 -22 l 1
 748 -22 l 2
 844 -22 923 57 923 153 c 2
 923 449 l 2
 923 545 844 624 748 624 c 2
EndSplineSet
Validated: 1
EndChar

StartChar: uniE01B
Encoding: 57371 57371 27
Width: 600
GlyphClass: 2
Flags: W
HStem: -72 50<368.873 575 625 830.393> 624 50<368.873 575 625 830.393>
VStem: 227 50<69.8726 532.127> 575 50<-399.802 -72 674 1001.8> 923 50<70.607 531.393>
CounterMasks: 1 38
LayerCount: 2
Fore
SplineSet
748 674 m 2
 872 674 973 573 973 449 c 2
 973 153 l 2
 973 29 872 -72 748 -72 c 2
 625 -72 l 1
 625 -375 l 2
 625 -389 614 -400 600 -400 c 0
 586 -400 575 -389 575 -375 c 2
 575 -72 l 1
 452 -72 l 2
 401.939041222 -72 355.626800619 -55.5382375801 318.195755481 -27.7471900299 c 1
 -138 -513 l 2
 -143 -518 -150 -520 -156 -520 c 0
 -162 -520 -169 -518 -174 -513 c 0
 -179 -508 -182 -502 -182 -495 c 0
 -182 -488 -179 -482 -174 -477 c 2
 280.995897885 6.97652832318 l 1
 247.350114094 46.3138715533 227 97.3398435778 227 153 c 2
 227 449 l 2
 227 504.660156422 247.350114094 555.686128447 280.995897885 595.023471677 c 1
 -174 1079 l 2
 -179 1084 -182 1090 -182 1097 c 0
 -182 1104 -179 1110 -174 1115 c 0
 -169 1120 -162 1122 -156 1122 c 0
 -150 1122 -143 1120 -138 1115 c 2
 318.195755481 629.74719003 l 1
 355.626800619 657.53823758 401.939041222 674 452 674 c 2
 575 674 l 1
 575 977 l 2
 575 991 586 1002 600 1002 c 0
 614 1002 625 991 625 977 c 2
 625 674 l 1
 748 674 l 2
600 624 m 1
 452 624 l 2
 356 624 277 545 277 449 c 2
 277 153 l 2
 277 57 356 -22 452 -22 c 2
 600 -22 l 1
 748 -22 l 2
 844 -22 923 57 923 153 c 2
 923 449 l 2
 923 545 844 624 748 624 c 2
 600 624 l 1
EndSplineSet
Validated: 1
EndChar

StartChar: uniE01C
Encoding: 57372 57372 28
Width: 600
GlyphClass: 2
Flags: W
HStem: -72 50<368.873 575 625 830.393> 276 50<-58.8024 227> 624 50<369.607 830.393>
VStem: 227 50<69.8726 276 326 531.393> 575 50<-399.802 -72> 923 50<70.607 531.393>
CounterMasks: 1 fc
LayerCount: 2
Fore
SplineSet
748 674 m 2
 872 674 973 573 973 449 c 2
 973 153 l 2
 973 29 872 -72 748 -72 c 2
 625 -72 l 1
 625 -375 l 2
 625 -389 614 -400 600 -400 c 0
 586 -400 575 -389 575 -375 c 2
 575 -72 l 1
 452 -72 l 2
 401.939041222 -72 355.626800619 -55.5382375801 318.195755481 -27.7471900299 c 1
 -138 -513 l 2
 -143 -518 -150 -520 -156 -520 c 0
 -162 -520 -169 -518 -174 -513 c 0
 -179 -508 -182 -502 -182 -495 c 0
 -182 -488 -179 -482 -174 -477 c 2
 280.995897885 6.97652832318 l 1
 247.350114094 46.3138715533 227 97.3398435778 227 153 c 2
 227 276 l 1
 -34 276 l 2
 -48 276 -59 287 -59 301 c 0
 -59 315 -48 326 -34 326 c 2
 227 326 l 1
 227 449 l 2
 227 573 328 674 452 674 c 2
 748 674 l 2
748 624 m 2
 452 624 l 2
 356 624 277 545 277 449 c 2
 277 301 l 1
 277 153 l 2
 277 57 356 -22 452 -22 c 2
 600 -22 l 1
 748 -22 l 2
 844 -22 923 57 923 153 c 2
 923 449 l 2
 923 545 844 624 748 624 c 2
EndSplineSet
Validated: 1
EndChar

StartChar: uniE01D
Encoding: 57373 57373 29
Width: 600
GlyphClass: 2
Flags: W
HStem: -72 50<368.873 575 625 830.393> 276 50<-58.8024 227> 624 50<369.607 575 625 830.393>
VStem: 227 50<69.8726 276 326 531.393> 575 50<-399.802 -72 674 1001.8> 923 50<70.607 531.393>
CounterMasks: 1 fc
LayerCount: 2
Fore
SplineSet
748 674 m 2
 872 674 973 573 973 449 c 2
 973 153 l 2
 973 29 872 -72 748 -72 c 2
 625 -72 l 1
 625 -375 l 2
 625 -389 614 -400 600 -400 c 0
 586 -400 575 -389 575 -375 c 2
 575 -72 l 1
 452 -72 l 2
 401.939041222 -72 355.626800619 -55.5382375801 318.195755481 -27.7471900299 c 1
 -138 -513 l 2
 -143 -518 -150 -520 -156 -520 c 0
 -162 -520 -169 -518 -174 -513 c 0
 -179 -508 -182 -502 -182 -495 c 0
 -182 -488 -179 -482 -174 -477 c 2
 280.995897885 6.97652832318 l 1
 247.350114094 46.3138715533 227 97.3398435778 227 153 c 2
 227 276 l 1
 -34 276 l 2
 -48 276 -59 287 -59 301 c 0
 -59 315 -48 326 -34 326 c 2
 227 326 l 1
 227 449 l 2
 227 573 328 674 452 674 c 2
 575 674 l 1
 575 977 l 2
 575 991 586 1002 600 1002 c 0
 614 1002 625 991 625 977 c 2
 625 674 l 1
 748 674 l 2
277 301 m 1
 277 153 l 2
 277 57 356 -22 452 -22 c 2
 600 -22 l 1
 748 -22 l 2
 844 -22 923 57 923 153 c 2
 923 449 l 2
 923 545 844 624 748 624 c 2
 600 624 l 1
 452 624 l 2
 356 624 277 545 277 449 c 2
 277 301 l 1
EndSplineSet
Validated: 1
EndChar

StartChar: uniE01E
Encoding: 57374 57374 30
Width: 600
GlyphClass: 2
Flags: W
HStem: -72 50<368.873 575 625 830.393> 276 50<-58.8024 227> 624 50<368.873 830.393>
VStem: 227 50<69.8726 276 326 532.127> 575 50<-399.802 -72> 923 50<70.607 531.393>
CounterMasks: 1 fc
LayerCount: 2
Fore
SplineSet
748 674 m 2
 872 674 973 573 973 449 c 2
 973 153 l 2
 973 29 872 -72 748 -72 c 2
 625 -72 l 1
 625 -375 l 2
 625 -389 614 -400 600 -400 c 0
 586 -400 575 -389 575 -375 c 2
 575 -72 l 1
 452 -72 l 2
 401.939041222 -72 355.626800619 -55.5382375801 318.195755481 -27.7471900299 c 1
 -138 -513 l 2
 -143 -518 -150 -520 -156 -520 c 0
 -162 -520 -169 -518 -174 -513 c 0
 -179 -508 -182 -502 -182 -495 c 0
 -182 -488 -179 -482 -174 -477 c 2
 280.995897885 6.97652832318 l 1
 247.350114094 46.3138715533 227 97.3398435778 227 153 c 2
 227 276 l 1
 -34 276 l 2
 -48 276 -59 287 -59 301 c 0
 -59 315 -48 326 -34 326 c 2
 227 326 l 1
 227 449 l 2
 227 504.660156422 247.350114094 555.686128447 280.995897885 595.023471677 c 1
 -174 1079 l 2
 -179 1084 -182 1090 -182 1097 c 0
 -182 1104 -179 1110 -174 1115 c 0
 -169 1120 -162 1122 -156 1122 c 0
 -150 1122 -143 1120 -138 1115 c 2
 318.195755481 629.74719003 l 1
 355.626800619 657.53823758 401.939041222 674 452 674 c 2
 748 674 l 2
748 624 m 2
 452 624 l 2
 356 624 277 545 277 449 c 2
 277 301 l 1
 277 153 l 2
 277 57 356 -22 452 -22 c 2
 600 -22 l 1
 748 -22 l 2
 844 -22 923 57 923 153 c 2
 923 449 l 2
 923 545 844 624 748 624 c 2
EndSplineSet
Validated: 1
EndChar

StartChar: uniE01F
Encoding: 57375 57375 31
Width: 600
GlyphClass: 2
Flags: W
HStem: -72 50<368.873 575 625 830.393> 276 50<-58.8024 227> 624 50<368.873 575 625 830.393>
VStem: 227 50<69.8726 276 326 532.127> 575 50<-399.802 -72 674 1001.8> 923 50<70.607 531.393>
CounterMasks: 1 fc
LayerCount: 2
Fore
SplineSet
748 674 m 2
 872 674 973 573 973 449 c 2
 973 153 l 2
 973 29 872 -72 748 -72 c 2
 625 -72 l 1
 625 -375 l 2
 625 -389 614 -400 600 -400 c 0
 586 -400 575 -389 575 -375 c 2
 575 -72 l 1
 452 -72 l 2
 401.939041222 -72 355.626800619 -55.5382375801 318.195755481 -27.7471900299 c 1
 -138 -513 l 2
 -143 -518 -150 -520 -156 -520 c 0
 -162 -520 -169 -518 -174 -513 c 0
 -179 -508 -182 -502 -182 -495 c 0
 -182 -488 -179 -482 -174 -477 c 2
 280.995897885 6.97652832318 l 1
 247.350114094 46.3138715533 227 97.3398435778 227 153 c 2
 227 276 l 1
 -34 276 l 2
 -48 276 -59 287 -59 301 c 0
 -59 315 -48 326 -34 326 c 2
 227 326 l 1
 227 449 l 2
 227 504.660156422 247.350114094 555.686128447 280.995897885 595.023471677 c 1
 -174 1079 l 2
 -179 1084 -182 1090 -182 1097 c 0
 -182 1104 -179 1110 -174 1115 c 0
 -169 1120 -162 1122 -156 1122 c 0
 -150 1122 -143 1120 -138 1115 c 2
 318.195755481 629.74719003 l 1
 355.626800619 657.53823758 401.939041222 674 452 674 c 2
 575 674 l 1
 575 977 l 2
 575 991 586 1002 600 1002 c 0
 614 1002 625 991 625 977 c 2
 625 674 l 1
 748 674 l 2
277 301 m 1
 277 153 l 2
 277 57 356 -22 452 -22 c 2
 600 -22 l 1
 748 -22 l 2
 844 -22 923 57 923 153 c 2
 923 449 l 2
 923 545 844 624 748 624 c 2
 600 624 l 1
 452 624 l 2
 356 624 277 545 277 449 c 2
 277 301 l 1
EndSplineSet
Validated: 1
EndChar

StartChar: uniE020
Encoding: 57376 57376 32
Width: 600
GlyphClass: 2
Flags: W
HStem: -72 50<369.607 830.393> -29 20G<-29 -22.5 152.5 159> 624 50<369.607 830.393>
VStem: 40 50<-64 245.802> 227 50<70.607 531.393> 923 50<70.607 531.393>
LayerCount: 2
Fore
SplineSet
748 674 m 2xbc
 872 674 973 573 973 449 c 2
 973 153 l 2
 973 29 872 -72 748 -72 c 2
 452 -72 l 2
 328 -72 227 29 227 153 c 2
 227 449 l 2
 227 573 328 674 452 674 c 2
 748 674 l 2xbc
748 624 m 2
 452 624 l 2
 356 624 277 545 277 449 c 2
 277 153 l 2
 277 57 356 -22 452 -22 c 2
 748 -22 l 2
 844 -22 923 57 923 153 c 2
 923 449 l 2
 923 545 844 624 748 624 c 2
173 -16 m 0
 178 -21 180 -28 180 -34 c 0
 180 -40 178 -46 173 -51 c 2
 83 -142 l 2
 78 -147 72 -149 65 -149 c 0
 58 -149 51 -146 47 -142 c 2
 -43 -51 l 2
 -48 -46 -50 -40 -50 -34 c 0
 -50 -28 -48 -21 -43 -16 c 0
 -38 -12 -32 -9 -26 -9 c 0
 -19 -9 -12 -12 -8 -16 c 2
 40 -64 l 1
 40 221 l 2
 40 235 51 246 65 246 c 0
 79 246 90 235 90 221 c 2
 90 -64 l 1
 138 -16 l 2
 142 -12 149 -9 156 -9 c 0x7c
 162 -9 168 -12 173 -16 c 0
EndSplineSet
Validated: 1
EndChar

StartChar: uniE021
Encoding: 57377 57377 33
Width: 600
GlyphClass: 2
Flags: W
HStem: -72 50<369.607 830.393> -29 20G<-29 -22.5 152.5 159> 624 50<369.607 575 625 830.393>
VStem: 40 50<-64 245.802> 227 50<70.607 531.393> 575 50<674 1001.8> 923 50<70.607 531.393>
CounterMasks: 1 38
LayerCount: 2
Fore
SplineSet
748 674 m 2xbe
 872 674 973 573 973 449 c 2
 973 153 l 2
 973 29 872 -72 748 -72 c 2
 452 -72 l 2
 328 -72 227 29 227 153 c 2
 227 449 l 2
 227 573 328 674 452 674 c 2
 575 674 l 1
 575 977 l 2
 575 991 586 1002 600 1002 c 0
 614 1002 625 991 625 977 c 2
 625 674 l 1
 748 674 l 2xbe
173 -16 m 0
 178 -21 180 -28 180 -34 c 0
 180 -40 178 -46 173 -51 c 2
 83 -142 l 2
 78 -147 72 -149 65 -149 c 0
 58 -149 51 -146 47 -142 c 2
 -43 -51 l 2
 -48 -46 -50 -40 -50 -34 c 0
 -50 -28 -48 -21 -43 -16 c 0
 -38 -12 -32 -9 -26 -9 c 0
 -19 -9 -12 -12 -8 -16 c 2
 40 -64 l 1
 40 221 l 2
 40 235 51 246 65 246 c 0
 79 246 90 235 90 221 c 2
 90 -64 l 1
 138 -16 l 2
 142 -12 149 -9 156 -9 c 0x7e
 162 -9 168 -12 173 -16 c 0
600 624 m 1
 452 624 l 2
 356 624 277 545 277 449 c 2
 277 153 l 2
 277 57 356 -22 452 -22 c 2
 748 -22 l 2xbe
 844 -22 923 57 923 153 c 2
 923 449 l 2
 923 545 844 624 748 624 c 2
 600 624 l 1
EndSplineSet
Validated: 1
EndChar

StartChar: uniE022
Encoding: 57378 57378 34
Width: 600
GlyphClass: 2
Flags: W
HStem: -72 50<369.607 830.393> -29 20G<-29 -22.5 152.5 159> 624 50<368.873 830.393>
VStem: 40 50<-64 245.802> 227 50<70.607 532.127> 923 50<70.607 531.393>
LayerCount: 2
Fore
SplineSet
748 674 m 2xbc
 872 674 973 573 973 449 c 2
 973 153 l 2
 973 29 872 -72 748 -72 c 2
 452 -72 l 2
 328 -72 227 29 227 153 c 2
 227 449 l 2
 227 504.660156422 247.350114094 555.686128447 280.995897885 595.023471677 c 1
 -174 1079 l 2
 -179 1084 -182 1090 -182 1097 c 0
 -182 1104 -179 1110 -174 1115 c 0
 -169 1120 -162 1122 -156 1122 c 0
 -150 1122 -143 1120 -138 1115 c 2
 318.195755481 629.74719003 l 1
 355.626800619 657.53823758 401.939041222 674 452 674 c 2
 748 674 l 2xbc
748 624 m 2
 452 624 l 2
 356 624 277 545 277 449 c 2
 277 153 l 2
 277 57 356 -22 452 -22 c 2
 748 -22 l 2
 844 -22 923 57 923 153 c 2
 923 449 l 2
 923 545 844 624 748 624 c 2
173 -16 m 0
 178 -21 180 -28 180 -34 c 0
 180 -40 178 -46 173 -51 c 2
 83 -142 l 2
 78 -147 72 -149 65 -149 c 0
 58 -149 51 -146 47 -142 c 2
 -43 -51 l 2
 -48 -46 -50 -40 -50 -34 c 0
 -50 -28 -48 -21 -43 -16 c 0
 -38 -12 -32 -9 -26 -9 c 0
 -19 -9 -12 -12 -8 -16 c 2
 40 -64 l 1
 40 221 l 2
 40 235 51 246 65 246 c 0
 79 246 90 235 90 221 c 2
 90 -64 l 1
 138 -16 l 2
 142 -12 149 -9 156 -9 c 0x7c
 162 -9 168 -12 173 -16 c 0
EndSplineSet
Validated: 1
EndChar

StartChar: uniE023
Encoding: 57379 57379 35
Width: 600
GlyphClass: 2
Flags: W
HStem: -72 50<369.607 830.393> -29 20G<-29 -22.5 152.5 159> 624 50<368.873 575 625 830.393>
VStem: 40 50<-64 245.802> 227 50<70.607 532.127> 575 50<674 1001.8> 923 50<70.607 531.393>
CounterMasks: 1 38
LayerCount: 2
Fore
SplineSet
748 674 m 2xbe
 872 674 973 573 973 449 c 2
 973 153 l 2
 973 29 872 -72 748 -72 c 2
 452 -72 l 2
 328 -72 227 29 227 153 c 2
 227 449 l 2
 227 504.660156422 247.350114094 555.686128447 280.995897885 595.023471677 c 1
 -174 1079 l 2
 -179 1084 -182 1090 -182 1097 c 0
 -182 1104 -179 1110 -174 1115 c 0
 -169 1120 -162 1122 -156 1122 c 0
 -150 1122 -143 1120 -138 1115 c 2
 318.195755481 629.74719003 l 1
 355.626800619 657.53823758 401.939041222 674 452 674 c 2
 575 674 l 1
 575 977 l 2
 575 991 586 1002 600 1002 c 0
 614 1002 625 991 625 977 c 2
 625 674 l 1
 748 674 l 2xbe
173 -16 m 4
 178 -21 180 -28 180 -34 c 4
 180 -40 178 -46 173 -51 c 6
 83 -142 l 6
 78 -147 72 -149 65 -149 c 4
 58 -149 51 -146 47 -142 c 6
 -43 -51 l 6
 -48 -46 -50 -40 -50 -34 c 4
 -50 -28 -48 -21 -43 -16 c 4
 -38 -12 -32 -9 -26 -9 c 4
 -19 -9 -12 -12 -8 -16 c 6
 40 -64 l 5
 40 221 l 6
 40 235 51 246 65 246 c 4
 79 246 90 235 90 221 c 6
 90 -64 l 5
 138 -16 l 6
 142 -12 149 -9 156 -9 c 4x7e
 162 -9 168 -12 173 -16 c 4
600 624 m 1
 452 624 l 2
 356 624 277 545 277 449 c 2
 277 153 l 2
 277 57 356 -22 452 -22 c 2
 748 -22 l 2xbe
 844 -22 923 57 923 153 c 2
 923 449 l 2
 923 545 844 624 748 624 c 2
 600 624 l 1
EndSplineSet
Validated: 1
EndChar

StartChar: uniE024
Encoding: 57380 57380 36
Width: 600
GlyphClass: 2
Flags: W
HStem: -72 50<369.607 830.393> -29 20G<-29 -22.5 152.5 159> 276 50<-58.8024 227> 624 50<369.607 830.393>
VStem: 40 50<-64 245.802> 227 50<70.607 276 326 531.393> 923 50<70.607 531.393>
LayerCount: 2
Fore
SplineSet
173 -16 m 0x7e
 178 -21 180 -28 180 -34 c 0
 180 -40 178 -46 173 -51 c 2
 83 -142 l 2
 78 -147 72 -149 65 -149 c 0
 58 -149 51 -146 47 -142 c 2
 -43 -51 l 2
 -48 -46 -50 -40 -50 -34 c 0
 -50 -28 -48 -21 -43 -16 c 0
 -38 -12 -32 -9 -26 -9 c 0
 -19 -9 -12 -12 -8 -16 c 2
 40 -64 l 1
 40 221 l 2
 40 235 51 246 65 246 c 0
 79 246 90 235 90 221 c 2
 90 -64 l 1
 138 -16 l 2
 142 -12 149 -9 156 -9 c 0
 162 -9 168 -12 173 -16 c 0x7e
748 674 m 2
 872 674 973 573 973 449 c 2
 973 153 l 2
 973 29 872 -72 748 -72 c 2
 452 -72 l 2xbe
 328 -72 227 29 227 153 c 2
 227 276 l 1
 -34 276 l 2
 -48 276 -59 287 -59 301 c 0
 -59 315 -48 326 -34 326 c 2
 227 326 l 1
 227 449 l 2
 227 573 328 674 452 674 c 2
 748 674 l 2
748 624 m 2
 452 624 l 2
 356 624 277 545 277 449 c 2
 277 301 l 1
 277 153 l 2
 277 57 356 -22 452 -22 c 2
 748 -22 l 2
 844 -22 923 57 923 153 c 2
 923 449 l 2
 923 545 844 624 748 624 c 2
EndSplineSet
Validated: 1
EndChar

StartChar: uniE025
Encoding: 57381 57381 37
Width: 600
GlyphClass: 2
Flags: W
HStem: -72 50<369.607 830.393> -29 20G<-29 -22.5 152.5 159> 276 50<-58.8024 227> 624 50<369.607 575 625 830.393>
VStem: 40 50<-64 245.802> 227 50<70.607 276 326 531.393> 575 50<674 1001.8> 923 50<70.607 531.393>
CounterMasks: 1 fc
LayerCount: 2
Fore
SplineSet
748 674 m 2xbf
 872 674 973 573 973 449 c 2
 973 153 l 2
 973 29 872 -72 748 -72 c 2
 452 -72 l 2
 328 -72 227 29 227 153 c 2
 227 276 l 1
 -34 276 l 2
 -48 276 -59 287 -59 301 c 0
 -59 315 -48 326 -34 326 c 2
 227 326 l 1
 227 449 l 2
 227 573 328 674 452 674 c 2
 575 674 l 1
 575 977 l 2
 575 991 586 1002 600 1002 c 0
 614 1002 625 991 625 977 c 2
 625 674 l 1
 748 674 l 2xbf
173 -16 m 0
 178 -21 180 -28 180 -34 c 0
 180 -40 178 -46 173 -51 c 2
 83 -142 l 2
 78 -147 72 -149 65 -149 c 0
 58 -149 51 -146 47 -142 c 2
 -43 -51 l 2
 -48 -46 -50 -40 -50 -34 c 0
 -50 -28 -48 -21 -43 -16 c 0
 -38 -12 -32 -9 -26 -9 c 0
 -19 -9 -12 -12 -8 -16 c 2
 40 -64 l 1
 40 221 l 2
 40 235 51 246 65 246 c 0
 79 246 90 235 90 221 c 2
 90 -64 l 1
 138 -16 l 2
 142 -12 149 -9 156 -9 c 0x7f
 162 -9 168 -12 173 -16 c 0
277 301 m 1
 277 153 l 2
 277 57 356 -22 452 -22 c 2
 748 -22 l 2xbf
 844 -22 923 57 923 153 c 2
 923 449 l 2
 923 545 844 624 748 624 c 2
 600 624 l 1
 452 624 l 2
 356 624 277 545 277 449 c 2
 277 301 l 1
EndSplineSet
Validated: 1
EndChar

StartChar: uniE026
Encoding: 57382 57382 38
Width: 600
GlyphClass: 2
Flags: W
HStem: -72 50<369.607 830.393> -29 20G<-29 -22.5 152.5 159> 276 50<-58.8024 227> 624 50<368.873 830.393>
VStem: 40 50<-64 245.802> 227 50<70.607 276 326 532.127> 923 50<70.607 531.393>
CounterMasks: 1 e0
LayerCount: 2
Fore
SplineSet
748 674 m 2xbe
 872 674 973 573 973 449 c 2
 973 153 l 2
 973 29 872 -72 748 -72 c 2
 452 -72 l 2
 328 -72 227 29 227 153 c 2
 227 276 l 1
 -34 276 l 2
 -48 276 -59 287 -59 301 c 0
 -59 315 -48 326 -34 326 c 2
 227 326 l 1
 227 449 l 2
 227 504.660156422 247.350114094 555.686128447 280.995897885 595.023471677 c 1
 -174 1079 l 2
 -179 1084 -182 1090 -182 1097 c 0
 -182 1104 -179 1110 -174 1115 c 0
 -169 1120 -162 1122 -156 1122 c 0
 -150 1122 -143 1120 -138 1115 c 2
 318.195755481 629.74719003 l 1
 355.626800619 657.53823758 401.939041222 674 452 674 c 2
 748 674 l 2xbe
748 624 m 2
 452 624 l 2
 356 624 277 545 277 449 c 2
 277 301 l 1
 277 153 l 2
 277 57 356 -22 452 -22 c 2
 748 -22 l 2
 844 -22 923 57 923 153 c 2
 923 449 l 2
 923 545 844 624 748 624 c 2
173 -16 m 0
 178 -21 180 -28 180 -34 c 0
 180 -40 178 -46 173 -51 c 2
 83 -142 l 2
 78 -147 72 -149 65 -149 c 0
 58 -149 51 -146 47 -142 c 2
 -43 -51 l 2
 -48 -46 -50 -40 -50 -34 c 0
 -50 -28 -48 -21 -43 -16 c 0
 -38 -12 -32 -9 -26 -9 c 0
 -19 -9 -12 -12 -8 -16 c 2
 40 -64 l 1
 40 221 l 2
 40 235 51 246 65 246 c 0
 79 246 90 235 90 221 c 2
 90 -64 l 1
 138 -16 l 2
 142 -12 149 -9 156 -9 c 0x7e
 162 -9 168 -12 173 -16 c 0
EndSplineSet
Validated: 1
EndChar

StartChar: uniE027
Encoding: 57383 57383 39
Width: 600
GlyphClass: 2
Flags: W
HStem: -72 50<369.607 830.393> -29 20G<-29 -22.5 152.5 159> 276 50<-58.8024 227> 624 50<368.873 575 625 830.393>
VStem: 40 50<-64 245.802> 227 50<70.607 276 326 532.127> 575 50<674 1001.8> 923 50<70.607 531.393>
CounterMasks: 1 fc
LayerCount: 2
Fore
SplineSet
748 674 m 2xbf
 872 674 973 573 973 449 c 2
 973 153 l 2
 973 29 872 -72 748 -72 c 2
 452 -72 l 2
 328 -72 227 29 227 153 c 2
 227 276 l 1
 -34 276 l 2
 -48 276 -59 287 -59 301 c 0
 -59 315 -48 326 -34 326 c 2
 227 326 l 1
 227 449 l 2
 227 504.660156422 247.350114094 555.686128447 280.995897885 595.023471677 c 1
 -174 1079 l 2
 -179 1084 -182 1090 -182 1097 c 0
 -182 1104 -179 1110 -174 1115 c 0
 -169 1120 -162 1122 -156 1122 c 0
 -150 1122 -143 1120 -138 1115 c 2
 318.195755481 629.74719003 l 1
 355.626800619 657.53823758 401.939041222 674 452 674 c 2
 575 674 l 1
 575 977 l 2
 575 991 586 1002 600 1002 c 0
 614 1002 625 991 625 977 c 2
 625 674 l 1
 748 674 l 2xbf
173 -16 m 0
 178 -21 180 -28 180 -34 c 0
 180 -40 178 -46 173 -51 c 2
 83 -142 l 2
 78 -147 72 -149 65 -149 c 0
 58 -149 51 -146 47 -142 c 2
 -43 -51 l 2
 -48 -46 -50 -40 -50 -34 c 0
 -50 -28 -48 -21 -43 -16 c 0
 -38 -12 -32 -9 -26 -9 c 0
 -19 -9 -12 -12 -8 -16 c 2
 40 -64 l 1
 40 221 l 2
 40 235 51 246 65 246 c 0
 79 246 90 235 90 221 c 2
 90 -64 l 1
 138 -16 l 2
 142 -12 149 -9 156 -9 c 0x7f
 162 -9 168 -12 173 -16 c 0
277 301 m 1
 277 153 l 2
 277 57 356 -22 452 -22 c 2
 748 -22 l 2xbf
 844 -22 923 57 923 153 c 2
 923 449 l 2
 923 545 844 624 748 624 c 2
 600 624 l 1
 452 624 l 2
 356 624 277 545 277 449 c 2
 277 301 l 1
EndSplineSet
Validated: 1
EndChar

StartChar: uniE028
Encoding: 57384 57384 40
Width: 600
GlyphClass: 2
Flags: W
HStem: -72 50<368.873 830.393> -29 20G<-29 -22.5 152.5 159> 624 50<369.607 830.393>
VStem: 40 50<-64 245.802> 227 50<69.8726 531.393> 923 50<70.607 531.393>
LayerCount: 2
Fore
SplineSet
748 674 m 2xbc
 872 674 973 573 973 449 c 2
 973 153 l 2
 973 29 872 -72 748 -72 c 2
 452 -72 l 2
 401.939041222 -72 355.626800619 -55.5382375801 318.195755481 -27.7471900299 c 1
 -138 -513 l 2
 -143 -518 -150 -520 -156 -520 c 0
 -162 -520 -169 -518 -174 -513 c 0
 -179 -508 -182 -502 -182 -495 c 0
 -182 -488 -179 -482 -174 -477 c 2
 280.995897885 6.97652832318 l 1
 247.350114094 46.3138715533 227 97.3398435778 227 153 c 2
 227 449 l 2
 227 573 328 674 452 674 c 2
 748 674 l 2xbc
748 624 m 2
 452 624 l 2
 356 624 277 545 277 449 c 2
 277 153 l 2
 277 57 356 -22 452 -22 c 2
 748 -22 l 2
 844 -22 923 57 923 153 c 2
 923 449 l 2
 923 545 844 624 748 624 c 2
173 -16 m 0
 178 -21 180 -28 180 -34 c 0
 180 -40 178 -46 173 -51 c 2
 83 -142 l 2
 78 -147 72 -149 65 -149 c 0
 58 -149 51 -146 47 -142 c 2
 -43 -51 l 2
 -48 -46 -50 -40 -50 -34 c 0
 -50 -28 -48 -21 -43 -16 c 0
 -38 -12 -32 -9 -26 -9 c 0
 -19 -9 -12 -12 -8 -16 c 2
 40 -64 l 1
 40 221 l 2
 40 235 51 246 65 246 c 0
 79 246 90 235 90 221 c 2
 90 -64 l 1
 138 -16 l 2
 142 -12 149 -9 156 -9 c 0x7c
 162 -9 168 -12 173 -16 c 0
EndSplineSet
Validated: 1
EndChar

StartChar: uniE029
Encoding: 57385 57385 41
Width: 600
GlyphClass: 2
Flags: W
HStem: -72 50<368.873 830.393> -29 20G<-29 -22.5 152.5 159> 624 50<369.607 575 625 830.393>
VStem: 40 50<-64 245.802> 227 50<69.8726 531.393> 575 50<674 1001.8> 923 50<70.607 531.393>
CounterMasks: 1 38
LayerCount: 2
Fore
SplineSet
748 674 m 2xbe
 872 674 973 573 973 449 c 2
 973 153 l 2
 973 29 872 -72 748 -72 c 2
 452 -72 l 2
 401.939041222 -72 355.626800619 -55.5382375801 318.195755481 -27.7471900299 c 1
 -138 -513 l 2
 -143 -518 -150 -520 -156 -520 c 0
 -162 -520 -169 -518 -174 -513 c 0
 -179 -508 -182 -502 -182 -495 c 0
 -182 -488 -179 -482 -174 -477 c 2
 280.995897885 6.97652832318 l 1
 247.350114094 46.3138715533 227 97.3398435778 227 153 c 2
 227 449 l 2
 227 573 328 674 452 674 c 2
 575 674 l 1
 575 977 l 2
 575 991 586 1002 600 1002 c 0
 614 1002 625 991 625 977 c 2
 625 674 l 1
 748 674 l 2xbe
173 -16 m 0
 178 -21 180 -28 180 -34 c 0
 180 -40 178 -46 173 -51 c 2
 83 -142 l 2
 78 -147 72 -149 65 -149 c 0
 58 -149 51 -146 47 -142 c 2
 -43 -51 l 2
 -48 -46 -50 -40 -50 -34 c 0
 -50 -28 -48 -21 -43 -16 c 0
 -38 -12 -32 -9 -26 -9 c 0
 -19 -9 -12 -12 -8 -16 c 2
 40 -64 l 1
 40 221 l 2
 40 235 51 246 65 246 c 0
 79 246 90 235 90 221 c 2
 90 -64 l 1
 138 -16 l 2
 142 -12 149 -9 156 -9 c 0x7e
 162 -9 168 -12 173 -16 c 0
600 624 m 1
 452 624 l 2
 356 624 277 545 277 449 c 2
 277 153 l 2
 277 57 356 -22 452 -22 c 2
 748 -22 l 2xbe
 844 -22 923 57 923 153 c 2
 923 449 l 2
 923 545 844 624 748 624 c 2
 600 624 l 1
EndSplineSet
Validated: 1
EndChar

StartChar: uniE02A
Encoding: 57386 57386 42
Width: 600
GlyphClass: 2
Flags: W
HStem: -72 50<368.873 830.393> -29 20G<-29 -22.5 152.5 159> 624 50<368.873 830.393>
VStem: 40 50<-64 245.802> 227 50<69.8726 532.127> 923 50<70.607 531.393>
LayerCount: 2
Fore
SplineSet
748 674 m 2xbc
 872 674 973 573 973 449 c 2
 973 153 l 2
 973 29 872 -72 748 -72 c 2
 452 -72 l 2
 401.939041222 -72 355.626800619 -55.5382375801 318.195755481 -27.7471900299 c 1
 -138 -513 l 2
 -143 -518 -150 -520 -156 -520 c 0
 -162 -520 -169 -518 -174 -513 c 0
 -179 -508 -182 -502 -182 -495 c 0
 -182 -488 -179 -482 -174 -477 c 2
 280.995897885 6.97652832318 l 1
 247.350114094 46.3138715533 227 97.3398435778 227 153 c 2
 227 449 l 2
 227 504.660156422 247.350114094 555.686128447 280.995897885 595.023471677 c 1
 -174 1079 l 2
 -179 1084 -182 1090 -182 1097 c 0
 -182 1104 -179 1110 -174 1115 c 0
 -169 1120 -162 1122 -156 1122 c 0
 -150 1122 -143 1120 -138 1115 c 2
 318.195755481 629.74719003 l 1
 355.626800619 657.53823758 401.939041222 674 452 674 c 2
 748 674 l 2xbc
748 624 m 2
 452 624 l 2
 356 624 277 545 277 449 c 2
 277 153 l 2
 277 57 356 -22 452 -22 c 2
 748 -22 l 2
 844 -22 923 57 923 153 c 2
 923 449 l 2
 923 545 844 624 748 624 c 2
173 -16 m 0
 178 -21 180 -28 180 -34 c 0
 180 -40 178 -46 173 -51 c 2
 83 -142 l 2
 78 -147 72 -149 65 -149 c 0
 58 -149 51 -146 47 -142 c 2
 -43 -51 l 2
 -48 -46 -50 -40 -50 -34 c 0
 -50 -28 -48 -21 -43 -16 c 0
 -38 -12 -32 -9 -26 -9 c 0
 -19 -9 -12 -12 -8 -16 c 2
 40 -64 l 1
 40 221 l 2
 40 235 51 246 65 246 c 0
 79 246 90 235 90 221 c 2
 90 -64 l 1
 138 -16 l 2
 142 -12 149 -9 156 -9 c 0x7c
 162 -9 168 -12 173 -16 c 0
EndSplineSet
Validated: 1
EndChar

StartChar: uniE02B
Encoding: 57387 57387 43
Width: 600
GlyphClass: 2
Flags: W
HStem: -72 50<368.873 830.393> -29 20G<-29 -22.5 152.5 159> 624 50<368.873 575 625 830.393>
VStem: 40 50<-64 245.802> 227 50<69.8726 532.127> 575 50<674 1001.8> 923 50<70.607 531.393>
CounterMasks: 1 38
LayerCount: 2
Fore
SplineSet
748 674 m 2xbe
 872 674 973 573 973 449 c 2
 973 153 l 2
 973 29 872 -72 748 -72 c 2
 452 -72 l 2
 401.939041222 -72 355.626800619 -55.5382375801 318.195755481 -27.7471900299 c 1
 -138 -513 l 2
 -143 -518 -150 -520 -156 -520 c 0
 -162 -520 -169 -518 -174 -513 c 0
 -179 -508 -182 -502 -182 -495 c 0
 -182 -488 -179 -482 -174 -477 c 2
 280.995897885 6.97652832318 l 1
 247.350114094 46.3138715533 227 97.3398435778 227 153 c 2
 227 449 l 2
 227 504.660156422 247.350114094 555.686128447 280.995897885 595.023471677 c 1
 -174 1079 l 2
 -179 1084 -182 1090 -182 1097 c 0
 -182 1104 -179 1110 -174 1115 c 0
 -169 1120 -162 1122 -156 1122 c 0
 -150 1122 -143 1120 -138 1115 c 2
 318.195755481 629.74719003 l 1
 355.626800619 657.53823758 401.939041222 674 452 674 c 2
 575 674 l 1
 575 977 l 2
 575 991 586 1002 600 1002 c 0
 614 1002 625 991 625 977 c 2
 625 674 l 1
 748 674 l 2xbe
173 -16 m 0
 178 -21 180 -28 180 -34 c 0
 180 -40 178 -46 173 -51 c 2
 83 -142 l 2
 78 -147 72 -149 65 -149 c 0
 58 -149 51 -146 47 -142 c 2
 -43 -51 l 2
 -48 -46 -50 -40 -50 -34 c 0
 -50 -28 -48 -21 -43 -16 c 0
 -38 -12 -32 -9 -26 -9 c 0
 -19 -9 -12 -12 -8 -16 c 2
 40 -64 l 1
 40 221 l 2
 40 235 51 246 65 246 c 0
 79 246 90 235 90 221 c 2
 90 -64 l 1
 138 -16 l 2
 142 -12 149 -9 156 -9 c 0x7e
 162 -9 168 -12 173 -16 c 0
600 624 m 1
 452 624 l 2
 356 624 277 545 277 449 c 2
 277 153 l 2
 277 57 356 -22 452 -22 c 2
 748 -22 l 2xbe
 844 -22 923 57 923 153 c 2
 923 449 l 2
 923 545 844 624 748 624 c 2
 600 624 l 1
EndSplineSet
Validated: 1
EndChar

StartChar: uniE02C
Encoding: 57388 57388 44
Width: 600
GlyphClass: 2
Flags: W
HStem: -72 50<368.873 830.393> -29 20G<-29 -22.5 152.5 159> 276 50<-58.8024 227> 624 50<369.607 830.393>
VStem: 40 50<-64 245.802> 227 50<69.8726 276 326 531.393> 923 50<70.607 531.393>
CounterMasks: 1 e0
LayerCount: 2
Fore
SplineSet
748 674 m 2xbe
 872 674 973 573 973 449 c 2
 973 153 l 2
 973 29 872 -72 748 -72 c 2
 452 -72 l 2
 401.939041222 -72 355.626800619 -55.5382375801 318.195755481 -27.7471900299 c 1
 -138 -513 l 2
 -143 -518 -150 -520 -156 -520 c 0
 -162 -520 -169 -518 -174 -513 c 0
 -179 -508 -182 -502 -182 -495 c 0
 -182 -488 -179 -482 -174 -477 c 2
 280.995897885 6.97652832318 l 1
 247.350114094 46.3138715533 227 97.3398435778 227 153 c 2
 227 276 l 1
 -34 276 l 2
 -48 276 -59 287 -59 301 c 0
 -59 315 -48 326 -34 326 c 2
 227 326 l 1
 227 449 l 2
 227 573 328 674 452 674 c 2
 748 674 l 2xbe
748 624 m 2
 452 624 l 2
 356 624 277 545 277 449 c 2
 277 301 l 1
 277 153 l 2
 277 57 356 -22 452 -22 c 2
 748 -22 l 2
 844 -22 923 57 923 153 c 2
 923 449 l 2
 923 545 844 624 748 624 c 2
173 -16 m 0
 178 -21 180 -28 180 -34 c 0
 180 -40 178 -46 173 -51 c 2
 83 -142 l 2
 78 -147 72 -149 65 -149 c 0
 58 -149 51 -146 47 -142 c 2
 -43 -51 l 2
 -48 -46 -50 -40 -50 -34 c 0
 -50 -28 -48 -21 -43 -16 c 0
 -38 -12 -32 -9 -26 -9 c 0
 -19 -9 -12 -12 -8 -16 c 2
 40 -64 l 1
 40 221 l 2
 40 235 51 246 65 246 c 0
 79 246 90 235 90 221 c 2
 90 -64 l 1
 138 -16 l 2
 142 -12 149 -9 156 -9 c 0x7e
 162 -9 168 -12 173 -16 c 0
EndSplineSet
Validated: 1
EndChar

StartChar: uniE02D
Encoding: 57389 57389 45
Width: 600
GlyphClass: 2
Flags: W
HStem: -72 50<368.873 830.393> -29 20G<-29 -22.5 152.5 159> 276 50<-58.8024 227> 624 50<369.607 575 625 830.393>
VStem: 40 50<-64 245.802> 227 50<69.8726 276 326 531.393> 575 50<674 1001.8> 923 50<70.607 531.393>
CounterMasks: 1 fc
LayerCount: 2
Fore
SplineSet
748 674 m 2xbf
 872 674 973 573 973 449 c 2
 973 153 l 2
 973 29 872 -72 748 -72 c 2
 452 -72 l 2
 401.939041222 -72 355.626800619 -55.5382375801 318.195755481 -27.7471900299 c 1
 -138 -513 l 2
 -143 -518 -150 -520 -156 -520 c 0
 -162 -520 -169 -518 -174 -513 c 0
 -179 -508 -182 -502 -182 -495 c 0
 -182 -488 -179 -482 -174 -477 c 2
 280.995897885 6.97652832318 l 1
 247.350114094 46.3138715533 227 97.3398435778 227 153 c 2
 227 276 l 1
 -34 276 l 2
 -48 276 -59 287 -59 301 c 0
 -59 315 -48 326 -34 326 c 2
 227 326 l 1
 227 449 l 2
 227 573 328 674 452 674 c 2
 575 674 l 1
 575 977 l 2
 575 991 586 1002 600 1002 c 0
 614 1002 625 991 625 977 c 2
 625 674 l 1
 748 674 l 2xbf
173 -16 m 0
 178 -21 180 -28 180 -34 c 0
 180 -40 178 -46 173 -51 c 2
 83 -142 l 2
 78 -147 72 -149 65 -149 c 0
 58 -149 51 -146 47 -142 c 2
 -43 -51 l 2
 -48 -46 -50 -40 -50 -34 c 0
 -50 -28 -48 -21 -43 -16 c 0
 -38 -12 -32 -9 -26 -9 c 0
 -19 -9 -12 -12 -8 -16 c 2
 40 -64 l 1
 40 221 l 2
 40 235 51 246 65 246 c 0
 79 246 90 235 90 221 c 2
 90 -64 l 1
 138 -16 l 2
 142 -12 149 -9 156 -9 c 0x7f
 162 -9 168 -12 173 -16 c 0
277 301 m 1
 277 153 l 2
 277 57 356 -22 452 -22 c 2
 748 -22 l 2xbf
 844 -22 923 57 923 153 c 2
 923 449 l 2
 923 545 844 624 748 624 c 2
 600 624 l 1
 452 624 l 2
 356 624 277 545 277 449 c 2
 277 301 l 1
EndSplineSet
Validated: 1
EndChar

StartChar: uniE02E
Encoding: 57390 57390 46
Width: 600
GlyphClass: 2
Flags: W
HStem: -72 50<368.873 830.393> -29 20G<-29 -22.5 152.5 159> 276 50<-58.8024 227> 624 50<368.873 830.393>
VStem: 40 50<-64 245.802> 227 50<69.8726 276 326 532.127> 923 50<70.607 531.393>
CounterMasks: 1 e0
LayerCount: 2
Fore
SplineSet
748 674 m 2xbe
 872 674 973 573 973 449 c 2
 973 153 l 2
 973 29 872 -72 748 -72 c 2
 452 -72 l 2
 401.939041222 -72 355.626800619 -55.5382375801 318.195755481 -27.7471900299 c 1
 -138 -513 l 2
 -143 -518 -150 -520 -156 -520 c 0
 -162 -520 -169 -518 -174 -513 c 0
 -179 -508 -182 -502 -182 -495 c 0
 -182 -488 -179 -482 -174 -477 c 2
 280.995897885 6.97652832318 l 1
 247.350114094 46.3138715533 227 97.3398435778 227 153 c 2
 227 276 l 1
 -34 276 l 2
 -48 276 -59 287 -59 301 c 0
 -59 315 -48 326 -34 326 c 2
 227 326 l 1
 227 449 l 2
 227 504.660156422 247.350114094 555.686128447 280.995897885 595.023471677 c 1
 -174 1079 l 2
 -179 1084 -182 1090 -182 1097 c 0
 -182 1104 -179 1110 -174 1115 c 0
 -169 1120 -162 1122 -156 1122 c 0
 -150 1122 -143 1120 -138 1115 c 2
 318.195755481 629.74719003 l 1
 355.626800619 657.53823758 401.939041222 674 452 674 c 2
 748 674 l 2xbe
748 624 m 2
 452 624 l 2
 356 624 277 545 277 449 c 2
 277 301 l 1
 277 153 l 2
 277 57 356 -22 452 -22 c 2
 748 -22 l 2
 844 -22 923 57 923 153 c 2
 923 449 l 2
 923 545 844 624 748 624 c 2
173 -16 m 0
 178 -21 180 -28 180 -34 c 0
 180 -40 178 -46 173 -51 c 2
 83 -142 l 2
 78 -147 72 -149 65 -149 c 0
 58 -149 51 -146 47 -142 c 2
 -43 -51 l 2
 -48 -46 -50 -40 -50 -34 c 0
 -50 -28 -48 -21 -43 -16 c 0
 -38 -12 -32 -9 -26 -9 c 0
 -19 -9 -12 -12 -8 -16 c 2
 40 -64 l 1
 40 221 l 2
 40 235 51 246 65 246 c 0
 79 246 90 235 90 221 c 2
 90 -64 l 1
 138 -16 l 2
 142 -12 149 -9 156 -9 c 0x7e
 162 -9 168 -12 173 -16 c 0
EndSplineSet
Validated: 1
EndChar

StartChar: uniE02F
Encoding: 57391 57391 47
Width: 600
GlyphClass: 2
Flags: W
HStem: -72 50<368.873 830.393> -29 20G<-29 -22.5 152.5 159> 276 50<-58.8024 227> 624 50<368.873 575 625 830.393>
VStem: 40 50<-64 245.802> 227 50<69.8726 276 326 532.127> 575 50<674 1001.8> 923 50<70.607 531.393>
CounterMasks: 1 fc
LayerCount: 2
Fore
SplineSet
748 674 m 2xbf
 872 674 973 573 973 449 c 2
 973 153 l 2
 973 29 872 -72 748 -72 c 2
 452 -72 l 2
 401.939041222 -72 355.626800619 -55.5382375801 318.195755481 -27.7471900299 c 1
 -138 -513 l 2
 -143 -518 -150 -520 -156 -520 c 0
 -162 -520 -169 -518 -174 -513 c 0
 -179 -508 -182 -502 -182 -495 c 0
 -182 -488 -179 -482 -174 -477 c 2
 280.995897885 6.97652832318 l 1
 247.350114094 46.3138715533 227 97.3398435778 227 153 c 2
 227 276 l 1
 -34 276 l 2
 -48 276 -59 287 -59 301 c 0
 -59 315 -48 326 -34 326 c 2
 227 326 l 1
 227 449 l 2
 227 504.660156422 247.350114094 555.686128447 280.995897885 595.023471677 c 1
 -174 1079 l 2
 -179 1084 -182 1090 -182 1097 c 0
 -182 1104 -179 1110 -174 1115 c 0
 -169 1120 -162 1122 -156 1122 c 0
 -150 1122 -143 1120 -138 1115 c 2
 318.195755481 629.74719003 l 1
 355.626800619 657.53823758 401.939041222 674 452 674 c 2
 575 674 l 1
 575 977 l 2
 575 991 586 1002 600 1002 c 0
 614 1002 625 991 625 977 c 2
 625 674 l 1
 748 674 l 2xbf
173 -16 m 0
 178 -21 180 -28 180 -34 c 0
 180 -40 178 -46 173 -51 c 2
 83 -142 l 2
 78 -147 72 -149 65 -149 c 0
 58 -149 51 -146 47 -142 c 2
 -43 -51 l 2
 -48 -46 -50 -40 -50 -34 c 0
 -50 -28 -48 -21 -43 -16 c 0
 -38 -12 -32 -9 -26 -9 c 0
 -19 -9 -12 -12 -8 -16 c 2
 40 -64 l 1
 40 221 l 2
 40 235 51 246 65 246 c 0
 79 246 90 235 90 221 c 2
 90 -64 l 1
 138 -16 l 2
 142 -12 149 -9 156 -9 c 0x7f
 162 -9 168 -12 173 -16 c 0
277 301 m 1
 277 153 l 2
 277 57 356 -22 452 -22 c 2
 748 -22 l 2xbf
 844 -22 923 57 923 153 c 2
 923 449 l 2
 923 545 844 624 748 624 c 2
 600 624 l 1
 452 624 l 2
 356 624 277 545 277 449 c 2
 277 301 l 1
EndSplineSet
Validated: 1
EndChar

StartChar: uniE030
Encoding: 57392 57392 48
Width: 600
GlyphClass: 2
Flags: W
HStem: -72 50<369.607 575 625 830.393> -29 20G<-29 -22.5 152.5 159> 624 50<369.607 830.393>
VStem: 40 50<-64 245.802> 227 50<70.607 531.393> 575 50<-399.802 -72> 923 50<70.607 531.393>
CounterMasks: 1 38
LayerCount: 2
Fore
SplineSet
748 674 m 2xbe
 872 674 973 573 973 449 c 2
 973 153 l 2
 973 29 872 -72 748 -72 c 2
 625 -72 l 1
 625 -375 l 2
 625 -389 614 -400 600 -400 c 0
 586 -400 575 -389 575 -375 c 2
 575 -72 l 1
 452 -72 l 2
 328 -72 227 29 227 153 c 2
 227 449 l 2
 227 573 328 674 452 674 c 2
 748 674 l 2xbe
748 624 m 2
 452 624 l 2
 356 624 277 545 277 449 c 2
 277 153 l 2
 277 57 356 -22 452 -22 c 2
 600 -22 l 1
 748 -22 l 2
 844 -22 923 57 923 153 c 2
 923 449 l 2
 923 545 844 624 748 624 c 2
173 -16 m 0
 178 -21 180 -28 180 -34 c 0
 180 -40 178 -46 173 -51 c 2
 83 -142 l 2
 78 -147 72 -149 65 -149 c 0
 58 -149 51 -146 47 -142 c 2
 -43 -51 l 2
 -48 -46 -50 -40 -50 -34 c 0
 -50 -28 -48 -21 -43 -16 c 0
 -38 -12 -32 -9 -26 -9 c 0
 -19 -9 -12 -12 -8 -16 c 2
 40 -64 l 1
 40 221 l 2
 40 235 51 246 65 246 c 0
 79 246 90 235 90 221 c 2
 90 -64 l 1
 138 -16 l 2
 142 -12 149 -9 156 -9 c 0x7e
 162 -9 168 -12 173 -16 c 0
EndSplineSet
Validated: 1
EndChar

StartChar: uniE031
Encoding: 57393 57393 49
Width: 600
GlyphClass: 2
Flags: W
HStem: -72 50<369.607 575 625 830.393> -29 20G<-29 -22.5 152.5 159> 624 50<369.607 575 625 830.393>
VStem: 40 50<-64 245.802> 227 50<70.607 531.393> 575 50<-399.802 -72 674 1001.8> 923 50<70.607 531.393>
CounterMasks: 1 38
LayerCount: 2
Fore
SplineSet
748 674 m 2xbe
 872 674 973 573 973 449 c 2
 973 153 l 2
 973 29 872 -72 748 -72 c 2
 625 -72 l 1
 625 -375 l 2
 625 -389 614 -400 600 -400 c 0
 586 -400 575 -389 575 -375 c 2
 575 -72 l 1
 452 -72 l 2
 328 -72 227 29 227 153 c 2
 227 449 l 2
 227 573 328 674 452 674 c 2
 575 674 l 1
 575 977 l 2
 575 991 586 1002 600 1002 c 0
 614 1002 625 991 625 977 c 2
 625 674 l 1
 748 674 l 2xbe
173 -16 m 0
 178 -21 180 -28 180 -34 c 0
 180 -40 178 -46 173 -51 c 2
 83 -142 l 2
 78 -147 72 -149 65 -149 c 0
 58 -149 51 -146 47 -142 c 2
 -43 -51 l 2
 -48 -46 -50 -40 -50 -34 c 0
 -50 -28 -48 -21 -43 -16 c 0
 -38 -12 -32 -9 -26 -9 c 0
 -19 -9 -12 -12 -8 -16 c 2
 40 -64 l 1
 40 221 l 2
 40 235 51 246 65 246 c 0
 79 246 90 235 90 221 c 2
 90 -64 l 1
 138 -16 l 2
 142 -12 149 -9 156 -9 c 0x7e
 162 -9 168 -12 173 -16 c 0
600 624 m 1
 452 624 l 2
 356 624 277 545 277 449 c 2
 277 153 l 2
 277 57 356 -22 452 -22 c 2
 600 -22 l 1
 748 -22 l 2xbe
 844 -22 923 57 923 153 c 2
 923 449 l 2
 923 545 844 624 748 624 c 2
 600 624 l 1
EndSplineSet
Validated: 1
EndChar

StartChar: uniE032
Encoding: 57394 57394 50
Width: 600
GlyphClass: 2
Flags: W
HStem: -72 50<369.607 575 625 830.393> -29 20G<-29 -22.5 152.5 159> 624 50<368.873 830.393>
VStem: 40 50<-64 245.802> 227 50<70.607 532.127> 575 50<-399.802 -72> 923 50<70.607 531.393>
CounterMasks: 1 38
LayerCount: 2
Fore
SplineSet
748 674 m 2xbe
 872 674 973 573 973 449 c 2
 973 153 l 2
 973 29 872 -72 748 -72 c 2
 625 -72 l 1
 625 -375 l 2
 625 -389 614 -400 600 -400 c 0
 586 -400 575 -389 575 -375 c 2
 575 -72 l 1
 452 -72 l 2
 328 -72 227 29 227 153 c 2
 227 449 l 2
 227 504.660156422 247.350114094 555.686128447 280.995897885 595.023471677 c 1
 -174 1079 l 2
 -179 1084 -182 1090 -182 1097 c 0
 -182 1104 -179 1110 -174 1115 c 0
 -169 1120 -162 1122 -156 1122 c 0
 -150 1122 -143 1120 -138 1115 c 2
 318.195755481 629.74719003 l 1
 355.626800619 657.53823758 401.939041222 674 452 674 c 2
 748 674 l 2xbe
748 624 m 2
 452 624 l 2
 356 624 277 545 277 449 c 2
 277 153 l 2
 277 57 356 -22 452 -22 c 2
 600 -22 l 1
 748 -22 l 2
 844 -22 923 57 923 153 c 2
 923 449 l 2
 923 545 844 624 748 624 c 2
173 -16 m 0
 178 -21 180 -28 180 -34 c 0
 180 -40 178 -46 173 -51 c 2
 83 -142 l 2
 78 -147 72 -149 65 -149 c 0
 58 -149 51 -146 47 -142 c 2
 -43 -51 l 2
 -48 -46 -50 -40 -50 -34 c 0
 -50 -28 -48 -21 -43 -16 c 0
 -38 -12 -32 -9 -26 -9 c 0
 -19 -9 -12 -12 -8 -16 c 2
 40 -64 l 1
 40 221 l 2
 40 235 51 246 65 246 c 0
 79 246 90 235 90 221 c 2
 90 -64 l 1
 138 -16 l 2
 142 -12 149 -9 156 -9 c 0x7e
 162 -9 168 -12 173 -16 c 0
EndSplineSet
Validated: 1
EndChar

StartChar: uniE033
Encoding: 57395 57395 51
Width: 600
GlyphClass: 2
Flags: W
HStem: -72 50<369.607 575 625 830.393> -29 20G<-29 -22.5 152.5 159> 624 50<368.873 575 625 830.393>
VStem: 40 50<-64 245.802> 227 50<70.607 532.127> 575 50<-399.802 -72 674 1001.8> 923 50<70.607 531.393>
CounterMasks: 1 38
LayerCount: 2
Fore
SplineSet
748 674 m 2xbe
 872 674 973 573 973 449 c 2
 973 153 l 2
 973 29 872 -72 748 -72 c 2
 625 -72 l 1
 625 -375 l 2
 625 -389 614 -400 600 -400 c 0
 586 -400 575 -389 575 -375 c 2
 575 -72 l 1
 452 -72 l 2
 328 -72 227 29 227 153 c 2
 227 449 l 2
 227 504.660156422 247.350114094 555.686128447 280.995897885 595.023471677 c 1
 -174 1079 l 2
 -179 1084 -182 1090 -182 1097 c 0
 -182 1104 -179 1110 -174 1115 c 0
 -169 1120 -162 1122 -156 1122 c 0
 -150 1122 -143 1120 -138 1115 c 2
 318.195755481 629.74719003 l 1
 355.626800619 657.53823758 401.939041222 674 452 674 c 2
 575 674 l 1
 575 977 l 2
 575 991 586 1002 600 1002 c 0
 614 1002 625 991 625 977 c 2
 625 674 l 1
 748 674 l 2xbe
173 -16 m 0
 178 -21 180 -28 180 -34 c 0
 180 -40 178 -46 173 -51 c 2
 83 -142 l 2
 78 -147 72 -149 65 -149 c 0
 58 -149 51 -146 47 -142 c 2
 -43 -51 l 2
 -48 -46 -50 -40 -50 -34 c 0
 -50 -28 -48 -21 -43 -16 c 0
 -38 -12 -32 -9 -26 -9 c 0
 -19 -9 -12 -12 -8 -16 c 2
 40 -64 l 1
 40 221 l 2
 40 235 51 246 65 246 c 0
 79 246 90 235 90 221 c 2
 90 -64 l 1
 138 -16 l 2
 142 -12 149 -9 156 -9 c 0x7e
 162 -9 168 -12 173 -16 c 0
600 624 m 1
 452 624 l 2
 356 624 277 545 277 449 c 2
 277 153 l 2
 277 57 356 -22 452 -22 c 2
 600 -22 l 1
 748 -22 l 2xbe
 844 -22 923 57 923 153 c 2
 923 449 l 2
 923 545 844 624 748 624 c 2
 600 624 l 1
EndSplineSet
Validated: 1
EndChar

StartChar: uniE034
Encoding: 57396 57396 52
Width: 600
GlyphClass: 2
Flags: W
HStem: -72 50<369.607 575 625 830.393> -29 20G<-29 -22.5 152.5 159> 276 50<-58.8024 227> 624 50<369.607 830.393>
VStem: 40 50<-64 245.802> 227 50<70.607 276 326 531.393> 575 50<-399.802 -72> 923 50<70.607 531.393>
CounterMasks: 1 fc
LayerCount: 2
Fore
SplineSet
748 674 m 2xbf
 872 674 973 573 973 449 c 2
 973 153 l 2
 973 29 872 -72 748 -72 c 2
 625 -72 l 1
 625 -375 l 2
 625 -389 614 -400 600 -400 c 0
 586 -400 575 -389 575 -375 c 2
 575 -72 l 1
 452 -72 l 2
 328 -72 227 29 227 153 c 2
 227 276 l 1
 -34 276 l 2
 -48 276 -59 287 -59 301 c 0
 -59 315 -48 326 -34 326 c 2
 227 326 l 1
 227 449 l 2
 227 573 328 674 452 674 c 2
 748 674 l 2xbf
748 624 m 2
 452 624 l 2
 356 624 277 545 277 449 c 2
 277 301 l 1
 277 153 l 2
 277 57 356 -22 452 -22 c 2
 600 -22 l 1
 748 -22 l 2
 844 -22 923 57 923 153 c 2
 923 449 l 2
 923 545 844 624 748 624 c 2
173 -16 m 0
 178 -21 180 -28 180 -34 c 0
 180 -40 178 -46 173 -51 c 2
 83 -142 l 2
 78 -147 72 -149 65 -149 c 0
 58 -149 51 -146 47 -142 c 2
 -43 -51 l 2
 -48 -46 -50 -40 -50 -34 c 0
 -50 -28 -48 -21 -43 -16 c 0
 -38 -12 -32 -9 -26 -9 c 0
 -19 -9 -12 -12 -8 -16 c 2
 40 -64 l 1
 40 221 l 2
 40 235 51 246 65 246 c 0
 79 246 90 235 90 221 c 2
 90 -64 l 1
 138 -16 l 2
 142 -12 149 -9 156 -9 c 0x7f
 162 -9 168 -12 173 -16 c 0
EndSplineSet
Validated: 1
EndChar

StartChar: uniE035
Encoding: 57397 57397 53
Width: 600
GlyphClass: 2
Flags: W
HStem: -72 50<369.607 575 625 830.393> -29 20G<-29 -22.5 152.5 159> 276 50<-58.8024 227> 624 50<369.607 575 625 830.393>
VStem: 40 50<-64 245.802> 227 50<70.607 276 326 531.393> 575 50<-399.802 -72 674 1001.8> 923 50<70.607 531.393>
CounterMasks: 1 fc
LayerCount: 2
Fore
SplineSet
748 674 m 2xbf
 872 674 973 573 973 449 c 2
 973 153 l 2
 973 29 872 -72 748 -72 c 2
 625 -72 l 1
 625 -375 l 2
 625 -389 614 -400 600 -400 c 0
 586 -400 575 -389 575 -375 c 2
 575 -72 l 1
 452 -72 l 2
 328 -72 227 29 227 153 c 2
 227 276 l 1
 -34 276 l 2
 -48 276 -59 287 -59 301 c 0
 -59 315 -48 326 -34 326 c 2
 227 326 l 1
 227 449 l 2
 227 573 328 674 452 674 c 2
 575 674 l 1
 575 977 l 2
 575 991 586 1002 600 1002 c 0
 614 1002 625 991 625 977 c 2
 625 674 l 1
 748 674 l 2xbf
173 -16 m 0
 178 -21 180 -28 180 -34 c 0
 180 -40 178 -46 173 -51 c 2
 83 -142 l 2
 78 -147 72 -149 65 -149 c 0
 58 -149 51 -146 47 -142 c 2
 -43 -51 l 2
 -48 -46 -50 -40 -50 -34 c 0
 -50 -28 -48 -21 -43 -16 c 0
 -38 -12 -32 -9 -26 -9 c 0
 -19 -9 -12 -12 -8 -16 c 2
 40 -64 l 1
 40 221 l 2
 40 235 51 246 65 246 c 0
 79 246 90 235 90 221 c 2
 90 -64 l 1
 138 -16 l 2
 142 -12 149 -9 156 -9 c 0x7f
 162 -9 168 -12 173 -16 c 0
277 301 m 1
 277 153 l 2
 277 57 356 -22 452 -22 c 2
 600 -22 l 1
 748 -22 l 2xbf
 844 -22 923 57 923 153 c 2
 923 449 l 2
 923 545 844 624 748 624 c 2
 600 624 l 1
 452 624 l 2
 356 624 277 545 277 449 c 2
 277 301 l 1
EndSplineSet
Validated: 1
EndChar

StartChar: uniE036
Encoding: 57398 57398 54
Width: 600
GlyphClass: 2
Flags: W
HStem: -72 50<369.607 575 625 830.393> -29 20G<-29 -22.5 152.5 159> 276 50<-58.8024 227> 624 50<368.873 830.393>
VStem: 40 50<-64 245.802> 227 50<70.607 276 326 532.127> 575 50<-399.802 -72> 923 50<70.607 531.393>
CounterMasks: 1 fc
LayerCount: 2
Fore
SplineSet
748 674 m 2xbf
 872 674 973 573 973 449 c 2
 973 153 l 2
 973 29 872 -72 748 -72 c 2
 625 -72 l 1
 625 -375 l 2
 625 -389 614 -400 600 -400 c 0
 586 -400 575 -389 575 -375 c 2
 575 -72 l 1
 452 -72 l 2
 328 -72 227 29 227 153 c 2
 227 276 l 1
 -34 276 l 2
 -48 276 -59 287 -59 301 c 0
 -59 315 -48 326 -34 326 c 2
 227 326 l 1
 227 449 l 2
 227 504.660156422 247.350114094 555.686128447 280.995897885 595.023471677 c 1
 -174 1079 l 2
 -179 1084 -182 1090 -182 1097 c 0
 -182 1104 -179 1110 -174 1115 c 0
 -169 1120 -162 1122 -156 1122 c 0
 -150 1122 -143 1120 -138 1115 c 2
 318.195755481 629.74719003 l 1
 355.626800619 657.53823758 401.939041222 674 452 674 c 2
 748 674 l 2xbf
748 624 m 2
 452 624 l 2
 356 624 277 545 277 449 c 2
 277 301 l 1
 277 153 l 2
 277 57 356 -22 452 -22 c 2
 600 -22 l 1
 748 -22 l 2
 844 -22 923 57 923 153 c 2
 923 449 l 2
 923 545 844 624 748 624 c 2
173 -16 m 0
 178 -21 180 -28 180 -34 c 0
 180 -40 178 -46 173 -51 c 2
 83 -142 l 2
 78 -147 72 -149 65 -149 c 0
 58 -149 51 -146 47 -142 c 2
 -43 -51 l 2
 -48 -46 -50 -40 -50 -34 c 0
 -50 -28 -48 -21 -43 -16 c 0
 -38 -12 -32 -9 -26 -9 c 0
 -19 -9 -12 -12 -8 -16 c 2
 40 -64 l 1
 40 221 l 2
 40 235 51 246 65 246 c 0
 79 246 90 235 90 221 c 2
 90 -64 l 1
 138 -16 l 2
 142 -12 149 -9 156 -9 c 0x7f
 162 -9 168 -12 173 -16 c 0
EndSplineSet
Validated: 1
EndChar

StartChar: uniE037
Encoding: 57399 57399 55
Width: 600
GlyphClass: 2
Flags: W
HStem: -72 50<369.607 575 625 830.393> -29 20G<-29 -22.5 152.5 159> 276 50<-58.8024 227> 624 50<368.873 575 625 830.393>
VStem: 40 50<-64 245.802> 227 50<70.607 276 326 532.127> 575 50<-399.802 -72 674 1001.8> 923 50<70.607 531.393>
CounterMasks: 1 fc
LayerCount: 2
Fore
SplineSet
748 674 m 2xbf
 872 674 973 573 973 449 c 2
 973 153 l 2
 973 29 872 -72 748 -72 c 2
 625 -72 l 1
 625 -375 l 2
 625 -389 614 -400 600 -400 c 0
 586 -400 575 -389 575 -375 c 2
 575 -72 l 1
 452 -72 l 2
 328 -72 227 29 227 153 c 2
 227 276 l 1
 -34 276 l 2
 -48 276 -59 287 -59 301 c 0
 -59 315 -48 326 -34 326 c 2
 227 326 l 1
 227 449 l 2
 227 504.660156422 247.350114094 555.686128447 280.995897885 595.023471677 c 1
 -174 1079 l 2
 -179 1084 -182 1090 -182 1097 c 0
 -182 1104 -179 1110 -174 1115 c 0
 -169 1120 -162 1122 -156 1122 c 0
 -150 1122 -143 1120 -138 1115 c 2
 318.195755481 629.74719003 l 1
 355.626800619 657.53823758 401.939041222 674 452 674 c 2
 575 674 l 1
 575 977 l 2
 575 991 586 1002 600 1002 c 0
 614 1002 625 991 625 977 c 2
 625 674 l 1
 748 674 l 2xbf
173 -16 m 0
 178 -21 180 -28 180 -34 c 0
 180 -40 178 -46 173 -51 c 2
 83 -142 l 2
 78 -147 72 -149 65 -149 c 0
 58 -149 51 -146 47 -142 c 2
 -43 -51 l 2
 -48 -46 -50 -40 -50 -34 c 0
 -50 -28 -48 -21 -43 -16 c 0
 -38 -12 -32 -9 -26 -9 c 0
 -19 -9 -12 -12 -8 -16 c 2
 40 -64 l 1
 40 221 l 2
 40 235 51 246 65 246 c 0
 79 246 90 235 90 221 c 2
 90 -64 l 1
 138 -16 l 2
 142 -12 149 -9 156 -9 c 0x7f
 162 -9 168 -12 173 -16 c 0
277 301 m 1
 277 153 l 2
 277 57 356 -22 452 -22 c 2
 600 -22 l 1
 748 -22 l 2xbf
 844 -22 923 57 923 153 c 2
 923 449 l 2
 923 545 844 624 748 624 c 2
 600 624 l 1
 452 624 l 2
 356 624 277 545 277 449 c 2
 277 301 l 1
EndSplineSet
Validated: 1
EndChar

StartChar: uniE038
Encoding: 57400 57400 56
Width: 600
GlyphClass: 2
Flags: W
HStem: -72 50<368.873 575 625 830.393> -29 20G<-29 -22.5 152.5 159> 624 50<369.607 830.393>
VStem: 40 50<-64 245.802> 227 50<69.8726 531.393> 575 50<-399.802 -72> 923 50<70.607 531.393>
CounterMasks: 1 38
LayerCount: 2
Fore
SplineSet
748 674 m 2xbe
 872 674 973 573 973 449 c 2
 973 153 l 2
 973 29 872 -72 748 -72 c 2
 625 -72 l 1
 625 -375 l 2
 625 -389 614 -400 600 -400 c 0
 586 -400 575 -389 575 -375 c 2
 575 -72 l 1
 452 -72 l 2
 401.939041222 -72 355.626800619 -55.5382375801 318.195755481 -27.7471900299 c 1
 -138 -513 l 2
 -143 -518 -150 -520 -156 -520 c 0
 -162 -520 -169 -518 -174 -513 c 0
 -179 -508 -182 -502 -182 -495 c 0
 -182 -488 -179 -482 -174 -477 c 2
 280.995897885 6.97652832318 l 1
 247.350114094 46.3138715533 227 97.3398435778 227 153 c 2
 227 449 l 2
 227 573 328 674 452 674 c 2
 748 674 l 2xbe
748 624 m 2
 452 624 l 2
 356 624 277 545 277 449 c 2
 277 153 l 2
 277 57 356 -22 452 -22 c 2
 600 -22 l 1
 748 -22 l 2
 844 -22 923 57 923 153 c 2
 923 449 l 2
 923 545 844 624 748 624 c 2
173 -16 m 0
 178 -21 180 -28 180 -34 c 0
 180 -40 178 -46 173 -51 c 2
 83 -142 l 2
 78 -147 72 -149 65 -149 c 0
 58 -149 51 -146 47 -142 c 2
 -43 -51 l 2
 -48 -46 -50 -40 -50 -34 c 0
 -50 -28 -48 -21 -43 -16 c 0
 -38 -12 -32 -9 -26 -9 c 0
 -19 -9 -12 -12 -8 -16 c 2
 40 -64 l 1
 40 221 l 2
 40 235 51 246 65 246 c 0
 79 246 90 235 90 221 c 2
 90 -64 l 1
 138 -16 l 2
 142 -12 149 -9 156 -9 c 0x7e
 162 -9 168 -12 173 -16 c 0
EndSplineSet
Validated: 1
EndChar

StartChar: uniE039
Encoding: 57401 57401 57
Width: 600
GlyphClass: 2
Flags: W
HStem: -72 50<368.873 575 625 830.393> -29 20G<-29 -22.5 152.5 159> 624 50<369.607 575 625 830.393>
VStem: 40 50<-64 245.802> 227 50<69.8726 531.393> 575 50<-399.802 -72 674 1001.8> 923 50<70.607 531.393>
CounterMasks: 1 38
LayerCount: 2
Fore
SplineSet
748 674 m 2xbe
 872 674 973 573 973 449 c 2
 973 153 l 2
 973 29 872 -72 748 -72 c 2
 625 -72 l 1
 625 -375 l 2
 625 -389 614 -400 600 -400 c 0
 586 -400 575 -389 575 -375 c 2
 575 -72 l 1
 452 -72 l 2
 401.939041222 -72 355.626800619 -55.5382375801 318.195755481 -27.7471900299 c 1
 -138 -513 l 2
 -143 -518 -150 -520 -156 -520 c 0
 -162 -520 -169 -518 -174 -513 c 0
 -179 -508 -182 -502 -182 -495 c 0
 -182 -488 -179 -482 -174 -477 c 2
 280.995897885 6.97652832318 l 1
 247.350114094 46.3138715533 227 97.3398435778 227 153 c 2
 227 449 l 2
 227 573 328 674 452 674 c 2
 575 674 l 1
 575 977 l 2
 575 991 586 1002 600 1002 c 0
 614 1002 625 991 625 977 c 2
 625 674 l 1
 748 674 l 2xbe
173 -16 m 0
 178 -21 180 -28 180 -34 c 0
 180 -40 178 -46 173 -51 c 2
 83 -142 l 2
 78 -147 72 -149 65 -149 c 0
 58 -149 51 -146 47 -142 c 2
 -43 -51 l 2
 -48 -46 -50 -40 -50 -34 c 0
 -50 -28 -48 -21 -43 -16 c 0
 -38 -12 -32 -9 -26 -9 c 0
 -19 -9 -12 -12 -8 -16 c 2
 40 -64 l 1
 40 221 l 2
 40 235 51 246 65 246 c 0
 79 246 90 235 90 221 c 2
 90 -64 l 1
 138 -16 l 2
 142 -12 149 -9 156 -9 c 0x7e
 162 -9 168 -12 173 -16 c 0
600 624 m 1
 452 624 l 2
 356 624 277 545 277 449 c 2
 277 153 l 2
 277 57 356 -22 452 -22 c 2
 600 -22 l 1
 748 -22 l 2xbe
 844 -22 923 57 923 153 c 2
 923 449 l 2
 923 545 844 624 748 624 c 2
 600 624 l 1
EndSplineSet
Validated: 1
EndChar

StartChar: uniE03A
Encoding: 57402 57402 58
Width: 600
GlyphClass: 2
Flags: W
HStem: -72 50<368.873 575 625 830.393> -29 20G<-29 -22.5 152.5 159> 624 50<368.873 830.393>
VStem: 40 50<-64 245.802> 227 50<69.8726 532.127> 575 50<-399.802 -72> 923 50<70.607 531.393>
CounterMasks: 1 38
LayerCount: 2
Fore
SplineSet
748 674 m 2xbe
 872 674 973 573 973 449 c 2
 973 153 l 2
 973 29 872 -72 748 -72 c 2
 625 -72 l 1
 625 -375 l 2
 625 -389 614 -400 600 -400 c 0
 586 -400 575 -389 575 -375 c 2
 575 -72 l 1
 452 -72 l 2
 401.939041222 -72 355.626800619 -55.5382375801 318.195755481 -27.7471900299 c 1
 -138 -513 l 2
 -143 -518 -150 -520 -156 -520 c 0
 -162 -520 -169 -518 -174 -513 c 0
 -179 -508 -182 -502 -182 -495 c 0
 -182 -488 -179 -482 -174 -477 c 2
 280.995897885 6.97652832318 l 1
 247.350114094 46.3138715533 227 97.3398435778 227 153 c 2
 227 449 l 2
 227 504.660156422 247.350114094 555.686128447 280.995897885 595.023471677 c 1
 -174 1079 l 2
 -179 1084 -182 1090 -182 1097 c 0
 -182 1104 -179 1110 -174 1115 c 0
 -169 1120 -162 1122 -156 1122 c 0
 -150 1122 -143 1120 -138 1115 c 2
 318.195755481 629.74719003 l 1
 355.626800619 657.53823758 401.939041222 674 452 674 c 2
 748 674 l 2xbe
748 624 m 2
 452 624 l 2
 356 624 277 545 277 449 c 2
 277 153 l 2
 277 57 356 -22 452 -22 c 2
 600 -22 l 1
 748 -22 l 2
 844 -22 923 57 923 153 c 2
 923 449 l 2
 923 545 844 624 748 624 c 2
173 -16 m 0
 178 -21 180 -28 180 -34 c 0
 180 -40 178 -46 173 -51 c 2
 83 -142 l 2
 78 -147 72 -149 65 -149 c 0
 58 -149 51 -146 47 -142 c 2
 -43 -51 l 2
 -48 -46 -50 -40 -50 -34 c 0
 -50 -28 -48 -21 -43 -16 c 0
 -38 -12 -32 -9 -26 -9 c 0
 -19 -9 -12 -12 -8 -16 c 2
 40 -64 l 1
 40 221 l 2
 40 235 51 246 65 246 c 0
 79 246 90 235 90 221 c 2
 90 -64 l 1
 138 -16 l 2
 142 -12 149 -9 156 -9 c 0x7e
 162 -9 168 -12 173 -16 c 0
EndSplineSet
Validated: 1
EndChar

StartChar: uniE03B
Encoding: 57403 57403 59
Width: 600
GlyphClass: 2
Flags: W
HStem: -72 50<368.873 575 625 830.393> -29 20G<-29 -22.5 152.5 159> 624 50<368.873 575 625 830.393>
VStem: 40 50<-64 245.802> 227 50<69.8726 532.127> 575 50<-399.802 -72 674 1001.8> 923 50<70.607 531.393>
CounterMasks: 1 38
LayerCount: 2
Fore
SplineSet
748 674 m 2xbe
 872 674 973 573 973 449 c 2
 973 153 l 2
 973 29 872 -72 748 -72 c 2
 625 -72 l 1
 625 -375 l 2
 625 -389 614 -400 600 -400 c 0
 586 -400 575 -389 575 -375 c 2
 575 -72 l 1
 452 -72 l 2
 401.939041222 -72 355.626800619 -55.5382375801 318.195755481 -27.7471900299 c 1
 -138 -513 l 2
 -143 -518 -150 -520 -156 -520 c 0
 -162 -520 -169 -518 -174 -513 c 0
 -179 -508 -182 -502 -182 -495 c 0
 -182 -488 -179 -482 -174 -477 c 2
 280.995897885 6.97652832318 l 1
 247.350114094 46.3138715533 227 97.3398435778 227 153 c 2
 227 449 l 2
 227 504.660156422 247.350114094 555.686128447 280.995897885 595.023471677 c 1
 -174 1079 l 2
 -179 1084 -182 1090 -182 1097 c 0
 -182 1104 -179 1110 -174 1115 c 0
 -169 1120 -162 1122 -156 1122 c 0
 -150 1122 -143 1120 -138 1115 c 2
 318.195755481 629.74719003 l 1
 355.626800619 657.53823758 401.939041222 674 452 674 c 2
 575 674 l 1
 575 977 l 2
 575 991 586 1002 600 1002 c 0
 614 1002 625 991 625 977 c 2
 625 674 l 1
 748 674 l 2xbe
173 -16 m 0
 178 -21 180 -28 180 -34 c 0
 180 -40 178 -46 173 -51 c 2
 83 -142 l 2
 78 -147 72 -149 65 -149 c 0
 58 -149 51 -146 47 -142 c 2
 -43 -51 l 2
 -48 -46 -50 -40 -50 -34 c 0
 -50 -28 -48 -21 -43 -16 c 0
 -38 -12 -32 -9 -26 -9 c 0
 -19 -9 -12 -12 -8 -16 c 2
 40 -64 l 1
 40 221 l 2
 40 235 51 246 65 246 c 0
 79 246 90 235 90 221 c 2
 90 -64 l 1
 138 -16 l 2
 142 -12 149 -9 156 -9 c 0x7e
 162 -9 168 -12 173 -16 c 0
600 624 m 1
 452 624 l 2
 356 624 277 545 277 449 c 2
 277 153 l 2
 277 57 356 -22 452 -22 c 2
 600 -22 l 1
 748 -22 l 2xbe
 844 -22 923 57 923 153 c 2
 923 449 l 2
 923 545 844 624 748 624 c 2
 600 624 l 1
EndSplineSet
Validated: 1
EndChar

StartChar: uniE03C
Encoding: 57404 57404 60
Width: 600
GlyphClass: 2
Flags: W
HStem: -72 50<368.873 575 625 830.393> -29 20G<-29 -22.5 152.5 159> 276 50<-58.8024 227> 624 50<369.607 830.393>
VStem: 40 50<-64 245.802> 227 50<69.8726 276 326 531.393> 575 50<-399.802 -72> 923 50<70.607 531.393>
CounterMasks: 1 fc
LayerCount: 2
Fore
SplineSet
748 674 m 2xbf
 872 674 973 573 973 449 c 2
 973 153 l 2
 973 29 872 -72 748 -72 c 2
 625 -72 l 1
 625 -375 l 2
 625 -389 614 -400 600 -400 c 0
 586 -400 575 -389 575 -375 c 2
 575 -72 l 1
 452 -72 l 2
 401.939041222 -72 355.626800619 -55.5382375801 318.195755481 -27.7471900299 c 1
 -138 -513 l 2
 -143 -518 -150 -520 -156 -520 c 0
 -162 -520 -169 -518 -174 -513 c 0
 -179 -508 -182 -502 -182 -495 c 0
 -182 -488 -179 -482 -174 -477 c 2
 280.995897885 6.97652832318 l 1
 247.350114094 46.3138715533 227 97.3398435778 227 153 c 2
 227 276 l 1
 -34 276 l 2
 -48 276 -59 287 -59 301 c 0
 -59 315 -48 326 -34 326 c 2
 227 326 l 1
 227 449 l 2
 227 573 328 674 452 674 c 2
 748 674 l 2xbf
748 624 m 2
 452 624 l 2
 356 624 277 545 277 449 c 2
 277 301 l 1
 277 153 l 2
 277 57 356 -22 452 -22 c 2
 600 -22 l 1
 748 -22 l 2
 844 -22 923 57 923 153 c 2
 923 449 l 2
 923 545 844 624 748 624 c 2
173 -16 m 0
 178 -21 180 -28 180 -34 c 0
 180 -40 178 -46 173 -51 c 2
 83 -142 l 2
 78 -147 72 -149 65 -149 c 0
 58 -149 51 -146 47 -142 c 2
 -43 -51 l 2
 -48 -46 -50 -40 -50 -34 c 0
 -50 -28 -48 -21 -43 -16 c 0
 -38 -12 -32 -9 -26 -9 c 0
 -19 -9 -12 -12 -8 -16 c 2
 40 -64 l 1
 40 221 l 2
 40 235 51 246 65 246 c 0
 79 246 90 235 90 221 c 2
 90 -64 l 1
 138 -16 l 2
 142 -12 149 -9 156 -9 c 0x7f
 162 -9 168 -12 173 -16 c 0
EndSplineSet
Validated: 1
EndChar

StartChar: uniE03D
Encoding: 57405 57405 61
Width: 600
GlyphClass: 2
Flags: W
HStem: -72 50<368.873 575 625 830.393> -29 20G<-29 -22.5 152.5 159> 276 50<-58.8024 227> 624 50<369.607 575 625 830.393>
VStem: 40 50<-64 245.802> 227 50<69.8726 276 326 531.393> 575 50<-399.802 -72 674 1001.8> 923 50<70.607 531.393>
CounterMasks: 1 fc
LayerCount: 2
Fore
SplineSet
748 674 m 2xbf
 872 674 973 573 973 449 c 2
 973 153 l 2
 973 29 872 -72 748 -72 c 2
 625 -72 l 1
 625 -375 l 2
 625 -389 614 -400 600 -400 c 0
 586 -400 575 -389 575 -375 c 2
 575 -72 l 1
 452 -72 l 2
 401.939041222 -72 355.626800619 -55.5382375801 318.195755481 -27.7471900299 c 1
 -138 -513 l 2
 -143 -518 -150 -520 -156 -520 c 0
 -162 -520 -169 -518 -174 -513 c 0
 -179 -508 -182 -502 -182 -495 c 0
 -182 -488 -179 -482 -174 -477 c 2
 280.995897885 6.97652832318 l 1
 247.350114094 46.3138715533 227 97.3398435778 227 153 c 2
 227 276 l 1
 -34 276 l 2
 -48 276 -59 287 -59 301 c 0
 -59 315 -48 326 -34 326 c 2
 227 326 l 1
 227 449 l 2
 227 573 328 674 452 674 c 2
 575 674 l 1
 575 977 l 2
 575 991 586 1002 600 1002 c 0
 614 1002 625 991 625 977 c 2
 625 674 l 1
 748 674 l 2xbf
173 -16 m 0
 178 -21 180 -28 180 -34 c 0
 180 -40 178 -46 173 -51 c 2
 83 -142 l 2
 78 -147 72 -149 65 -149 c 0
 58 -149 51 -146 47 -142 c 2
 -43 -51 l 2
 -48 -46 -50 -40 -50 -34 c 0
 -50 -28 -48 -21 -43 -16 c 0
 -38 -12 -32 -9 -26 -9 c 0
 -19 -9 -12 -12 -8 -16 c 2
 40 -64 l 1
 40 221 l 2
 40 235 51 246 65 246 c 0
 79 246 90 235 90 221 c 2
 90 -64 l 1
 138 -16 l 2
 142 -12 149 -9 156 -9 c 0x7f
 162 -9 168 -12 173 -16 c 0
277 301 m 1
 277 153 l 2
 277 57 356 -22 452 -22 c 2
 600 -22 l 1
 748 -22 l 2xbf
 844 -22 923 57 923 153 c 2
 923 449 l 2
 923 545 844 624 748 624 c 2
 600 624 l 1
 452 624 l 2
 356 624 277 545 277 449 c 2
 277 301 l 1
EndSplineSet
Validated: 1
EndChar

StartChar: uniE03E
Encoding: 57406 57406 62
Width: 600
GlyphClass: 2
Flags: W
HStem: -72 50<368.873 575 625 830.393> -29 20G<-29 -22.5 152.5 159> 276 50<-58.8024 227> 624 50<368.873 830.393>
VStem: 40 50<-64 245.802> 227 50<69.8726 276 326 532.127> 575 50<-399.802 -72> 923 50<70.607 531.393>
CounterMasks: 1 fc
LayerCount: 2
Fore
SplineSet
748 674 m 2xbf
 872 674 973 573 973 449 c 2
 973 153 l 2
 973 29 872 -72 748 -72 c 2
 625 -72 l 1
 625 -375 l 2
 625 -389 614 -400 600 -400 c 0
 586 -400 575 -389 575 -375 c 2
 575 -72 l 1
 452 -72 l 2
 401.939041222 -72 355.626800619 -55.5382375801 318.195755481 -27.7471900299 c 1
 -138 -513 l 2
 -143 -518 -150 -520 -156 -520 c 0
 -162 -520 -169 -518 -174 -513 c 0
 -179 -508 -182 -502 -182 -495 c 0
 -182 -488 -179 -482 -174 -477 c 2
 280.995897885 6.97652832318 l 1
 247.350114094 46.3138715533 227 97.3398435778 227 153 c 2
 227 276 l 1
 -34 276 l 2
 -48 276 -59 287 -59 301 c 0
 -59 315 -48 326 -34 326 c 2
 227 326 l 1
 227 449 l 2
 227 504.660156422 247.350114094 555.686128447 280.995897885 595.023471677 c 1
 -174 1079 l 2
 -179 1084 -182 1090 -182 1097 c 0
 -182 1104 -179 1110 -174 1115 c 0
 -169 1120 -162 1122 -156 1122 c 0
 -150 1122 -143 1120 -138 1115 c 2
 318.195755481 629.74719003 l 1
 355.626800619 657.53823758 401.939041222 674 452 674 c 2
 748 674 l 2xbf
748 624 m 2
 452 624 l 2
 356 624 277 545 277 449 c 2
 277 301 l 1
 277 153 l 2
 277 57 356 -22 452 -22 c 2
 600 -22 l 1
 748 -22 l 2
 844 -22 923 57 923 153 c 2
 923 449 l 2
 923 545 844 624 748 624 c 2
173 -16 m 0
 178 -21 180 -28 180 -34 c 0
 180 -40 178 -46 173 -51 c 2
 83 -142 l 2
 78 -147 72 -149 65 -149 c 0
 58 -149 51 -146 47 -142 c 2
 -43 -51 l 2
 -48 -46 -50 -40 -50 -34 c 0
 -50 -28 -48 -21 -43 -16 c 0
 -38 -12 -32 -9 -26 -9 c 0
 -19 -9 -12 -12 -8 -16 c 2
 40 -64 l 1
 40 221 l 2
 40 235 51 246 65 246 c 0
 79 246 90 235 90 221 c 2
 90 -64 l 1
 138 -16 l 2
 142 -12 149 -9 156 -9 c 0x7f
 162 -9 168 -12 173 -16 c 0
EndSplineSet
Validated: 1
EndChar

StartChar: uniE03F
Encoding: 57407 57407 63
Width: 600
GlyphClass: 2
Flags: W
HStem: -72 50<368.873 575 625 830.393> -29 20G<-29 -22.5 152.5 159> 276 50<-58.8024 227> 624 50<368.873 575 625 830.393>
VStem: 40 50<-64 245.802> 227 50<69.8726 276 326 532.127> 575 50<-399.802 -72 674 1001.8> 923 50<70.607 531.393>
LayerCount: 2
Fore
SplineSet
173 -16 m 0x7f
 178 -21 180 -28 180 -34 c 0
 180 -40 178 -46 173 -51 c 2
 83 -142 l 2
 78 -147 72 -149 65 -149 c 0
 58 -149 51 -146 47 -142 c 2
 -43 -51 l 2
 -48 -46 -50 -40 -50 -34 c 0
 -50 -28 -48 -21 -43 -16 c 0
 -38 -12 -32 -9 -26 -9 c 0
 -19 -9 -12 -12 -8 -16 c 2
 40 -64 l 1
 40 221 l 2
 40 235 51 246 65 246 c 0
 79 246 90 235 90 221 c 2
 90 -64 l 1
 138 -16 l 2
 142 -12 149 -9 156 -9 c 0
 162 -9 168 -12 173 -16 c 0x7f
277 301 m 1
 277 153 l 2
 277 57 356 -22 452 -22 c 2
 600 -22 l 1
 748 -22 l 2xbf
 844 -22 923 57 923 153 c 2
 923 449 l 2
 923 545 844 624 748 624 c 2
 600 624 l 1
 452 624 l 2
 356 624 277 545 277 449 c 2
 277 301 l 1
748 674 m 2
 872 674 973 573 973 449 c 2
 973 153 l 2
 973 29 872 -72 748 -72 c 2
 625 -72 l 1
 625 -375 l 2
 625 -389 614 -400 600 -400 c 0
 586 -400 575 -389 575 -375 c 2
 575 -72 l 1
 452 -72 l 2xbf
 402 -72 356 -57 318 -29 c 1x7f
 -138 -513 l 2
 -143 -518 -150 -520 -156 -520 c 0
 -162 -520 -169 -518 -174 -513 c 0
 -179 -508 -182 -502 -182 -495 c 0
 -182 -488 -179 -482 -174 -477 c 2
 281 7 l 1
 247 46 227 97 227 153 c 2
 227 276 l 1
 -34 276 l 2
 -48 276 -59 287 -59 301 c 0
 -59 315 -48 326 -34 326 c 2
 227 326 l 1
 227 449 l 2
 227 505 247 556 281 595 c 1
 -174 1079 l 2
 -179 1084 -182 1090 -182 1097 c 0
 -182 1104 -179 1110 -174 1115 c 0
 -169 1120 -162 1122 -156 1122 c 0
 -150 1122 -143 1120 -138 1115 c 2
 318 630 l 1
 356 658 402 674 452 674 c 2
 575 674 l 1
 575 977 l 2
 575 991 586 1002 600 1002 c 0
 614 1002 625 991 625 977 c 2
 625 674 l 1
 748 674 l 2
EndSplineSet
Validated: 1
EndChar

StartChar: fi
Encoding: 64257 64257 64
Width: 600
GlyphClass: 2
Flags: W
LayerCount: 2
Fore
SplineSet
118 563 m 2
 118 613 129.499023438 652.333007812 152.499023438 681 c 0
 175.499023438 709.666992188 211.33203125 724 259.999023438 724 c 0
 275.33203125 724 289.83203125 722.5 303.499023438 719.5 c 0
 317.166015625 716.5 329.666015625 712.666992188 340.999023438 708 c 1
 323.999023438 645 l 1
 304.666015625 653 286.333007812 657 269 657 c 0
 223 657 200 625.666992188 200 563 c 2
 200 486 l 1
 303 486 l 1
 303 419 l 1
 200 419 l 1
 200 0 l 1
 118 0 l 1
 118 419 l 1
 52 419 l 1
 52 481 l 1
 118 486 l 1
 118 563 l 2
413.999023438 486 m 1
 495.999023438 486 l 1
 495.999023438 0 l 1
 413.999023438 0 l 1
 413.999023438 486 l 1
454.999023438 714 m 0
 474.33203125 714 490.33203125 708.166992188 502.999023438 696.5 c 0
 515.666015625 684.833007812 521.999023438 669.333007812 521.999023438 650 c 0
 521.999023438 630.666992188 515.666015625 615.166992188 502.999023438 603.5 c 0
 490.33203125 591.833007812 474.33203125 586 454.999023438 586 c 0
 435.666015625 586 419.499023438 591.833007812 406.499023438 603.5 c 0
 393.499023438 615.166992188 386.999023438 630.666992188 386.999023438 650 c 0
 386.999023438 669.333007812 393.499023438 684.833007812 406.499023438 696.5 c 0
 419.499023438 708.166992188 435.666015625 714 454.999023438 714 c 0
EndSplineSet
Validated: 1
EndChar

StartChar: fl
Encoding: 64258 64258 65
Width: 600
GlyphClass: 2
Flags: W
LayerCount: 2
Fore
SplineSet
123 563 m 2
 123 613 134.5 652.333007812 157.5 681 c 0
 180.5 709.666992188 216.333007812 724 265 724 c 0
 280.333007812 724 294.833007812 722.5 308.5 719.5 c 0
 322.166992188 716.5 334.666992188 712.666992188 346 708 c 1
 328 645 l 1
 310 653 291.666992188 657 273 657 c 0
 227.666992188 657 205 625.666992188 205 563 c 2
 205 486 l 1
 308 486 l 1
 308 419 l 1
 205 419 l 1
 205 0 l 1
 123 0 l 1
 123 419 l 1
 57 419 l 1
 57 481 l 1
 123 486 l 1
 123 563 l 2
535 -4 m 1
 529 -6.6669921875 522.33203125 -8.66796875 514.999023438 -10.0009765625 c 0
 507.666015625 -11.333984375 498.666015625 -12.0009765625 487.999023438 -12.0009765625 c 0
 456.666015625 -12.0009765625 434.333007812 -2.66796875 421 15.9990234375 c 0
 407.666992188 34.666015625 401 61.9990234375 401 97.9990234375 c 2
 401 711.999023438 l 1
 483 711.999023438 l 1
 483 91.9990234375 l 2
 483 78.666015625 485.333007812 69.3330078125 490 64 c 0
 494.666992188 58.6669921875 500 56 506 56 c 2
 513.5 56 l 2
 515.833007812 56 519.333007812 56.6669921875 524 58 c 1
 535 -4 l 1
EndSplineSet
Validated: 1
EndChar

StartChar: triagrt
Encoding: 9658 9658 66
Width: 600
Flags: W
HStem: -301 50<-295.31 295.31> 66 468<-98.7773 98.7773> 848 50<-295.31 295.31>
VStem: -600 50<3.69037 593.31> -234 468<205.091 394.909> 550 50<3.69038 593.31>
CounterMasks: 1 1c
LayerCount: 2
Fore
SplineSet
-175 848 m 2
 -382.200361804 848 -550 680.200331566 -550 473 c 2
 -550 328 l 1
 -550 124 l 2
 -550 -83.2003618041 -382.200331566 -251 -175 -251 c 2
 175 -251 l 2
 382.200361804 -251 550 -83.2003315658 550 124 c 2
 550 473 l 2
 550 680.200361804 382.200331566 848 175 848 c 2
 -175 848 l 2
-175 898 m 2
 175 898 l 2
 409.799668434 898 600 707.799638196 600 473 c 2
 600 124 l 2
 600 -110.799668434 409.799638196 -301 175 -301 c 2
 -175 -301 l 2
 -409.799668434 -301 -600 -110.799638196 -600 124 c 2
 -600 328 l 1
 -600 473 l 2
 -600 707.799668434 -409.799638196 898 -175 898 c 2
-234 300 m 0
 -234 426 -135 534 0 534 c 0
 135 534 234 426 234 300 c 0
 234 174 135 66 0 66 c 0
 -135 66 -234 174 -234 300 c 0
EndSplineSet
Validated: 1
EndChar

StartChar: triaglf
Encoding: 9668 9668 67
Width: 600
Flags: W
HStem: -301 50<304.69 895.31> 66 468<501.223 698.777> 848 50<304.69 895.31>
VStem: 0 50<3.69043 593.31> 366 468<205.091 394.909> 1150 50<3.69043 593.31>
CounterMasks: 1 1c
LayerCount: 2
Fore
SplineSet
425 848 m 6
 217.799804688 848 50 680.200195312 50 473 c 6
 50 328 l 5
 50 124 l 6
 50 -83.2001953125 217.799804688 -251 425 -251 c 6
 775 -251 l 6
 982.200195312 -251 1150 -83.2001953125 1150 124 c 6
 1150 473 l 6
 1150 680.200195312 982.200195312 848 775 848 c 6
 425 848 l 6
425 898 m 6
 775 898 l 6
 1009.79980469 898 1200 707.799804688 1200 473 c 6
 1200 124 l 6
 1200 -110.799804688 1009.79980469 -301 775 -301 c 6
 425 -301 l 6
 190.200195312 -301 0 -110.799804688 0 124 c 6
 0 328 l 5
 0 473 l 6
 0 707.799804688 190.200195312 898 425 898 c 6
366 300 m 4
 366 426 465 534 600 534 c 4
 735 534 834 426 834 300 c 4
 834 174 735 66 600 66 c 4
 465 66 366 174 366 300 c 4
EndSplineSet
Validated: 1
EndChar

StartChar: uniE040
Encoding: 57408 57408 68
Width: 600
Flags: W
HStem: -72 50<-230.393 230.393> 624 50<-230.393 230.393>
VStem: -373 50<70.607 531.393> 323 50<70.607 531.393>
LayerCount: 2
Fore
SplineSet
-148 -72 m 2
 -272 -72 -373 29 -373 153 c 2
 -373 449 l 2
 -373 573 -272 674 -148 674 c 2
 148 674 l 2
 272 674 373 573 373 449 c 2
 373 153 l 2
 373 29 272 -72 148 -72 c 2
 -148 -72 l 2
-148 -22 m 2
 148 -22 l 2
 244 -22 323 57 323 153 c 2
 323 449 l 2
 323 545 244 624 148 624 c 2
 -148 624 l 2
 -244 624 -323 545 -323 449 c 2
 -323 153 l 2
 -323 57 -244 -22 -148 -22 c 2
EndSplineSet
Validated: 1
EndChar

StartChar: uniE041
Encoding: 57409 57409 69
Width: 600
Flags: W
HStem: -72 50<-230.393 230.393> 624 50<-230.393 -25 25 230.393>
VStem: -373 50<70.607 531.393> -25 50<674 1001.8> 323 50<70.607 531.393>
LayerCount: 2
Fore
SplineSet
-148 -72 m 2
 -272 -72 -373 29 -373 153 c 2
 -373 449 l 2
 -373 573 -272 674 -148 674 c 2
 -25 674 l 1
 -25 977 l 2
 -25 991 -14 1002 0 1002 c 0
 14 1002 25 991 25 977 c 2
 25 674 l 1
 148 674 l 2
 272 674 373 573 373 449 c 2
 373 153 l 2
 373 29 272 -72 148 -72 c 2
 -148 -72 l 2
-148 -22 m 2
 148 -22 l 2
 244 -22 323 57 323 153 c 2
 323 449 l 2
 323 545 244 624 148 624 c 2
 0 624 l 1
 -148 624 l 2
 -244 624 -323 545 -323 449 c 2
 -323 153 l 2
 -323 57 -244 -22 -148 -22 c 2
EndSplineSet
Validated: 1
EndChar

StartChar: uniE069
Encoding: 57449 57449 70
Width: 600
Flags: W
HStem: -72 50<-230.393 231.127> 624 50<-230.393 -25 25 230.393>
VStem: -373 50<70.607 531.393> -25 50<674 1001.8> 323 50<69.8726 531.393> 510 50<356.198 666>
LayerCount: 2
Fore
SplineSet
427 619 m 4
 422 624 420 630 420 637 c 4
 420 644 422 651 427 656 c 6
 517 744 l 6
 522 749 528 751 535 751 c 4
 542 751 549 748 553 744 c 6
 643 656 l 6
 648 651 650 644 650 637 c 4
 650 630 648 624 643 619 c 4
 638 614 632 612 626 612 c 4
 619 612 612 614 608 619 c 6
 560 666 l 5
 560 381 l 6
 560 367 549 356 535 356 c 4
 521 356 510 367 510 381 c 6
 510 666 l 5
 462 619 l 6
 458 614 451 612 444 612 c 4
 438 612 432 614 427 619 c 4
-148 -72 m 2
 -272 -72 -373 29 -373 153 c 2
 -373 449 l 2
 -373 573 -272 674 -148 674 c 2
 -25 674 l 1
 -25 977 l 2
 -25 991 -14 1002 0 1002 c 0
 14 1002 25 991 25 977 c 2
 25 674 l 1
 148 674 l 2
 272 674 373 573 373 449 c 2
 373 153 l 2
 373 97.3398435778 352.649885906 46.3138715533 319.004102115 6.97652832318 c 1
 774 -477 l 2
 779 -482 782 -488 782 -495 c 0
 782 -502 779 -508 774 -513 c 0
 769 -518 762 -520 756 -520 c 0
 750 -520 743 -518 738 -513 c 2
 281.804244519 -27.7471900299 l 1
 244.373199381 -55.5382375801 198.060958778 -72 148 -72 c 2
 -148 -72 l 2
-148 -22 m 2
 148 -22 l 2
 244 -22 323 57 323 153 c 2
 323 449 l 2
 323 545 244 624 148 624 c 2
 0 624 l 1
 -148 624 l 2
 -244 624 -323 545 -323 449 c 2
 -323 153 l 2
 -323 57 -244 -22 -148 -22 c 2
EndSplineSet
Validated: 1
EndChar

StartChar: uniE06A
Encoding: 57450 57450 71
Width: 600
Flags: W
HStem: -72 50<-230.393 231.127> 624 50<-230.393 231.127>
VStem: -373 50<70.607 531.393> 323 50<69.8726 532.127> 510 50<356.198 666>
LayerCount: 2
Fore
SplineSet
427 619 m 4
 422 624 420 630 420 637 c 4
 420 644 422 651 427 656 c 6
 517 744 l 6
 522 749 528 751 535 751 c 4
 542 751 549 748 553 744 c 6
 643 656 l 6
 648 651 650 644 650 637 c 4
 650 630 648 624 643 619 c 4
 638 614 632 612 626 612 c 4
 619 612 612 614 608 619 c 6
 560 666 l 5
 560 381 l 6
 560 367 549 356 535 356 c 4
 521 356 510 367 510 381 c 6
 510 666 l 5
 462 619 l 6
 458 614 451 612 444 612 c 4
 438 612 432 614 427 619 c 4
-148 -72 m 2
 -272 -72 -373 29 -373 153 c 2
 -373 449 l 2
 -373 573 -272 674 -148 674 c 2
 148 674 l 2
 198.060958778 674 244.373199381 657.53823758 281.804244519 629.74719003 c 1
 738 1115 l 2
 743 1120 750 1122 756 1122 c 0
 762 1122 769 1120 774 1115 c 0
 779 1110 782 1104 782 1097 c 0
 782 1090 779 1084 774 1079 c 2
 319.004102115 595.023471677 l 1
 352.649885906 555.686128447 373 504.660156422 373 449 c 2
 373 153 l 2
 373 97.3398435778 352.649885906 46.3138715533 319.004102115 6.97652832318 c 1
 774 -477 l 2
 779 -482 782 -488 782 -495 c 0
 782 -502 779 -508 774 -513 c 0
 769 -518 762 -520 756 -520 c 0
 750 -520 743 -518 738 -513 c 2
 281.804244519 -27.7471900299 l 1
 244.373199381 -55.5382375801 198.060958778 -72 148 -72 c 2
 -148 -72 l 2
-148 -22 m 2
 148 -22 l 2
 244 -22 323 57 323 153 c 2
 323 449 l 2
 323 545 244 624 148 624 c 2
 -148 624 l 2
 -244 624 -323 545 -323 449 c 2
 -323 153 l 2
 -323 57 -244 -22 -148 -22 c 2
EndSplineSet
Validated: 1
EndChar

StartChar: uniE042
Encoding: 57410 57410 72
Width: 600
Flags: W
HStem: -72 50<-230.393 230.393> 624 50<-230.393 231.127>
VStem: -373 50<70.607 531.393> 323 50<70.607 532.127>
LayerCount: 2
Fore
SplineSet
-148 -72 m 2
 -272 -72 -373 29 -373 153 c 2
 -373 449 l 2
 -373 573 -272 674 -148 674 c 2
 148 674 l 2
 198.060958778 674 244.373199381 657.53823758 281.804244519 629.74719003 c 1
 738 1115 l 2
 743 1120 750 1122 756 1122 c 0
 762 1122 769 1120 774 1115 c 0
 779 1110 782 1104 782 1097 c 0
 782 1090 779 1084 774 1079 c 2
 319.004102115 595.023471677 l 1
 352.649885906 555.686128447 373 504.660156422 373 449 c 2
 373 153 l 2
 373 29 272 -72 148 -72 c 2
 -148 -72 l 2
-148 -22 m 2
 148 -22 l 2
 244 -22 323 57 323 153 c 2
 323 449 l 2
 323 545 244 624 148 624 c 2
 -148 624 l 2
 -244 624 -323 545 -323 449 c 2
 -323 153 l 2
 -323 57 -244 -22 -148 -22 c 2
EndSplineSet
Validated: 1
EndChar

StartChar: uniE043
Encoding: 57411 57411 73
Width: 600
Flags: W
HStem: -72 50<-230.393 230.393> 624 50<-230.393 -25 25 231.127>
VStem: -373 50<70.607 531.393> -25 50<674 1001.8> 323 50<70.607 532.127>
LayerCount: 2
Fore
SplineSet
-148 -72 m 2
 -272 -72 -373 29 -373 153 c 2
 -373 449 l 2
 -373 573 -272 674 -148 674 c 2
 -25 674 l 1
 -25 977 l 2
 -25 991 -14 1002 0 1002 c 0
 14 1002 25 991 25 977 c 2
 25 674 l 1
 148 674 l 2
 198.060958778 674 244.373199381 657.53823758 281.804244519 629.74719003 c 1
 738 1115 l 2
 743 1120 750 1122 756 1122 c 0
 762 1122 769 1120 774 1115 c 0
 779 1110 782 1104 782 1097 c 0
 782 1090 779 1084 774 1079 c 2
 319.004102115 595.023471677 l 1
 352.649885906 555.686128447 373 504.660156422 373 449 c 2
 373 153 l 2
 373 29 272 -72 148 -72 c 2
 -148 -72 l 2
-148 -22 m 2
 148 -22 l 2
 244 -22 323 57 323 153 c 2
 323 449 l 2
 323 545 244 624 148 624 c 2
 0 624 l 1
 -148 624 l 2
 -244 624 -323 545 -323 449 c 2
 -323 153 l 2
 -323 57 -244 -22 -148 -22 c 2
EndSplineSet
Validated: 1
EndChar

StartChar: uniE044
Encoding: 57412 57412 74
Width: 600
Flags: W
HStem: -72 50<-230.393 230.393> 276 50<373 658.802> 624 50<-230.393 230.393>
VStem: -373 50<70.607 531.393> 323 50<70.607 276 326 531.393>
LayerCount: 2
Fore
SplineSet
-148 -72 m 2
 -272 -72 -373 29 -373 153 c 2
 -373 449 l 2
 -373 573 -272 674 -148 674 c 2
 148 674 l 2
 272 674 373 573 373 449 c 2
 373 326 l 1
 634 326 l 2
 648 326 659 315 659 301 c 0
 659 287 648 276 634 276 c 2
 373 276 l 1
 373 153 l 2
 373 29 272 -72 148 -72 c 2
 -148 -72 l 2
-148 -22 m 2
 148 -22 l 2
 244 -22 323 57 323 153 c 2
 323 301 l 1
 323 449 l 2
 323 545 244 624 148 624 c 2
 -148 624 l 2
 -244 624 -323 545 -323 449 c 2
 -323 153 l 2
 -323 57 -244 -22 -148 -22 c 2
EndSplineSet
Validated: 1
EndChar

StartChar: uniE045
Encoding: 57413 57413 75
Width: 600
Flags: W
HStem: -72 50<-230.393 230.393> 276 50<373 658.802> 624 50<-230.393 -25 25 230.393>
VStem: -373 50<70.607 531.393> -25 50<674 1001.8> 323 50<70.607 276 326 531.393>
LayerCount: 2
Fore
SplineSet
-148 -72 m 2
 -272 -72 -373 29 -373 153 c 2
 -373 449 l 2
 -373 573 -272 674 -148 674 c 2
 -25 674 l 1
 -25 977 l 2
 -25 991 -14 1002 0 1002 c 0
 14 1002 25 991 25 977 c 2
 25 674 l 1
 148 674 l 2
 272 674 373 573 373 449 c 2
 373 326 l 1
 634 326 l 2
 648 326 659 315 659 301 c 0
 659 287 648 276 634 276 c 2
 373 276 l 1
 373 153 l 2
 373 29 272 -72 148 -72 c 2
 -148 -72 l 2
-148 -22 m 2
 148 -22 l 2
 244 -22 323 57 323 153 c 2
 323 301 l 1
 323 449 l 2
 323 545 244 624 148 624 c 2
 0 624 l 1
 -148 624 l 2
 -244 624 -323 545 -323 449 c 2
 -323 153 l 2
 -323 57 -244 -22 -148 -22 c 2
EndSplineSet
Validated: 1
EndChar

StartChar: uniE05F
Encoding: 57439 57439 76
Width: 600
Flags: W
HStem: -72 50<-230.393 -25 25 231.127> 276 50<373 658.802> 624 50<-230.393 -25 25 231.127>
VStem: -373 50<70.607 531.393> -25 50<-399.802 -72 674 1001.8> 323 50<69.8726 276 326 532.127>
CounterMasks: 1 e0
LayerCount: 2
Fore
SplineSet
-148 -72 m 2
 -272 -72 -373 29 -373 153 c 2
 -373 449 l 2
 -373 573 -272 674 -148 674 c 2
 -25 674 l 1
 -25 977 l 2
 -25 991 -14 1002 0 1002 c 0
 14 1002 25 991 25 977 c 2
 25 674 l 1
 148 674 l 2
 198.060958778 674 244.373199381 657.53823758 281.804244519 629.74719003 c 1
 738 1115 l 2
 743 1120 750 1122 756 1122 c 0
 762 1122 769 1120 774 1115 c 0
 779 1110 782 1104 782 1097 c 0
 782 1090 779 1084 774 1079 c 2
 319.004102115 595.023471677 l 1
 352.649885906 555.686128447 373 504.660156422 373 449 c 2
 373 326 l 1
 634 326 l 2
 648 326 659 315 659 301 c 0
 659 287 648 276 634 276 c 2
 373 276 l 1
 373 153 l 2
 373 97.3398435778 352.649885906 46.3138715533 319.004102115 6.97652832318 c 1
 774 -477 l 2
 779 -482 782 -488 782 -495 c 0
 782 -502 779 -508 774 -513 c 0
 769 -518 762 -520 756 -520 c 0
 750 -520 743 -518 738 -513 c 2
 281.804244519 -27.7471900299 l 1
 244.373199381 -55.5382375801 198.060958778 -72 148 -72 c 2
 25 -72 l 1
 25 -375 l 2
 25 -389 14 -400 0 -400 c 0
 -14 -400 -25 -389 -25 -375 c 2
 -25 -72 l 1
 -148 -72 l 2
323 301 m 1
 323 449 l 2
 323 545 244 624 148 624 c 2
 0 624 l 1
 -148 624 l 2
 -244 624 -323 545 -323 449 c 2
 -323 153 l 2
 -323 57 -244 -22 -148 -22 c 2
 0 -22 l 1
 148 -22 l 2
 244 -22 323 57 323 153 c 2
 323 301 l 1
EndSplineSet
Validated: 1
EndChar

StartChar: uniE07F
Encoding: 57471 57471 77
Width: 600
Flags: W
HStem: -72 50<-230.393 -25 25 231.127> 276 50<373 658.802> 624 50<-230.393 -25 25 231.127>
VStem: -373 50<70.607 531.393> -25 50<-399.802 -72 674 1001.8> 323 50<69.8726 276 326 532.127> 580 50<386.198 696>
CounterMasks: 1 e0
LayerCount: 2
Fore
SplineSet
0 624 m 1
 -148 624 l 2
 -244 624 -323 545 -323 449 c 2
 -323 153 l 2
 -323 57 -244 -22 -148 -22 c 2
 0 -22 l 1
 148 -22 l 2
 244 -22 323 57 323 153 c 2
 323 301 l 1
 323 449 l 2
 323 545 244 624 148 624 c 2
 0 624 l 1
-148 -72 m 2
 -272 -72 -373 29 -373 153 c 2
 -373 449 l 2
 -373 573 -272 674 -148 674 c 2
 -25 674 l 1
 -25 977 l 2
 -25 991 -14 1002 0 1002 c 0
 14 1002 25 991 25 977 c 2
 25 674 l 1
 148 674 l 2
 198 674 244 658 282 630 c 1
 738 1115 l 2
 743 1120 750 1122 756 1122 c 0
 762 1122 769 1120 774 1115 c 0
 779 1110 782 1104 782 1097 c 0
 782 1090 779 1084 774 1079 c 2
 319 595 l 1
 353 556 373 505 373 449 c 2
 373 326 l 1
 634 326 l 2
 648 326 659 315 659 301 c 0
 659 287 648 276 634 276 c 2
 373 276 l 1
 373 153 l 2
 373 97 353 46 319 7 c 1
 774 -477 l 2
 779 -482 782 -488 782 -495 c 0
 782 -502 779 -508 774 -513 c 0
 769 -518 762 -520 756 -520 c 0
 750 -520 743 -518 738 -513 c 2
 282 -28 l 1
 244 -56 198 -72 148 -72 c 2
 25 -72 l 1
 25 -375 l 2
 25 -389 14 -400 0 -400 c 0
 -14 -400 -25 -389 -25 -375 c 2
 -25 -72 l 1
 -148 -72 l 2
417 569 m 0
 412 574 410 580 410 587 c 0
 410 594 412 601 417 606 c 2
 587 774 l 2
 592 779 598 781 605 781 c 0
 612 781 619 778 623 774 c 2
 793 606 l 6
 798 601 800 594 800 587 c 4
 800 580 798 574 793 569 c 4
 788 564 782 562 776 562 c 4
 769 562 762 564 758 569 c 6
 630 696 l 1
 630 411 l 2
 630 397 619 386 605 386 c 0
 591 386 580 397 580 411 c 2
 580 696 l 1
 452 569 l 2
 448 564 441 562 434 562 c 0
 428 562 422 564 417 569 c 0
EndSplineSet
Validated: 1
EndChar

StartChar: uniE046
Encoding: 57414 57414 78
Width: 600
Flags: W
HStem: -72 50<-230.393 230.393> 276 50<373 658.802> 624 50<-230.393 231.127>
VStem: -373 50<70.607 531.393> 323 50<70.607 276 326 532.127>
LayerCount: 2
Fore
SplineSet
-148 -72 m 2
 -272 -72 -373 29 -373 153 c 2
 -373 449 l 2
 -373 573 -272 674 -148 674 c 2
 148 674 l 2
 198.060958778 674 244.373199381 657.53823758 281.804244519 629.74719003 c 1
 738 1115 l 2
 743 1120 750 1122 756 1122 c 0
 762 1122 769 1120 774 1115 c 0
 779 1110 782 1104 782 1097 c 0
 782 1090 779 1084 774 1079 c 2
 319.004102115 595.023471677 l 1
 352.649885906 555.686128447 373 504.660156422 373 449 c 2
 373 326 l 1
 634 326 l 2
 648 326 659 315 659 301 c 0
 659 287 648 276 634 276 c 2
 373 276 l 1
 373 153 l 2
 373 29 272 -72 148 -72 c 2
 -148 -72 l 2
-148 -22 m 2
 148 -22 l 2
 244 -22 323 57 323 153 c 2
 323 301 l 1
 323 449 l 2
 323 545 244 624 148 624 c 2
 -148 624 l 2
 -244 624 -323 545 -323 449 c 2
 -323 153 l 2
 -323 57 -244 -22 -148 -22 c 2
EndSplineSet
Validated: 1
EndChar

StartChar: uniE047
Encoding: 57415 57415 79
Width: 600
Flags: W
HStem: -72 50<-230.393 230.393> 276 50<373 658.802> 624 50<-230.393 -25 25 231.127>
VStem: -373 50<70.607 531.393> -25 50<674 1001.8> 323 50<70.607 276 326 532.127>
LayerCount: 2
Fore
SplineSet
-148 -72 m 2
 -272 -72 -373 29 -373 153 c 2
 -373 449 l 2
 -373 573 -272 674 -148 674 c 2
 -25 674 l 1
 -25 977 l 2
 -25 991 -14 1002 0 1002 c 0
 14 1002 25 991 25 977 c 2
 25 674 l 1
 148 674 l 2
 198.060958778 674 244.373199381 657.53823758 281.804244519 629.74719003 c 1
 738 1115 l 2
 743 1120 750 1122 756 1122 c 0
 762 1122 769 1120 774 1115 c 0
 779 1110 782 1104 782 1097 c 0
 782 1090 779 1084 774 1079 c 2
 319.004102115 595.023471677 l 1
 352.649885906 555.686128447 373 504.660156422 373 449 c 2
 373 326 l 1
 634 326 l 2
 648 326 659 315 659 301 c 0
 659 287 648 276 634 276 c 2
 373 276 l 1
 373 153 l 2
 373 29 272 -72 148 -72 c 2
 -148 -72 l 2
-148 -22 m 2
 148 -22 l 2
 244 -22 323 57 323 153 c 2
 323 301 l 1
 323 449 l 2
 323 545 244 624 148 624 c 2
 0 624 l 1
 -148 624 l 2
 -244 624 -323 545 -323 449 c 2
 -323 153 l 2
 -323 57 -244 -22 -148 -22 c 2
EndSplineSet
Validated: 1
EndChar

StartChar: uniE048
Encoding: 57416 57416 80
Width: 600
Flags: W
HStem: -72 50<-230.393 231.127> 624 50<-230.393 230.393>
VStem: -373 50<70.607 531.393> 323 50<69.8726 531.393>
LayerCount: 2
Fore
SplineSet
-148 -72 m 2
 -272 -72 -373 29 -373 153 c 2
 -373 449 l 2
 -373 573 -272 674 -148 674 c 2
 148 674 l 2
 272 674 373 573 373 449 c 2
 373 153 l 2
 373 97.3398435778 352.649885906 46.3138715533 319.004102115 6.97652832318 c 1
 774 -477 l 2
 779 -482 782 -488 782 -495 c 0
 782 -502 779 -508 774 -513 c 0
 769 -518 762 -520 756 -520 c 0
 750 -520 743 -518 738 -513 c 2
 281.804244519 -27.7471900299 l 1
 244.373199381 -55.5382375801 198.060958778 -72 148 -72 c 2
 -148 -72 l 2
-148 -22 m 2
 148 -22 l 2
 244 -22 323 57 323 153 c 2
 323 449 l 2
 323 545 244 624 148 624 c 2
 -148 624 l 2
 -244 624 -323 545 -323 449 c 2
 -323 153 l 2
 -323 57 -244 -22 -148 -22 c 2
EndSplineSet
Validated: 1
EndChar

StartChar: uniE049
Encoding: 57417 57417 81
Width: 600
Flags: W
HStem: -72 50<-230.393 231.127> 624 50<-230.393 -25 25 230.393>
VStem: -373 50<70.607 531.393> -25 50<674 1001.8> 323 50<69.8726 531.393>
LayerCount: 2
Fore
SplineSet
-148 -72 m 2
 -272 -72 -373 29 -373 153 c 2
 -373 449 l 2
 -373 573 -272 674 -148 674 c 2
 -25 674 l 1
 -25 977 l 2
 -25 991 -14 1002 0 1002 c 0
 14 1002 25 991 25 977 c 2
 25 674 l 1
 148 674 l 2
 272 674 373 573 373 449 c 2
 373 153 l 2
 373 97.3398435778 352.649885906 46.3138715533 319.004102115 6.97652832318 c 1
 774 -477 l 2
 779 -482 782 -488 782 -495 c 0
 782 -502 779 -508 774 -513 c 0
 769 -518 762 -520 756 -520 c 0
 750 -520 743 -518 738 -513 c 2
 281.804244519 -27.7471900299 l 1
 244.373199381 -55.5382375801 198.060958778 -72 148 -72 c 2
 -148 -72 l 2
-148 -22 m 2
 148 -22 l 2
 244 -22 323 57 323 153 c 2
 323 449 l 2
 323 545 244 624 148 624 c 2
 0 624 l 1
 -148 624 l 2
 -244 624 -323 545 -323 449 c 2
 -323 153 l 2
 -323 57 -244 -22 -148 -22 c 2
EndSplineSet
Validated: 1
EndChar

StartChar: uniE04A
Encoding: 57418 57418 82
Width: 600
Flags: W
HStem: -72 50<-230.393 231.127> 624 50<-230.393 231.127>
VStem: -373 50<70.607 531.393> 323 50<69.8726 532.127>
LayerCount: 2
Fore
SplineSet
-148 -72 m 2
 -272 -72 -373 29 -373 153 c 2
 -373 449 l 2
 -373 573 -272 674 -148 674 c 2
 148 674 l 2
 198.060958778 674 244.373199381 657.53823758 281.804244519 629.74719003 c 1
 738 1115 l 2
 743 1120 750 1122 756 1122 c 0
 762 1122 769 1120 774 1115 c 0
 779 1110 782 1104 782 1097 c 0
 782 1090 779 1084 774 1079 c 2
 319.004102115 595.023471677 l 1
 352.649885906 555.686128447 373 504.660156422 373 449 c 2
 373 153 l 2
 373 97.3398435778 352.649885906 46.3138715533 319.004102115 6.97652832318 c 1
 774 -477 l 2
 779 -482 782 -488 782 -495 c 0
 782 -502 779 -508 774 -513 c 0
 769 -518 762 -520 756 -520 c 0
 750 -520 743 -518 738 -513 c 2
 281.804244519 -27.7471900299 l 1
 244.373199381 -55.5382375801 198.060958778 -72 148 -72 c 2
 -148 -72 l 2
-148 -22 m 2
 148 -22 l 2
 244 -22 323 57 323 153 c 2
 323 449 l 2
 323 545 244 624 148 624 c 2
 -148 624 l 2
 -244 624 -323 545 -323 449 c 2
 -323 153 l 2
 -323 57 -244 -22 -148 -22 c 2
EndSplineSet
Validated: 1
EndChar

StartChar: uniE04B
Encoding: 57419 57419 83
Width: 600
Flags: W
HStem: -72 50<-230.393 231.127> 624 50<-230.393 -25 25 231.127>
VStem: -373 50<70.607 531.393> -25 50<674 1001.8> 323 50<69.8726 532.127>
LayerCount: 2
Fore
SplineSet
-148 -72 m 2
 -272 -72 -373 29 -373 153 c 2
 -373 449 l 2
 -373 573 -272 674 -148 674 c 2
 -25 674 l 1
 -25 977 l 2
 -25 991 -14 1002 0 1002 c 0
 14 1002 25 991 25 977 c 2
 25 674 l 1
 148 674 l 2
 198.060958778 674 244.373199381 657.53823758 281.804244519 629.74719003 c 1
 738 1115 l 2
 743 1120 750 1122 756 1122 c 0
 762 1122 769 1120 774 1115 c 0
 779 1110 782 1104 782 1097 c 0
 782 1090 779 1084 774 1079 c 2
 319.004102115 595.023471677 l 1
 352.649885906 555.686128447 373 504.660156422 373 449 c 2
 373 153 l 2
 373 97.3398435778 352.649885906 46.3138715533 319.004102115 6.97652832318 c 1
 774 -477 l 2
 779 -482 782 -488 782 -495 c 0
 782 -502 779 -508 774 -513 c 0
 769 -518 762 -520 756 -520 c 0
 750 -520 743 -518 738 -513 c 2
 281.804244519 -27.7471900299 l 1
 244.373199381 -55.5382375801 198.060958778 -72 148 -72 c 2
 -148 -72 l 2
-148 -22 m 2
 148 -22 l 2
 244 -22 323 57 323 153 c 2
 323 449 l 2
 323 545 244 624 148 624 c 2
 0 624 l 1
 -148 624 l 2
 -244 624 -323 545 -323 449 c 2
 -323 153 l 2
 -323 57 -244 -22 -148 -22 c 2
EndSplineSet
Validated: 1
EndChar

StartChar: uniE04C
Encoding: 57420 57420 84
Width: 600
Flags: W
HStem: -72 50<-230.393 231.127> 276 50<373 658.802> 624 50<-230.393 230.393>
VStem: -373 50<70.607 531.393> 323 50<69.8726 276 326 531.393>
LayerCount: 2
Fore
SplineSet
-148 -72 m 2
 -272 -72 -373 29 -373 153 c 2
 -373 449 l 2
 -373 573 -272 674 -148 674 c 2
 148 674 l 2
 272 674 373 573 373 449 c 2
 373 326 l 1
 634 326 l 2
 648 326 659 315 659 301 c 0
 659 287 648 276 634 276 c 2
 373 276 l 1
 373 153 l 2
 373 97.3398435778 352.649885906 46.3138715533 319.004102115 6.97652832318 c 1
 774 -477 l 2
 779 -482 782 -488 782 -495 c 0
 782 -502 779 -508 774 -513 c 0
 769 -518 762 -520 756 -520 c 0
 750 -520 743 -518 738 -513 c 2
 281.804244519 -27.7471900299 l 1
 244.373199381 -55.5382375801 198.060958778 -72 148 -72 c 2
 -148 -72 l 2
-148 -22 m 2
 148 -22 l 2
 244 -22 323 57 323 153 c 2
 323 301 l 1
 323 449 l 2
 323 545 244 624 148 624 c 2
 -148 624 l 2
 -244 624 -323 545 -323 449 c 2
 -323 153 l 2
 -323 57 -244 -22 -148 -22 c 2
EndSplineSet
Validated: 1
EndChar

StartChar: uniE04D
Encoding: 57421 57421 85
Width: 600
Flags: W
HStem: -72 50<-230.393 231.127> 276 50<373 658.802> 624 50<-230.393 -25 25 230.393>
VStem: -373 50<70.607 531.393> -25 50<674 1001.8> 323 50<69.8726 276 326 531.393>
LayerCount: 2
Fore
SplineSet
-148 -72 m 2
 -272 -72 -373 29 -373 153 c 2
 -373 449 l 2
 -373 573 -272 674 -148 674 c 2
 -25 674 l 1
 -25 977 l 2
 -25 991 -14 1002 0 1002 c 0
 14 1002 25 991 25 977 c 2
 25 674 l 1
 148 674 l 2
 272 674 373 573 373 449 c 2
 373 326 l 1
 634 326 l 2
 648 326 659 315 659 301 c 0
 659 287 648 276 634 276 c 2
 373 276 l 1
 373 153 l 2
 373 97.3398435778 352.649885906 46.3138715533 319.004102115 6.97652832318 c 1
 774 -477 l 2
 779 -482 782 -488 782 -495 c 0
 782 -502 779 -508 774 -513 c 0
 769 -518 762 -520 756 -520 c 0
 750 -520 743 -518 738 -513 c 2
 281.804244519 -27.7471900299 l 1
 244.373199381 -55.5382375801 198.060958778 -72 148 -72 c 2
 -148 -72 l 2
-148 -22 m 2
 148 -22 l 2
 244 -22 323 57 323 153 c 2
 323 301 l 1
 323 449 l 2
 323 545 244 624 148 624 c 2
 0 624 l 1
 -148 624 l 2
 -244 624 -323 545 -323 449 c 2
 -323 153 l 2
 -323 57 -244 -22 -148 -22 c 2
EndSplineSet
Validated: 1
EndChar

StartChar: uniE04E
Encoding: 57422 57422 86
Width: 600
Flags: W
HStem: -72 50<-230.393 231.127> 276 50<373 658.802> 624 50<-230.393 231.127>
VStem: -373 50<70.607 531.393> 323 50<69.8726 276 326 532.127>
LayerCount: 2
Fore
SplineSet
-148 -72 m 2
 -272 -72 -373 29 -373 153 c 2
 -373 449 l 2
 -373 573 -272 674 -148 674 c 2
 148 674 l 2
 198.060958778 674 244.373199381 657.53823758 281.804244519 629.74719003 c 1
 738 1115 l 2
 743 1120 750 1122 756 1122 c 0
 762 1122 769 1120 774 1115 c 0
 779 1110 782 1104 782 1097 c 0
 782 1090 779 1084 774 1079 c 2
 319.004102115 595.023471677 l 1
 352.649885906 555.686128447 373 504.660156422 373 449 c 2
 373 326 l 1
 634 326 l 2
 648 326 659 315 659 301 c 0
 659 287 648 276 634 276 c 2
 373 276 l 1
 373 153 l 2
 373 97.3398435778 352.649885906 46.3138715533 319.004102115 6.97652832318 c 1
 774 -477 l 2
 779 -482 782 -488 782 -495 c 0
 782 -502 779 -508 774 -513 c 0
 769 -518 762 -520 756 -520 c 0
 750 -520 743 -518 738 -513 c 2
 281.804244519 -27.7471900299 l 1
 244.373199381 -55.5382375801 198.060958778 -72 148 -72 c 2
 -148 -72 l 2
-148 -22 m 2
 148 -22 l 2
 244 -22 323 57 323 153 c 2
 323 301 l 1
 323 449 l 2
 323 545 244 624 148 624 c 2
 -148 624 l 2
 -244 624 -323 545 -323 449 c 2
 -323 153 l 2
 -323 57 -244 -22 -148 -22 c 2
EndSplineSet
Validated: 1
EndChar

StartChar: uniE04F
Encoding: 57423 57423 87
Width: 600
Flags: W
HStem: -72 50<-230.393 231.127> 276 50<373 658.802> 624 50<-230.393 -25 25 231.127>
VStem: -373 50<70.607 531.393> -25 50<674 1001.8> 323 50<69.8726 276 326 532.127>
LayerCount: 2
Fore
SplineSet
-148 -72 m 2
 -272 -72 -373 29 -373 153 c 2
 -373 449 l 2
 -373 573 -272 674 -148 674 c 2
 -25 674 l 1
 -25 977 l 2
 -25 991 -14 1002 0 1002 c 0
 14 1002 25 991 25 977 c 2
 25 674 l 1
 148 674 l 2
 198.060958778 674 244.373199381 657.53823758 281.804244519 629.74719003 c 1
 738 1115 l 2
 743 1120 750 1122 756 1122 c 0
 762 1122 769 1120 774 1115 c 0
 779 1110 782 1104 782 1097 c 0
 782 1090 779 1084 774 1079 c 2
 319.004102115 595.023471677 l 1
 352.649885906 555.686128447 373 504.660156422 373 449 c 2
 373 326 l 1
 634 326 l 2
 648 326 659 315 659 301 c 0
 659 287 648 276 634 276 c 2
 373 276 l 1
 373 153 l 2
 373 97.3398435778 352.649885906 46.3138715533 319.004102115 6.97652832318 c 1
 774 -477 l 2
 779 -482 782 -488 782 -495 c 0
 782 -502 779 -508 774 -513 c 0
 769 -518 762 -520 756 -520 c 0
 750 -520 743 -518 738 -513 c 2
 281.804244519 -27.7471900299 l 1
 244.373199381 -55.5382375801 198.060958778 -72 148 -72 c 2
 -148 -72 l 2
-148 -22 m 2
 148 -22 l 2
 244 -22 323 57 323 153 c 2
 323 301 l 1
 323 449 l 2
 323 545 244 624 148 624 c 2
 0 624 l 1
 -148 624 l 2
 -244 624 -323 545 -323 449 c 2
 -323 153 l 2
 -323 57 -244 -22 -148 -22 c 2
EndSplineSet
Validated: 1
EndChar

StartChar: uniE050
Encoding: 57424 57424 88
Width: 600
Flags: W
HStem: -72 50<-230.393 -25 25 230.393> 624 50<-230.393 230.393>
VStem: -373 50<70.607 531.393> -25 50<-399.802 -72> 323 50<70.607 531.393>
LayerCount: 2
Fore
SplineSet
-148 -72 m 2
 -272 -72 -373 29 -373 153 c 2
 -373 449 l 2
 -373 573 -272 674 -148 674 c 2
 148 674 l 2
 272 674 373 573 373 449 c 2
 373 153 l 2
 373 29 272 -72 148 -72 c 2
 25 -72 l 1
 25 -375 l 2
 25 -389 14 -400 0 -400 c 0
 -14 -400 -25 -389 -25 -375 c 2
 -25 -72 l 1
 -148 -72 l 2
0 -22 m 1
 148 -22 l 2
 244 -22 323 57 323 153 c 2
 323 449 l 2
 323 545 244 624 148 624 c 2
 -148 624 l 2
 -244 624 -323 545 -323 449 c 2
 -323 153 l 2
 -323 57 -244 -22 -148 -22 c 2
 0 -22 l 1
EndSplineSet
Validated: 1
EndChar

StartChar: uniE051
Encoding: 57425 57425 89
Width: 600
Flags: W
HStem: -72 50<-230.393 -25 25 230.393> 624 50<-230.393 -25 25 230.393>
VStem: -373 50<70.607 531.393> -25 50<-399.802 -72 674 1001.8> 323 50<70.607 531.393>
LayerCount: 2
Fore
SplineSet
-148 -72 m 2
 -272 -72 -373 29 -373 153 c 2
 -373 449 l 2
 -373 573 -272 674 -148 674 c 2
 -25 674 l 1
 -25 977 l 2
 -25 991 -14 1002 0 1002 c 0
 14 1002 25 991 25 977 c 2
 25 674 l 1
 148 674 l 2
 272 674 373 573 373 449 c 2
 373 153 l 2
 373 29 272 -72 148 -72 c 2
 25 -72 l 1
 25 -375 l 2
 25 -389 14 -400 0 -400 c 0
 -14 -400 -25 -389 -25 -375 c 2
 -25 -72 l 1
 -148 -72 l 2
0 624 m 1
 -148 624 l 2
 -244 624 -323 545 -323 449 c 2
 -323 153 l 2
 -323 57 -244 -22 -148 -22 c 2
 0 -22 l 1
 148 -22 l 2
 244 -22 323 57 323 153 c 2
 323 449 l 2
 323 545 244 624 148 624 c 2
 0 624 l 1
EndSplineSet
Validated: 1
EndChar

StartChar: uniE052
Encoding: 57426 57426 90
Width: 600
Flags: W
HStem: -72 50<-230.393 -25 25 230.393> 624 50<-230.393 231.127>
VStem: -373 50<70.607 531.393> -25 50<-399.802 -72> 323 50<70.607 532.127>
LayerCount: 2
Fore
SplineSet
-148 -72 m 2
 -272 -72 -373 29 -373 153 c 2
 -373 449 l 2
 -373 573 -272 674 -148 674 c 2
 148 674 l 2
 198.060958778 674 244.373199381 657.53823758 281.804244519 629.74719003 c 1
 738 1115 l 2
 743 1120 750 1122 756 1122 c 0
 762 1122 769 1120 774 1115 c 0
 779 1110 782 1104 782 1097 c 0
 782 1090 779 1084 774 1079 c 2
 319.004102115 595.023471677 l 1
 352.649885906 555.686128447 373 504.660156422 373 449 c 2
 373 153 l 2
 373 29 272 -72 148 -72 c 2
 25 -72 l 1
 25 -375 l 2
 25 -389 14 -400 0 -400 c 0
 -14 -400 -25 -389 -25 -375 c 2
 -25 -72 l 1
 -148 -72 l 2
0 -22 m 1
 148 -22 l 2
 244 -22 323 57 323 153 c 2
 323 449 l 2
 323 545 244 624 148 624 c 2
 -148 624 l 2
 -244 624 -323 545 -323 449 c 2
 -323 153 l 2
 -323 57 -244 -22 -148 -22 c 2
 0 -22 l 1
EndSplineSet
Validated: 1
EndChar

StartChar: uniE053
Encoding: 57427 57427 91
Width: 600
Flags: W
HStem: -72 50<-230.393 -25 25 230.393> 624 50<-230.393 -25 25 231.127>
VStem: -373 50<70.607 531.393> -25 50<-399.802 -72 674 1001.8> 323 50<70.607 532.127>
LayerCount: 2
Fore
SplineSet
-148 -72 m 2
 -272 -72 -373 29 -373 153 c 2
 -373 449 l 2
 -373 573 -272 674 -148 674 c 2
 -25 674 l 1
 -25 977 l 2
 -25 991 -14 1002 0 1002 c 0
 14 1002 25 991 25 977 c 2
 25 674 l 1
 148 674 l 2
 198.060958778 674 244.373199381 657.53823758 281.804244519 629.74719003 c 1
 738 1115 l 2
 743 1120 750 1122 756 1122 c 0
 762 1122 769 1120 774 1115 c 0
 779 1110 782 1104 782 1097 c 0
 782 1090 779 1084 774 1079 c 2
 319.004102115 595.023471677 l 1
 352.649885906 555.686128447 373 504.660156422 373 449 c 2
 373 153 l 2
 373 29 272 -72 148 -72 c 2
 25 -72 l 1
 25 -375 l 2
 25 -389 14 -400 0 -400 c 0
 -14 -400 -25 -389 -25 -375 c 2
 -25 -72 l 1
 -148 -72 l 2
0 624 m 1
 -148 624 l 2
 -244 624 -323 545 -323 449 c 2
 -323 153 l 2
 -323 57 -244 -22 -148 -22 c 2
 0 -22 l 1
 148 -22 l 2
 244 -22 323 57 323 153 c 2
 323 449 l 2
 323 545 244 624 148 624 c 2
 0 624 l 1
EndSplineSet
Validated: 1
EndChar

StartChar: uniE054
Encoding: 57428 57428 92
Width: 600
Flags: W
HStem: -72 50<-230.393 -25 25 230.393> 276 50<373 658.802> 624 50<-230.393 230.393>
VStem: -373 50<70.607 531.393> -25 50<-399.802 -72> 323 50<70.607 276 326 531.393>
LayerCount: 2
Fore
SplineSet
-148 -72 m 2
 -272 -72 -373 29 -373 153 c 2
 -373 449 l 2
 -373 573 -272 674 -148 674 c 2
 148 674 l 2
 272 674 373 573 373 449 c 2
 373 326 l 1
 634 326 l 2
 648 326 659 315 659 301 c 0
 659 287 648 276 634 276 c 2
 373 276 l 1
 373 153 l 2
 373 29 272 -72 148 -72 c 2
 25 -72 l 1
 25 -375 l 2
 25 -389 14 -400 0 -400 c 0
 -14 -400 -25 -389 -25 -375 c 2
 -25 -72 l 1
 -148 -72 l 2
323 301 m 1
 323 449 l 2
 323 545 244 624 148 624 c 2
 -148 624 l 2
 -244 624 -323 545 -323 449 c 2
 -323 153 l 2
 -323 57 -244 -22 -148 -22 c 2
 0 -22 l 1
 148 -22 l 2
 244 -22 323 57 323 153 c 2
 323 301 l 1
EndSplineSet
Validated: 1
EndChar

StartChar: uniE055
Encoding: 57429 57429 93
Width: 600
Flags: W
HStem: -72 50<-230.393 -25 25 230.393> 276 50<373 658.802> 624 50<-230.393 -25 25 230.393>
VStem: -373 50<70.607 531.393> -25 50<-399.802 -72 674 1001.8> 323 50<70.607 276 326 531.393>
LayerCount: 2
Fore
SplineSet
-148 -72 m 2
 -272 -72 -373 29 -373 153 c 2
 -373 449 l 2
 -373 573 -272 674 -148 674 c 2
 -25 674 l 1
 -25 977 l 2
 -25 991 -14 1002 0 1002 c 0
 14 1002 25 991 25 977 c 2
 25 674 l 1
 148 674 l 2
 272 674 373 573 373 449 c 2
 373 326 l 1
 634 326 l 2
 648 326 659 315 659 301 c 0
 659 287 648 276 634 276 c 2
 373 276 l 1
 373 153 l 2
 373 29 272 -72 148 -72 c 2
 25 -72 l 1
 25 -375 l 2
 25 -389 14 -400 0 -400 c 0
 -14 -400 -25 -389 -25 -375 c 2
 -25 -72 l 1
 -148 -72 l 2
323 301 m 1
 323 449 l 2
 323 545 244 624 148 624 c 2
 0 624 l 1
 -148 624 l 2
 -244 624 -323 545 -323 449 c 2
 -323 153 l 2
 -323 57 -244 -22 -148 -22 c 2
 0 -22 l 1
 148 -22 l 2
 244 -22 323 57 323 153 c 2
 323 301 l 1
EndSplineSet
Validated: 1
EndChar

StartChar: uniE056
Encoding: 57430 57430 94
Width: 600
Flags: W
HStem: -72 50<-230.393 -25 25 230.393> 276 50<373 658.802> 624 50<-230.393 231.127>
VStem: -373 50<70.607 531.393> -25 50<-399.802 -72> 323 50<70.607 276 326 532.127>
LayerCount: 2
Fore
SplineSet
-148 -72 m 2
 -272 -72 -373 29 -373 153 c 2
 -373 449 l 2
 -373 573 -272 674 -148 674 c 2
 148 674 l 2
 198.060958778 674 244.373199381 657.53823758 281.804244519 629.74719003 c 1
 738 1115 l 2
 743 1120 750 1122 756 1122 c 0
 762 1122 769 1120 774 1115 c 0
 779 1110 782 1104 782 1097 c 0
 782 1090 779 1084 774 1079 c 2
 319.004102115 595.023471677 l 1
 352.649885906 555.686128447 373 504.660156422 373 449 c 2
 373 326 l 1
 634 326 l 2
 648 326 659 315 659 301 c 0
 659 287 648 276 634 276 c 2
 373 276 l 1
 373 153 l 2
 373 29 272 -72 148 -72 c 2
 25 -72 l 1
 25 -375 l 2
 25 -389 14 -400 0 -400 c 0
 -14 -400 -25 -389 -25 -375 c 2
 -25 -72 l 1
 -148 -72 l 2
323 301 m 1
 323 449 l 2
 323 545 244 624 148 624 c 2
 -148 624 l 2
 -244 624 -323 545 -323 449 c 2
 -323 153 l 2
 -323 57 -244 -22 -148 -22 c 2
 0 -22 l 1
 148 -22 l 2
 244 -22 323 57 323 153 c 2
 323 301 l 1
EndSplineSet
Validated: 1
EndChar

StartChar: uniE057
Encoding: 57431 57431 95
Width: 600
Flags: W
HStem: -72 50<-230.393 -25 25 230.393> 276 50<373 658.802> 624 50<-230.393 -25 25 231.127>
VStem: -373 50<70.607 531.393> -25 50<-399.802 -72 674 1001.8> 323 50<70.607 276 326 532.127>
LayerCount: 2
Fore
SplineSet
-148 -72 m 2
 -272 -72 -373 29 -373 153 c 2
 -373 449 l 2
 -373 573 -272 674 -148 674 c 2
 -25 674 l 1
 -25 977 l 2
 -25 991 -14 1002 0 1002 c 0
 14 1002 25 991 25 977 c 2
 25 674 l 1
 148 674 l 2
 198.060958778 674 244.373199381 657.53823758 281.804244519 629.74719003 c 1
 738 1115 l 2
 743 1120 750 1122 756 1122 c 0
 762 1122 769 1120 774 1115 c 0
 779 1110 782 1104 782 1097 c 0
 782 1090 779 1084 774 1079 c 2
 319.004102115 595.023471677 l 1
 352.649885906 555.686128447 373 504.660156422 373 449 c 2
 373 326 l 1
 634 326 l 2
 648 326 659 315 659 301 c 0
 659 287 648 276 634 276 c 2
 373 276 l 1
 373 153 l 2
 373 29 272 -72 148 -72 c 2
 25 -72 l 1
 25 -375 l 2
 25 -389 14 -400 0 -400 c 0
 -14 -400 -25 -389 -25 -375 c 2
 -25 -72 l 1
 -148 -72 l 2
323 301 m 1
 323 449 l 2
 323 545 244 624 148 624 c 2
 0 624 l 1
 -148 624 l 2
 -244 624 -323 545 -323 449 c 2
 -323 153 l 2
 -323 57 -244 -22 -148 -22 c 2
 0 -22 l 1
 148 -22 l 2
 244 -22 323 57 323 153 c 2
 323 301 l 1
EndSplineSet
Validated: 1
EndChar

StartChar: uniE058
Encoding: 57432 57432 96
Width: 600
Flags: W
HStem: -72 50<-230.393 -25 25 231.127> 624 50<-230.393 230.393>
VStem: -373 50<70.607 531.393> -25 50<-399.802 -72> 323 50<69.8726 531.393>
LayerCount: 2
Fore
SplineSet
-148 -72 m 2
 -272 -72 -373 29 -373 153 c 2
 -373 449 l 2
 -373 573 -272 674 -148 674 c 2
 148 674 l 2
 272 674 373 573 373 449 c 2
 373 153 l 2
 373 97.3398435778 352.649885906 46.3138715533 319.004102115 6.97652832318 c 1
 774 -477 l 2
 779 -482 782 -488 782 -495 c 0
 782 -502 779 -508 774 -513 c 0
 769 -518 762 -520 756 -520 c 0
 750 -520 743 -518 738 -513 c 2
 281.804244519 -27.7471900299 l 1
 244.373199381 -55.5382375801 198.060958778 -72 148 -72 c 2
 25 -72 l 1
 25 -375 l 2
 25 -389 14 -400 0 -400 c 0
 -14 -400 -25 -389 -25 -375 c 2
 -25 -72 l 1
 -148 -72 l 2
0 -22 m 1
 148 -22 l 2
 244 -22 323 57 323 153 c 2
 323 449 l 2
 323 545 244 624 148 624 c 2
 -148 624 l 2
 -244 624 -323 545 -323 449 c 2
 -323 153 l 2
 -323 57 -244 -22 -148 -22 c 2
 0 -22 l 1
EndSplineSet
Validated: 1
EndChar

StartChar: uniE059
Encoding: 57433 57433 97
Width: 600
Flags: W
HStem: -72 50<-230.393 -25 25 231.127> 624 50<-230.393 -25 25 230.393>
VStem: -373 50<70.607 531.393> -25 50<-399.802 -72 674 1001.8> 323 50<69.8726 531.393>
LayerCount: 2
Fore
SplineSet
-148 -72 m 2
 -272 -72 -373 29 -373 153 c 2
 -373 449 l 2
 -373 573 -272 674 -148 674 c 2
 -25 674 l 1
 -25 977 l 2
 -25 991 -14 1002 0 1002 c 0
 14 1002 25 991 25 977 c 2
 25 674 l 1
 148 674 l 2
 272 674 373 573 373 449 c 2
 373 153 l 2
 373 97.3398435778 352.649885906 46.3138715533 319.004102115 6.97652832318 c 1
 774 -477 l 2
 779 -482 782 -488 782 -495 c 0
 782 -502 779 -508 774 -513 c 0
 769 -518 762 -520 756 -520 c 0
 750 -520 743 -518 738 -513 c 2
 281.804244519 -27.7471900299 l 1
 244.373199381 -55.5382375801 198.060958778 -72 148 -72 c 2
 25 -72 l 1
 25 -375 l 2
 25 -389 14 -400 0 -400 c 0
 -14 -400 -25 -389 -25 -375 c 2
 -25 -72 l 1
 -148 -72 l 2
0 624 m 1
 -148 624 l 2
 -244 624 -323 545 -323 449 c 2
 -323 153 l 2
 -323 57 -244 -22 -148 -22 c 2
 0 -22 l 1
 148 -22 l 2
 244 -22 323 57 323 153 c 2
 323 449 l 2
 323 545 244 624 148 624 c 2
 0 624 l 1
EndSplineSet
Validated: 1
EndChar

StartChar: uniE05A
Encoding: 57434 57434 98
Width: 600
Flags: W
HStem: -72 50<-230.393 -25 25 231.127> 624 50<-230.393 231.127>
VStem: -373 50<70.607 531.393> -25 50<-399.802 -72> 323 50<69.8726 532.127>
LayerCount: 2
Fore
SplineSet
-148 -72 m 2
 -272 -72 -373 29 -373 153 c 2
 -373 449 l 2
 -373 573 -272 674 -148 674 c 2
 148 674 l 2
 198.060958778 674 244.373199381 657.53823758 281.804244519 629.74719003 c 1
 738 1115 l 2
 743 1120 750 1122 756 1122 c 0
 762 1122 769 1120 774 1115 c 0
 779 1110 782 1104 782 1097 c 0
 782 1090 779 1084 774 1079 c 2
 319.004102115 595.023471677 l 1
 352.649885906 555.686128447 373 504.660156422 373 449 c 2
 373 153 l 2
 373 97.3398435778 352.649885906 46.3138715533 319.004102115 6.97652832318 c 1
 774 -477 l 2
 779 -482 782 -488 782 -495 c 0
 782 -502 779 -508 774 -513 c 0
 769 -518 762 -520 756 -520 c 0
 750 -520 743 -518 738 -513 c 2
 281.804244519 -27.7471900299 l 1
 244.373199381 -55.5382375801 198.060958778 -72 148 -72 c 2
 25 -72 l 1
 25 -375 l 2
 25 -389 14 -400 0 -400 c 0
 -14 -400 -25 -389 -25 -375 c 2
 -25 -72 l 1
 -148 -72 l 2
0 -22 m 1
 148 -22 l 2
 244 -22 323 57 323 153 c 2
 323 449 l 2
 323 545 244 624 148 624 c 2
 -148 624 l 2
 -244 624 -323 545 -323 449 c 2
 -323 153 l 2
 -323 57 -244 -22 -148 -22 c 2
 0 -22 l 1
EndSplineSet
Validated: 1
EndChar

StartChar: uniE05B
Encoding: 57435 57435 99
Width: 600
Flags: W
HStem: -72 50<-230.393 -25 25 231.127> 624 50<-230.393 -25 25 231.127>
VStem: -373 50<70.607 531.393> -25 50<-399.802 -72 674 1001.8> 323 50<69.8726 532.127>
LayerCount: 2
Fore
SplineSet
-148 -72 m 2
 -272 -72 -373 29 -373 153 c 2
 -373 449 l 2
 -373 573 -272 674 -148 674 c 2
 -25 674 l 1
 -25 977 l 2
 -25 991 -14 1002 0 1002 c 0
 14 1002 25 991 25 977 c 2
 25 674 l 1
 148 674 l 2
 198.060958778 674 244.373199381 657.53823758 281.804244519 629.74719003 c 1
 738 1115 l 2
 743 1120 750 1122 756 1122 c 0
 762 1122 769 1120 774 1115 c 0
 779 1110 782 1104 782 1097 c 0
 782 1090 779 1084 774 1079 c 2
 319.004102115 595.023471677 l 1
 352.649885906 555.686128447 373 504.660156422 373 449 c 2
 373 153 l 2
 373 97.3398435778 352.649885906 46.3138715533 319.004102115 6.97652832318 c 1
 774 -477 l 2
 779 -482 782 -488 782 -495 c 0
 782 -502 779 -508 774 -513 c 0
 769 -518 762 -520 756 -520 c 0
 750 -520 743 -518 738 -513 c 2
 281.804244519 -27.7471900299 l 1
 244.373199381 -55.5382375801 198.060958778 -72 148 -72 c 2
 25 -72 l 1
 25 -375 l 2
 25 -389 14 -400 0 -400 c 0
 -14 -400 -25 -389 -25 -375 c 2
 -25 -72 l 1
 -148 -72 l 2
0 624 m 1
 -148 624 l 2
 -244 624 -323 545 -323 449 c 2
 -323 153 l 2
 -323 57 -244 -22 -148 -22 c 2
 0 -22 l 1
 148 -22 l 2
 244 -22 323 57 323 153 c 2
 323 449 l 2
 323 545 244 624 148 624 c 2
 0 624 l 1
EndSplineSet
Validated: 1
EndChar

StartChar: uniE05C
Encoding: 57436 57436 100
Width: 600
Flags: W
HStem: -72 50<-230.393 -25 25 231.127> 276 50<373 658.802> 624 50<-230.393 230.393>
VStem: -373 50<70.607 531.393> -25 50<-399.802 -72> 323 50<69.8726 276 326 531.393>
LayerCount: 2
Fore
SplineSet
-148 -72 m 2
 -272 -72 -373 29 -373 153 c 2
 -373 449 l 2
 -373 573 -272 674 -148 674 c 2
 148 674 l 2
 272 674 373 573 373 449 c 2
 373 326 l 1
 634 326 l 2
 648 326 659 315 659 301 c 0
 659 287 648 276 634 276 c 2
 373 276 l 1
 373 153 l 2
 373 97.3398435778 352.649885906 46.3138715533 319.004102115 6.97652832318 c 1
 774 -477 l 2
 779 -482 782 -488 782 -495 c 0
 782 -502 779 -508 774 -513 c 0
 769 -518 762 -520 756 -520 c 0
 750 -520 743 -518 738 -513 c 2
 281.804244519 -27.7471900299 l 1
 244.373199381 -55.5382375801 198.060958778 -72 148 -72 c 2
 25 -72 l 1
 25 -375 l 2
 25 -389 14 -400 0 -400 c 0
 -14 -400 -25 -389 -25 -375 c 2
 -25 -72 l 1
 -148 -72 l 2
323 301 m 1
 323 449 l 2
 323 545 244 624 148 624 c 2
 -148 624 l 2
 -244 624 -323 545 -323 449 c 2
 -323 153 l 2
 -323 57 -244 -22 -148 -22 c 2
 0 -22 l 1
 148 -22 l 2
 244 -22 323 57 323 153 c 2
 323 301 l 1
EndSplineSet
Validated: 1
EndChar

StartChar: uniE05D
Encoding: 57437 57437 101
Width: 600
Flags: W
HStem: -72 50<-230.393 -25 25 231.127> 276 50<373 658.802> 624 50<-230.393 -25 25 230.393>
VStem: -373 50<70.607 531.393> -25 50<-399.802 -72 674 1001.8> 323 50<69.8726 276 326 531.393>
LayerCount: 2
Fore
SplineSet
-148 -72 m 2
 -272 -72 -373 29 -373 153 c 2
 -373 449 l 2
 -373 573 -272 674 -148 674 c 2
 -25 674 l 1
 -25 977 l 2
 -25 991 -14 1002 0 1002 c 0
 14 1002 25 991 25 977 c 2
 25 674 l 1
 148 674 l 2
 272 674 373 573 373 449 c 2
 373 326 l 1
 634 326 l 2
 648 326 659 315 659 301 c 0
 659 287 648 276 634 276 c 2
 373 276 l 1
 373 153 l 2
 373 97.3398435778 352.649885906 46.3138715533 319.004102115 6.97652832318 c 1
 774 -477 l 2
 779 -482 782 -488 782 -495 c 0
 782 -502 779 -508 774 -513 c 0
 769 -518 762 -520 756 -520 c 0
 750 -520 743 -518 738 -513 c 2
 281.804244519 -27.7471900299 l 1
 244.373199381 -55.5382375801 198.060958778 -72 148 -72 c 2
 25 -72 l 1
 25 -375 l 2
 25 -389 14 -400 0 -400 c 0
 -14 -400 -25 -389 -25 -375 c 2
 -25 -72 l 1
 -148 -72 l 2
323 301 m 1
 323 449 l 2
 323 545 244 624 148 624 c 2
 0 624 l 1
 -148 624 l 2
 -244 624 -323 545 -323 449 c 2
 -323 153 l 2
 -323 57 -244 -22 -148 -22 c 2
 0 -22 l 1
 148 -22 l 2
 244 -22 323 57 323 153 c 2
 323 301 l 1
EndSplineSet
Validated: 1
EndChar

StartChar: uniE05E
Encoding: 57438 57438 102
Width: 600
Flags: W
HStem: -72 50<-230.393 -25 25 231.127> 276 50<373 658.802> 624 50<-230.393 231.127>
VStem: -373 50<70.607 531.393> -25 50<-399.802 -72> 323 50<69.8726 276 326 532.127>
LayerCount: 2
Fore
SplineSet
-148 -72 m 2
 -272 -72 -373 29 -373 153 c 2
 -373 449 l 2
 -373 573 -272 674 -148 674 c 2
 148 674 l 2
 198.060958778 674 244.373199381 657.53823758 281.804244519 629.74719003 c 1
 738 1115 l 2
 743 1120 750 1122 756 1122 c 0
 762 1122 769 1120 774 1115 c 0
 779 1110 782 1104 782 1097 c 0
 782 1090 779 1084 774 1079 c 2
 319.004102115 595.023471677 l 1
 352.649885906 555.686128447 373 504.660156422 373 449 c 2
 373 326 l 1
 634 326 l 2
 648 326 659 315 659 301 c 0
 659 287 648 276 634 276 c 2
 373 276 l 1
 373 153 l 2
 373 97.3398435778 352.649885906 46.3138715533 319.004102115 6.97652832318 c 1
 774 -477 l 2
 779 -482 782 -488 782 -495 c 0
 782 -502 779 -508 774 -513 c 0
 769 -518 762 -520 756 -520 c 0
 750 -520 743 -518 738 -513 c 2
 281.804244519 -27.7471900299 l 1
 244.373199381 -55.5382375801 198.060958778 -72 148 -72 c 2
 25 -72 l 1
 25 -375 l 2
 25 -389 14 -400 0 -400 c 0
 -14 -400 -25 -389 -25 -375 c 2
 -25 -72 l 1
 -148 -72 l 2
323 301 m 1
 323 449 l 2
 323 545 244 624 148 624 c 2
 -148 624 l 2
 -244 624 -323 545 -323 449 c 2
 -323 153 l 2
 -323 57 -244 -22 -148 -22 c 2
 0 -22 l 1
 148 -22 l 2
 244 -22 323 57 323 153 c 2
 323 301 l 1
EndSplineSet
Validated: 1
EndChar

StartChar: uniE060
Encoding: 57440 57440 103
Width: 600
Flags: W
HStem: -72 50<-230.393 230.393> 624 50<-230.393 230.393>
VStem: -373 50<70.607 531.393> 323 50<70.607 531.393> 510 50<356.198 666>
LayerCount: 2
Fore
SplineSet
427 619 m 4
 422 624 420 630 420 637 c 4
 420 644 422 651 427 656 c 6
 517 744 l 6
 522 749 528 751 535 751 c 4
 542 751 549 748 553 744 c 6
 643 656 l 6
 648 651 650 644 650 637 c 4
 650 630 648 624 643 619 c 4
 638 614 632 612 626 612 c 4
 619 612 612 614 608 619 c 6
 560 666 l 5
 560 381 l 6
 560 367 549 356 535 356 c 4
 521 356 510 367 510 381 c 6
 510 666 l 5
 462 619 l 6
 458 614 451 612 444 612 c 4
 438 612 432 614 427 619 c 4
-148 -72 m 2
 -272 -72 -373 29 -373 153 c 2
 -373 449 l 2
 -373 573 -272 674 -148 674 c 2
 148 674 l 2
 272 674 373 573 373 449 c 2
 373 153 l 2
 373 29 272 -72 148 -72 c 2
 -148 -72 l 2
-148 -22 m 2
 148 -22 l 2
 244 -22 323 57 323 153 c 2
 323 449 l 2
 323 545 244 624 148 624 c 2
 -148 624 l 2
 -244 624 -323 545 -323 449 c 2
 -323 153 l 2
 -323 57 -244 -22 -148 -22 c 2
EndSplineSet
Validated: 1
EndChar

StartChar: uniE061
Encoding: 57441 57441 104
Width: 600
Flags: W
HStem: -72 50<-230.393 230.393> 624 50<-230.393 -25 25 230.393>
VStem: -373 50<70.607 531.393> -25 50<674 1001.8> 323 50<70.607 531.393> 510 50<356.198 666>
LayerCount: 2
Fore
SplineSet
427 619 m 4
 422 624 420 630 420 637 c 4
 420 644 422 651 427 656 c 6
 517 744 l 6
 522 749 528 751 535 751 c 4
 542 751 549 748 553 744 c 6
 643 656 l 6
 648 651 650 644 650 637 c 4
 650 630 648 624 643 619 c 4
 638 614 632 612 626 612 c 4
 619 612 612 614 608 619 c 6
 560 666 l 5
 560 381 l 6
 560 367 549 356 535 356 c 4
 521 356 510 367 510 381 c 6
 510 666 l 5
 462 619 l 6
 458 614 451 612 444 612 c 4
 438 612 432 614 427 619 c 4
-148 -72 m 2
 -272 -72 -373 29 -373 153 c 2
 -373 449 l 2
 -373 573 -272 674 -148 674 c 2
 -25 674 l 1
 -25 977 l 2
 -25 991 -14 1002 0 1002 c 0
 14 1002 25 991 25 977 c 2
 25 674 l 1
 148 674 l 2
 272 674 373 573 373 449 c 2
 373 153 l 2
 373 29 272 -72 148 -72 c 2
 -148 -72 l 2
-148 -22 m 2
 148 -22 l 2
 244 -22 323 57 323 153 c 2
 323 449 l 2
 323 545 244 624 148 624 c 2
 0 624 l 1
 -148 624 l 2
 -244 624 -323 545 -323 449 c 2
 -323 153 l 2
 -323 57 -244 -22 -148 -22 c 2
EndSplineSet
Validated: 1
EndChar

StartChar: uniE062
Encoding: 57442 57442 105
Width: 600
Flags: W
HStem: -72 50<-230.393 230.393> 624 50<-230.393 231.127>
VStem: -373 50<70.607 531.393> 323 50<70.607 532.127> 510 50<356.198 666>
LayerCount: 2
Fore
SplineSet
427 619 m 4
 422 624 420 630 420 637 c 4
 420 644 422 651 427 656 c 6
 517 744 l 6
 522 749 528 751 535 751 c 4
 542 751 549 748 553 744 c 6
 643 656 l 6
 648 651 650 644 650 637 c 4
 650 630 648 624 643 619 c 4
 638 614 632 612 626 612 c 4
 619 612 612 614 608 619 c 6
 560 666 l 5
 560 381 l 6
 560 367 549 356 535 356 c 4
 521 356 510 367 510 381 c 6
 510 666 l 5
 462 619 l 6
 458 614 451 612 444 612 c 4
 438 612 432 614 427 619 c 4
-148 -72 m 2
 -272 -72 -373 29 -373 153 c 2
 -373 449 l 2
 -373 573 -272 674 -148 674 c 2
 148 674 l 2
 198.060958778 674 244.373199381 657.53823758 281.804244519 629.74719003 c 1
 738 1115 l 2
 743 1120 750 1122 756 1122 c 0
 762 1122 769 1120 774 1115 c 0
 779 1110 782 1104 782 1097 c 0
 782 1090 779 1084 774 1079 c 2
 319.004102115 595.023471677 l 1
 352.649885906 555.686128447 373 504.660156422 373 449 c 2
 373 153 l 2
 373 29 272 -72 148 -72 c 2
 -148 -72 l 2
-148 -22 m 2
 148 -22 l 2
 244 -22 323 57 323 153 c 2
 323 449 l 2
 323 545 244 624 148 624 c 2
 -148 624 l 2
 -244 624 -323 545 -323 449 c 2
 -323 153 l 2
 -323 57 -244 -22 -148 -22 c 2
EndSplineSet
Validated: 1
EndChar

StartChar: uniE063
Encoding: 57443 57443 106
Width: 600
Flags: W
HStem: -72 50<-230.393 230.393> 624 50<-230.393 -25 25 231.127>
VStem: -373 50<70.607 531.393> -25 50<674 1001.8> 323 50<70.607 532.127> 510 50<356.198 666>
LayerCount: 2
Fore
SplineSet
427 619 m 4
 422 624 420 630 420 637 c 4
 420 644 422 651 427 656 c 6
 517 744 l 6
 522 749 528 751 535 751 c 4
 542 751 549 748 553 744 c 6
 643 656 l 6
 648 651 650 644 650 637 c 4
 650 630 648 624 643 619 c 4
 638 614 632 612 626 612 c 4
 619 612 612 614 608 619 c 6
 560 666 l 5
 560 381 l 6
 560 367 549 356 535 356 c 4
 521 356 510 367 510 381 c 6
 510 666 l 5
 462 619 l 6
 458 614 451 612 444 612 c 4
 438 612 432 614 427 619 c 4
-148 -72 m 2
 -272 -72 -373 29 -373 153 c 2
 -373 449 l 2
 -373 573 -272 674 -148 674 c 2
 -25 674 l 1
 -25 977 l 2
 -25 991 -14 1002 0 1002 c 0
 14 1002 25 991 25 977 c 2
 25 674 l 1
 148 674 l 2
 198.060958778 674 244.373199381 657.53823758 281.804244519 629.74719003 c 1
 738 1115 l 2
 743 1120 750 1122 756 1122 c 0
 762 1122 769 1120 774 1115 c 0
 779 1110 782 1104 782 1097 c 0
 782 1090 779 1084 774 1079 c 2
 319.004102115 595.023471677 l 1
 352.649885906 555.686128447 373 504.660156422 373 449 c 2
 373 153 l 2
 373 29 272 -72 148 -72 c 2
 -148 -72 l 2
-148 -22 m 2
 148 -22 l 2
 244 -22 323 57 323 153 c 2
 323 449 l 2
 323 545 244 624 148 624 c 2
 0 624 l 1
 -148 624 l 2
 -244 624 -323 545 -323 449 c 2
 -323 153 l 2
 -323 57 -244 -22 -148 -22 c 2
EndSplineSet
Validated: 1
EndChar

StartChar: uniE064
Encoding: 57444 57444 107
Width: 600
Flags: W
HStem: -72 50<-230.393 230.393> 276 50<373 658.802> 624 50<-230.393 230.393>
VStem: -373 50<70.607 531.393> 323 50<70.607 276 326 531.393> 510 50<356.198 666>
CounterMasks: 1 e0
LayerCount: 2
Fore
SplineSet
427 619 m 4
 422 624 420 630 420 637 c 4
 420 644 422 651 427 656 c 6
 517 744 l 6
 522 749 528 751 535 751 c 4
 542 751 549 748 553 744 c 6
 643 656 l 6
 648 651 650 644 650 637 c 4
 650 630 648 624 643 619 c 4
 638 614 632 612 626 612 c 4
 619 612 612 614 608 619 c 6
 560 666 l 5
 560 381 l 6
 560 367 549 356 535 356 c 4
 521 356 510 367 510 381 c 6
 510 666 l 5
 462 619 l 6
 458 614 451 612 444 612 c 4
 438 612 432 614 427 619 c 4
-148 -72 m 2
 -272 -72 -373 29 -373 153 c 2
 -373 449 l 2
 -373 573 -272 674 -148 674 c 2
 148 674 l 2
 272 674 373 573 373 449 c 2
 373 326 l 1
 634 326 l 2
 648 326 659 315 659 301 c 0
 659 287 648 276 634 276 c 2
 373 276 l 1
 373 153 l 2
 373 29 272 -72 148 -72 c 2
 -148 -72 l 2
-148 -22 m 2
 148 -22 l 2
 244 -22 323 57 323 153 c 2
 323 301 l 1
 323 449 l 2
 323 545 244 624 148 624 c 2
 -148 624 l 2
 -244 624 -323 545 -323 449 c 2
 -323 153 l 2
 -323 57 -244 -22 -148 -22 c 2
EndSplineSet
Validated: 1
EndChar

StartChar: uniE065
Encoding: 57445 57445 108
Width: 600
Flags: W
HStem: -72 50<-230.393 230.393> 276 50<373 658.802> 624 50<-230.393 -25 25 230.393>
VStem: -373 50<70.607 531.393> -25 50<674 1001.8> 323 50<70.607 276 326 531.393> 510 50<356.198 666>
CounterMasks: 1 e0
LayerCount: 2
Fore
SplineSet
427 619 m 4
 422 624 420 630 420 637 c 4
 420 644 422 651 427 656 c 6
 517 744 l 6
 522 749 528 751 535 751 c 4
 542 751 549 748 553 744 c 6
 643 656 l 6
 648 651 650 644 650 637 c 4
 650 630 648 624 643 619 c 4
 638 614 632 612 626 612 c 4
 619 612 612 614 608 619 c 6
 560 666 l 5
 560 381 l 6
 560 367 549 356 535 356 c 4
 521 356 510 367 510 381 c 6
 510 666 l 5
 462 619 l 6
 458 614 451 612 444 612 c 4
 438 612 432 614 427 619 c 4
-148 -72 m 2
 -272 -72 -373 29 -373 153 c 2
 -373 449 l 2
 -373 573 -272 674 -148 674 c 2
 -25 674 l 1
 -25 977 l 2
 -25 991 -14 1002 0 1002 c 0
 14 1002 25 991 25 977 c 2
 25 674 l 1
 148 674 l 2
 272 674 373 573 373 449 c 2
 373 326 l 1
 634 326 l 2
 648 326 659 315 659 301 c 0
 659 287 648 276 634 276 c 2
 373 276 l 1
 373 153 l 2
 373 29 272 -72 148 -72 c 2
 -148 -72 l 2
-148 -22 m 2
 148 -22 l 2
 244 -22 323 57 323 153 c 2
 323 301 l 1
 323 449 l 2
 323 545 244 624 148 624 c 2
 0 624 l 1
 -148 624 l 2
 -244 624 -323 545 -323 449 c 2
 -323 153 l 2
 -323 57 -244 -22 -148 -22 c 2
EndSplineSet
Validated: 1
EndChar

StartChar: uniE066
Encoding: 57446 57446 109
Width: 600
Flags: W
HStem: -72 50<-230.393 230.393> 276 50<373 658.802> 624 50<-230.393 231.127>
VStem: -373 50<70.607 531.393> 323 50<70.607 276 326 532.127> 510 50<356.198 666>
CounterMasks: 1 e0
LayerCount: 2
Fore
SplineSet
427 619 m 4
 422 624 420 630 420 637 c 4
 420 644 422 651 427 656 c 6
 517 744 l 6
 522 749 528 751 535 751 c 4
 542 751 549 748 553 744 c 6
 643 656 l 6
 648 651 650 644 650 637 c 4
 650 630 648 624 643 619 c 4
 638 614 632 612 626 612 c 4
 619 612 612 614 608 619 c 6
 560 666 l 5
 560 381 l 6
 560 367 549 356 535 356 c 4
 521 356 510 367 510 381 c 6
 510 666 l 5
 462 619 l 6
 458 614 451 612 444 612 c 4
 438 612 432 614 427 619 c 4
-148 -72 m 2
 -272 -72 -373 29 -373 153 c 2
 -373 449 l 2
 -373 573 -272 674 -148 674 c 2
 148 674 l 2
 198.060958778 674 244.373199381 657.53823758 281.804244519 629.74719003 c 1
 738 1115 l 2
 743 1120 750 1122 756 1122 c 0
 762 1122 769 1120 774 1115 c 0
 779 1110 782 1104 782 1097 c 0
 782 1090 779 1084 774 1079 c 2
 319.004102115 595.023471677 l 1
 352.649885906 555.686128447 373 504.660156422 373 449 c 2
 373 326 l 1
 634 326 l 2
 648 326 659 315 659 301 c 0
 659 287 648 276 634 276 c 2
 373 276 l 1
 373 153 l 2
 373 29 272 -72 148 -72 c 2
 -148 -72 l 2
-148 -22 m 2
 148 -22 l 2
 244 -22 323 57 323 153 c 2
 323 301 l 1
 323 449 l 2
 323 545 244 624 148 624 c 2
 -148 624 l 2
 -244 624 -323 545 -323 449 c 2
 -323 153 l 2
 -323 57 -244 -22 -148 -22 c 2
EndSplineSet
Validated: 1
EndChar

StartChar: uniE067
Encoding: 57447 57447 110
Width: 600
Flags: W
HStem: -72 50<-230.393 230.393> 276 50<373 658.802> 624 50<-230.393 -25 25 231.127>
VStem: -373 50<70.607 531.393> -25 50<674 1001.8> 323 50<70.607 276 326 532.127> 510 50<356.198 666>
CounterMasks: 1 e0
LayerCount: 2
Fore
SplineSet
427 619 m 4
 422 624 420 630 420 637 c 4
 420 644 422 651 427 656 c 6
 517 744 l 6
 522 749 528 751 535 751 c 4
 542 751 549 748 553 744 c 6
 643 656 l 6
 648 651 650 644 650 637 c 4
 650 630 648 624 643 619 c 4
 638 614 632 612 626 612 c 4
 619 612 612 614 608 619 c 6
 560 666 l 5
 560 381 l 6
 560 367 549 356 535 356 c 4
 521 356 510 367 510 381 c 6
 510 666 l 5
 462 619 l 6
 458 614 451 612 444 612 c 4
 438 612 432 614 427 619 c 4
-148 -72 m 2
 -272 -72 -373 29 -373 153 c 2
 -373 449 l 2
 -373 573 -272 674 -148 674 c 2
 -25 674 l 1
 -25 977 l 2
 -25 991 -14 1002 0 1002 c 0
 14 1002 25 991 25 977 c 2
 25 674 l 1
 148 674 l 2
 198.060958778 674 244.373199381 657.53823758 281.804244519 629.74719003 c 1
 738 1115 l 2
 743 1120 750 1122 756 1122 c 0
 762 1122 769 1120 774 1115 c 0
 779 1110 782 1104 782 1097 c 0
 782 1090 779 1084 774 1079 c 2
 319.004102115 595.023471677 l 1
 352.649885906 555.686128447 373 504.660156422 373 449 c 2
 373 326 l 1
 634 326 l 2
 648 326 659 315 659 301 c 0
 659 287 648 276 634 276 c 2
 373 276 l 1
 373 153 l 2
 373 29 272 -72 148 -72 c 2
 -148 -72 l 2
-148 -22 m 2
 148 -22 l 2
 244 -22 323 57 323 153 c 2
 323 301 l 1
 323 449 l 2
 323 545 244 624 148 624 c 2
 0 624 l 1
 -148 624 l 2
 -244 624 -323 545 -323 449 c 2
 -323 153 l 2
 -323 57 -244 -22 -148 -22 c 2
EndSplineSet
Validated: 1
EndChar

StartChar: uniE068
Encoding: 57448 57448 111
Width: 600
Flags: W
HStem: -72 50<-230.393 231.127> 624 50<-230.393 230.393>
VStem: -373 50<70.607 531.393> 323 50<69.8726 531.393> 510 50<356.198 666>
LayerCount: 2
Fore
SplineSet
427 619 m 4
 422 624 420 630 420 637 c 4
 420 644 422 651 427 656 c 6
 517 744 l 6
 522 749 528 751 535 751 c 4
 542 751 549 748 553 744 c 6
 643 656 l 6
 648 651 650 644 650 637 c 4
 650 630 648 624 643 619 c 4
 638 614 632 612 626 612 c 4
 619 612 612 614 608 619 c 6
 560 666 l 5
 560 381 l 6
 560 367 549 356 535 356 c 4
 521 356 510 367 510 381 c 6
 510 666 l 5
 462 619 l 6
 458 614 451 612 444 612 c 4
 438 612 432 614 427 619 c 4
-148 -72 m 2
 -272 -72 -373 29 -373 153 c 2
 -373 449 l 2
 -373 573 -272 674 -148 674 c 2
 148 674 l 2
 272 674 373 573 373 449 c 2
 373 153 l 2
 373 97.3398435778 352.649885906 46.3138715533 319.004102115 6.97652832318 c 1
 774 -477 l 2
 779 -482 782 -488 782 -495 c 0
 782 -502 779 -508 774 -513 c 0
 769 -518 762 -520 756 -520 c 0
 750 -520 743 -518 738 -513 c 2
 281.804244519 -27.7471900299 l 1
 244.373199381 -55.5382375801 198.060958778 -72 148 -72 c 2
 -148 -72 l 2
-148 -22 m 2
 148 -22 l 2
 244 -22 323 57 323 153 c 2
 323 449 l 2
 323 545 244 624 148 624 c 2
 -148 624 l 2
 -244 624 -323 545 -323 449 c 2
 -323 153 l 2
 -323 57 -244 -22 -148 -22 c 2
EndSplineSet
Validated: 1
EndChar

StartChar: uniE06B
Encoding: 57451 57451 112
Width: 600
Flags: W
HStem: -72 50<-230.393 231.127> 624 50<-230.393 -25 25 231.127>
VStem: -373 50<70.607 531.393> -25 50<674 1001.8> 323 50<69.8726 532.127> 510 50<356.198 666>
LayerCount: 2
Fore
SplineSet
427 619 m 4
 422 624 420 630 420 637 c 4
 420 644 422 651 427 656 c 6
 517 744 l 6
 522 749 528 751 535 751 c 4
 542 751 549 748 553 744 c 6
 643 656 l 6
 648 651 650 644 650 637 c 4
 650 630 648 624 643 619 c 4
 638 614 632 612 626 612 c 4
 619 612 612 614 608 619 c 6
 560 666 l 5
 560 381 l 6
 560 367 549 356 535 356 c 4
 521 356 510 367 510 381 c 6
 510 666 l 5
 462 619 l 6
 458 614 451 612 444 612 c 4
 438 612 432 614 427 619 c 4
-148 -72 m 2
 -272 -72 -373 29 -373 153 c 2
 -373 449 l 2
 -373 573 -272 674 -148 674 c 2
 -25 674 l 1
 -25 977 l 2
 -25 991 -14 1002 0 1002 c 0
 14 1002 25 991 25 977 c 2
 25 674 l 1
 148 674 l 2
 198.060958778 674 244.373199381 657.53823758 281.804244519 629.74719003 c 1
 738 1115 l 2
 743 1120 750 1122 756 1122 c 0
 762 1122 769 1120 774 1115 c 0
 779 1110 782 1104 782 1097 c 0
 782 1090 779 1084 774 1079 c 2
 319.004102115 595.023471677 l 1
 352.649885906 555.686128447 373 504.660156422 373 449 c 2
 373 153 l 2
 373 97.3398435778 352.649885906 46.3138715533 319.004102115 6.97652832318 c 1
 774 -477 l 2
 779 -482 782 -488 782 -495 c 0
 782 -502 779 -508 774 -513 c 0
 769 -518 762 -520 756 -520 c 0
 750 -520 743 -518 738 -513 c 2
 281.804244519 -27.7471900299 l 1
 244.373199381 -55.5382375801 198.060958778 -72 148 -72 c 2
 -148 -72 l 2
-148 -22 m 2
 148 -22 l 2
 244 -22 323 57 323 153 c 2
 323 449 l 2
 323 545 244 624 148 624 c 2
 0 624 l 1
 -148 624 l 2
 -244 624 -323 545 -323 449 c 2
 -323 153 l 2
 -323 57 -244 -22 -148 -22 c 2
EndSplineSet
Validated: 1
EndChar

StartChar: uniE06C
Encoding: 57452 57452 113
Width: 600
Flags: W
HStem: -72 50<-230.393 231.127> 276 50<373 658.802> 624 50<-230.393 230.393>
VStem: -373 50<70.607 531.393> 323 50<69.8726 276 326 531.393> 510 50<356.198 666>
CounterMasks: 1 e0
LayerCount: 2
Fore
SplineSet
427 619 m 4
 422 624 420 630 420 637 c 4
 420 644 422 651 427 656 c 6
 517 744 l 6
 522 749 528 751 535 751 c 4
 542 751 549 748 553 744 c 6
 643 656 l 6
 648 651 650 644 650 637 c 4
 650 630 648 624 643 619 c 4
 638 614 632 612 626 612 c 4
 619 612 612 614 608 619 c 6
 560 666 l 5
 560 381 l 6
 560 367 549 356 535 356 c 4
 521 356 510 367 510 381 c 6
 510 666 l 5
 462 619 l 6
 458 614 451 612 444 612 c 4
 438 612 432 614 427 619 c 4
-148 -72 m 2
 -272 -72 -373 29 -373 153 c 2
 -373 449 l 2
 -373 573 -272 674 -148 674 c 2
 148 674 l 2
 272 674 373 573 373 449 c 2
 373 326 l 1
 634 326 l 2
 648 326 659 315 659 301 c 0
 659 287 648 276 634 276 c 2
 373 276 l 1
 373 153 l 2
 373 97.3398435778 352.649885906 46.3138715533 319.004102115 6.97652832318 c 1
 774 -477 l 2
 779 -482 782 -488 782 -495 c 0
 782 -502 779 -508 774 -513 c 0
 769 -518 762 -520 756 -520 c 0
 750 -520 743 -518 738 -513 c 2
 281.804244519 -27.7471900299 l 1
 244.373199381 -55.5382375801 198.060958778 -72 148 -72 c 2
 -148 -72 l 2
-148 -22 m 2
 148 -22 l 2
 244 -22 323 57 323 153 c 2
 323 301 l 1
 323 449 l 2
 323 545 244 624 148 624 c 2
 -148 624 l 2
 -244 624 -323 545 -323 449 c 2
 -323 153 l 2
 -323 57 -244 -22 -148 -22 c 2
EndSplineSet
Validated: 1
EndChar

StartChar: uniE06D
Encoding: 57453 57453 114
Width: 600
Flags: W
HStem: -72 50<-230.393 231.127> 276 50<373 658.802> 624 50<-230.393 -25 25 230.393>
VStem: -373 50<70.607 531.393> -25 50<674 1001.8> 323 50<69.8726 276 326 531.393> 510 50<356.198 666>
CounterMasks: 1 e0
LayerCount: 2
Fore
SplineSet
427 619 m 4
 422 624 420 630 420 637 c 4
 420 644 422 651 427 656 c 6
 517 744 l 6
 522 749 528 751 535 751 c 4
 542 751 549 748 553 744 c 6
 643 656 l 6
 648 651 650 644 650 637 c 4
 650 630 648 624 643 619 c 4
 638 614 632 612 626 612 c 4
 619 612 612 614 608 619 c 6
 560 666 l 5
 560 381 l 6
 560 367 549 356 535 356 c 4
 521 356 510 367 510 381 c 6
 510 666 l 5
 462 619 l 6
 458 614 451 612 444 612 c 4
 438 612 432 614 427 619 c 4
-148 -72 m 2
 -272 -72 -373 29 -373 153 c 2
 -373 449 l 2
 -373 573 -272 674 -148 674 c 2
 -25 674 l 1
 -25 977 l 2
 -25 991 -14 1002 0 1002 c 0
 14 1002 25 991 25 977 c 2
 25 674 l 1
 148 674 l 2
 272 674 373 573 373 449 c 2
 373 326 l 1
 634 326 l 2
 648 326 659 315 659 301 c 0
 659 287 648 276 634 276 c 2
 373 276 l 1
 373 153 l 2
 373 97.3398435778 352.649885906 46.3138715533 319.004102115 6.97652832318 c 1
 774 -477 l 2
 779 -482 782 -488 782 -495 c 0
 782 -502 779 -508 774 -513 c 0
 769 -518 762 -520 756 -520 c 0
 750 -520 743 -518 738 -513 c 2
 281.804244519 -27.7471900299 l 1
 244.373199381 -55.5382375801 198.060958778 -72 148 -72 c 2
 -148 -72 l 2
-148 -22 m 2
 148 -22 l 2
 244 -22 323 57 323 153 c 2
 323 301 l 1
 323 449 l 2
 323 545 244 624 148 624 c 2
 0 624 l 1
 -148 624 l 2
 -244 624 -323 545 -323 449 c 2
 -323 153 l 2
 -323 57 -244 -22 -148 -22 c 2
EndSplineSet
Validated: 1
EndChar

StartChar: uniE06E
Encoding: 57454 57454 115
Width: 600
Flags: W
HStem: -72 50<-230.393 231.127> 276 50<373 658.802> 624 50<-230.393 231.127>
VStem: -373 50<70.607 531.393> 323 50<69.8726 276 326 532.127> 510 50<356.198 666>
CounterMasks: 1 e0
LayerCount: 2
Fore
SplineSet
427 619 m 4
 422 624 420 630 420 637 c 4
 420 644 422 651 427 656 c 6
 517 744 l 6
 522 749 528 751 535 751 c 4
 542 751 549 748 553 744 c 6
 643 656 l 6
 648 651 650 644 650 637 c 4
 650 630 648 624 643 619 c 4
 638 614 632 612 626 612 c 4
 619 612 612 614 608 619 c 6
 560 666 l 5
 560 381 l 6
 560 367 549 356 535 356 c 4
 521 356 510 367 510 381 c 6
 510 666 l 5
 462 619 l 6
 458 614 451 612 444 612 c 4
 438 612 432 614 427 619 c 4
-148 -72 m 2
 -272 -72 -373 29 -373 153 c 2
 -373 449 l 2
 -373 573 -272 674 -148 674 c 2
 148 674 l 2
 198.060958778 674 244.373199381 657.53823758 281.804244519 629.74719003 c 1
 738 1115 l 2
 743 1120 750 1122 756 1122 c 0
 762 1122 769 1120 774 1115 c 0
 779 1110 782 1104 782 1097 c 0
 782 1090 779 1084 774 1079 c 2
 319.004102115 595.023471677 l 1
 352.649885906 555.686128447 373 504.660156422 373 449 c 2
 373 326 l 1
 634 326 l 2
 648 326 659 315 659 301 c 0
 659 287 648 276 634 276 c 2
 373 276 l 1
 373 153 l 2
 373 97.3398435778 352.649885906 46.3138715533 319.004102115 6.97652832318 c 1
 774 -477 l 2
 779 -482 782 -488 782 -495 c 0
 782 -502 779 -508 774 -513 c 0
 769 -518 762 -520 756 -520 c 0
 750 -520 743 -518 738 -513 c 2
 281.804244519 -27.7471900299 l 1
 244.373199381 -55.5382375801 198.060958778 -72 148 -72 c 2
 -148 -72 l 2
-148 -22 m 2
 148 -22 l 2
 244 -22 323 57 323 153 c 2
 323 301 l 1
 323 449 l 2
 323 545 244 624 148 624 c 2
 -148 624 l 2
 -244 624 -323 545 -323 449 c 2
 -323 153 l 2
 -323 57 -244 -22 -148 -22 c 2
EndSplineSet
Validated: 1
EndChar

StartChar: uniE06F
Encoding: 57455 57455 116
Width: 600
Flags: W
HStem: -72 50<-230.393 231.127> 276 50<373 658.802> 624 50<-230.393 -25 25 231.127>
VStem: -373 50<70.607 531.393> -25 50<674 1001.8> 323 50<69.8726 276 326 532.127> 510 50<356.198 666>
CounterMasks: 1 e0
LayerCount: 2
Fore
SplineSet
427 619 m 4
 422 624 420 630 420 637 c 4
 420 644 422 651 427 656 c 6
 517 744 l 6
 522 749 528 751 535 751 c 4
 542 751 549 748 553 744 c 6
 643 656 l 6
 648 651 650 644 650 637 c 4
 650 630 648 624 643 619 c 4
 638 614 632 612 626 612 c 4
 619 612 612 614 608 619 c 6
 560 666 l 5
 560 381 l 6
 560 367 549 356 535 356 c 4
 521 356 510 367 510 381 c 6
 510 666 l 5
 462 619 l 6
 458 614 451 612 444 612 c 4
 438 612 432 614 427 619 c 4
-148 -72 m 2
 -272 -72 -373 29 -373 153 c 2
 -373 449 l 2
 -373 573 -272 674 -148 674 c 2
 -25 674 l 1
 -25 977 l 2
 -25 991 -14 1002 0 1002 c 0
 14 1002 25 991 25 977 c 2
 25 674 l 1
 148 674 l 2
 198.060958778 674 244.373199381 657.53823758 281.804244519 629.74719003 c 1
 738 1115 l 2
 743 1120 750 1122 756 1122 c 0
 762 1122 769 1120 774 1115 c 0
 779 1110 782 1104 782 1097 c 0
 782 1090 779 1084 774 1079 c 2
 319.004102115 595.023471677 l 1
 352.649885906 555.686128447 373 504.660156422 373 449 c 2
 373 326 l 1
 634 326 l 2
 648 326 659 315 659 301 c 0
 659 287 648 276 634 276 c 2
 373 276 l 1
 373 153 l 2
 373 97.3398435778 352.649885906 46.3138715533 319.004102115 6.97652832318 c 1
 774 -477 l 2
 779 -482 782 -488 782 -495 c 0
 782 -502 779 -508 774 -513 c 0
 769 -518 762 -520 756 -520 c 0
 750 -520 743 -518 738 -513 c 2
 281.804244519 -27.7471900299 l 1
 244.373199381 -55.5382375801 198.060958778 -72 148 -72 c 2
 -148 -72 l 2
-148 -22 m 2
 148 -22 l 2
 244 -22 323 57 323 153 c 2
 323 301 l 1
 323 449 l 2
 323 545 244 624 148 624 c 2
 0 624 l 1
 -148 624 l 2
 -244 624 -323 545 -323 449 c 2
 -323 153 l 2
 -323 57 -244 -22 -148 -22 c 2
EndSplineSet
Validated: 1
EndChar

StartChar: uniE070
Encoding: 57456 57456 117
Width: 600
Flags: W
HStem: -72 50<-230.393 -25 25 230.393> 624 50<-230.393 230.393>
VStem: -373 50<70.607 531.393> -25 50<-399.802 -72> 323 50<70.607 531.393> 510 50<356.198 666>
LayerCount: 2
Fore
SplineSet
427 619 m 4
 422 624 420 630 420 637 c 4
 420 644 422 651 427 656 c 6
 517 744 l 6
 522 749 528 751 535 751 c 4
 542 751 549 748 553 744 c 6
 643 656 l 6
 648 651 650 644 650 637 c 4
 650 630 648 624 643 619 c 4
 638 614 632 612 626 612 c 4
 619 612 612 614 608 619 c 6
 560 666 l 5
 560 381 l 6
 560 367 549 356 535 356 c 4
 521 356 510 367 510 381 c 6
 510 666 l 5
 462 619 l 6
 458 614 451 612 444 612 c 4
 438 612 432 614 427 619 c 4
-148 -72 m 2
 -272 -72 -373 29 -373 153 c 2
 -373 449 l 2
 -373 573 -272 674 -148 674 c 2
 148 674 l 2
 272 674 373 573 373 449 c 2
 373 153 l 2
 373 29 272 -72 148 -72 c 2
 25 -72 l 1
 25 -375 l 2
 25 -389 14 -400 0 -400 c 0
 -14 -400 -25 -389 -25 -375 c 2
 -25 -72 l 1
 -148 -72 l 2
0 -22 m 1
 148 -22 l 2
 244 -22 323 57 323 153 c 2
 323 449 l 2
 323 545 244 624 148 624 c 2
 -148 624 l 2
 -244 624 -323 545 -323 449 c 2
 -323 153 l 2
 -323 57 -244 -22 -148 -22 c 2
 0 -22 l 1
EndSplineSet
Validated: 1
EndChar

StartChar: uniE071
Encoding: 57457 57457 118
Width: 600
Flags: W
HStem: -72 50<-230.393 -25 25 230.393> 624 50<-230.393 -25 25 230.393>
VStem: -373 50<70.607 531.393> -25 50<-399.802 -72 674 1001.8> 323 50<70.607 531.393> 510 50<356.198 666>
LayerCount: 2
Fore
SplineSet
427 619 m 4
 422 624 420 630 420 637 c 4
 420 644 422 651 427 656 c 6
 517 744 l 6
 522 749 528 751 535 751 c 4
 542 751 549 748 553 744 c 6
 643 656 l 6
 648 651 650 644 650 637 c 4
 650 630 648 624 643 619 c 4
 638 614 632 612 626 612 c 4
 619 612 612 614 608 619 c 6
 560 666 l 5
 560 381 l 6
 560 367 549 356 535 356 c 4
 521 356 510 367 510 381 c 6
 510 666 l 5
 462 619 l 6
 458 614 451 612 444 612 c 4
 438 612 432 614 427 619 c 4
-148 -72 m 2
 -272 -72 -373 29 -373 153 c 2
 -373 449 l 2
 -373 573 -272 674 -148 674 c 2
 -25 674 l 1
 -25 977 l 2
 -25 991 -14 1002 0 1002 c 0
 14 1002 25 991 25 977 c 2
 25 674 l 1
 148 674 l 2
 272 674 373 573 373 449 c 2
 373 153 l 2
 373 29 272 -72 148 -72 c 2
 25 -72 l 1
 25 -375 l 2
 25 -389 14 -400 0 -400 c 0
 -14 -400 -25 -389 -25 -375 c 2
 -25 -72 l 1
 -148 -72 l 2
0 624 m 1
 -148 624 l 2
 -244 624 -323 545 -323 449 c 2
 -323 153 l 2
 -323 57 -244 -22 -148 -22 c 2
 0 -22 l 1
 148 -22 l 2
 244 -22 323 57 323 153 c 2
 323 449 l 2
 323 545 244 624 148 624 c 2
 0 624 l 1
EndSplineSet
Validated: 1
EndChar

StartChar: uniE072
Encoding: 57458 57458 119
Width: 600
Flags: W
HStem: -72 50<-230.393 -25 25 230.393> 624 50<-230.393 231.127>
VStem: -373 50<70.607 531.393> -25 50<-399.802 -72> 323 50<70.607 532.127> 510 50<356.198 666>
LayerCount: 2
Fore
SplineSet
427 619 m 4
 422 624 420 630 420 637 c 4
 420 644 422 651 427 656 c 6
 517 744 l 6
 522 749 528 751 535 751 c 4
 542 751 549 748 553 744 c 6
 643 656 l 6
 648 651 650 644 650 637 c 4
 650 630 648 624 643 619 c 4
 638 614 632 612 626 612 c 4
 619 612 612 614 608 619 c 6
 560 666 l 5
 560 381 l 6
 560 367 549 356 535 356 c 4
 521 356 510 367 510 381 c 6
 510 666 l 5
 462 619 l 6
 458 614 451 612 444 612 c 4
 438 612 432 614 427 619 c 4
-148 -72 m 2
 -272 -72 -373 29 -373 153 c 2
 -373 449 l 2
 -373 573 -272 674 -148 674 c 2
 148 674 l 2
 198.060958778 674 244.373199381 657.53823758 281.804244519 629.74719003 c 1
 738 1115 l 2
 743 1120 750 1122 756 1122 c 0
 762 1122 769 1120 774 1115 c 0
 779 1110 782 1104 782 1097 c 0
 782 1090 779 1084 774 1079 c 2
 319.004102115 595.023471677 l 1
 352.649885906 555.686128447 373 504.660156422 373 449 c 2
 373 153 l 2
 373 29 272 -72 148 -72 c 2
 25 -72 l 1
 25 -375 l 2
 25 -389 14 -400 0 -400 c 0
 -14 -400 -25 -389 -25 -375 c 2
 -25 -72 l 1
 -148 -72 l 2
0 -22 m 1
 148 -22 l 2
 244 -22 323 57 323 153 c 2
 323 449 l 2
 323 545 244 624 148 624 c 2
 -148 624 l 2
 -244 624 -323 545 -323 449 c 2
 -323 153 l 2
 -323 57 -244 -22 -148 -22 c 2
 0 -22 l 1
EndSplineSet
Validated: 1
EndChar

StartChar: uniE073
Encoding: 57459 57459 120
Width: 600
Flags: W
HStem: -72 50<-230.393 -25 25 230.393> 624 50<-230.393 -25 25 231.127>
VStem: -373 50<70.607 531.393> -25 50<-399.802 -72 674 1001.8> 323 50<70.607 532.127> 510 50<356.198 666>
LayerCount: 2
Fore
SplineSet
427 619 m 4
 422 624 420 630 420 637 c 4
 420 644 422 651 427 656 c 6
 517 744 l 6
 522 749 528 751 535 751 c 4
 542 751 549 748 553 744 c 6
 643 656 l 6
 648 651 650 644 650 637 c 4
 650 630 648 624 643 619 c 4
 638 614 632 612 626 612 c 4
 619 612 612 614 608 619 c 6
 560 666 l 5
 560 381 l 6
 560 367 549 356 535 356 c 4
 521 356 510 367 510 381 c 6
 510 666 l 5
 462 619 l 6
 458 614 451 612 444 612 c 4
 438 612 432 614 427 619 c 4
-148 -72 m 2
 -272 -72 -373 29 -373 153 c 2
 -373 449 l 2
 -373 573 -272 674 -148 674 c 2
 -25 674 l 1
 -25 977 l 2
 -25 991 -14 1002 0 1002 c 0
 14 1002 25 991 25 977 c 2
 25 674 l 1
 148 674 l 2
 198.060958778 674 244.373199381 657.53823758 281.804244519 629.74719003 c 1
 738 1115 l 2
 743 1120 750 1122 756 1122 c 0
 762 1122 769 1120 774 1115 c 0
 779 1110 782 1104 782 1097 c 0
 782 1090 779 1084 774 1079 c 2
 319.004102115 595.023471677 l 1
 352.649885906 555.686128447 373 504.660156422 373 449 c 2
 373 153 l 2
 373 29 272 -72 148 -72 c 2
 25 -72 l 1
 25 -375 l 2
 25 -389 14 -400 0 -400 c 0
 -14 -400 -25 -389 -25 -375 c 2
 -25 -72 l 1
 -148 -72 l 2
0 624 m 1
 -148 624 l 2
 -244 624 -323 545 -323 449 c 2
 -323 153 l 2
 -323 57 -244 -22 -148 -22 c 2
 0 -22 l 1
 148 -22 l 2
 244 -22 323 57 323 153 c 2
 323 449 l 2
 323 545 244 624 148 624 c 2
 0 624 l 1
EndSplineSet
Validated: 1
EndChar

StartChar: uniE074
Encoding: 57460 57460 121
Width: 600
Flags: W
HStem: -72 50<-230.393 -25 25 230.393> 276 50<373 658.802> 624 50<-230.393 230.393>
VStem: -373 50<70.607 531.393> -25 50<-399.802 -72> 323 50<70.607 276 326 531.393> 510 50<356.198 666>
CounterMasks: 1 e0
LayerCount: 2
Fore
SplineSet
427 619 m 4
 422 624 420 630 420 637 c 4
 420 644 422 651 427 656 c 6
 517 744 l 6
 522 749 528 751 535 751 c 4
 542 751 549 748 553 744 c 6
 643 656 l 6
 648 651 650 644 650 637 c 4
 650 630 648 624 643 619 c 4
 638 614 632 612 626 612 c 4
 619 612 612 614 608 619 c 6
 560 666 l 5
 560 381 l 6
 560 367 549 356 535 356 c 4
 521 356 510 367 510 381 c 6
 510 666 l 5
 462 619 l 6
 458 614 451 612 444 612 c 4
 438 612 432 614 427 619 c 4
-148 -72 m 2
 -272 -72 -373 29 -373 153 c 2
 -373 449 l 2
 -373 573 -272 674 -148 674 c 2
 148 674 l 2
 272 674 373 573 373 449 c 2
 373 326 l 1
 634 326 l 2
 648 326 659 315 659 301 c 0
 659 287 648 276 634 276 c 2
 373 276 l 1
 373 153 l 2
 373 29 272 -72 148 -72 c 2
 25 -72 l 1
 25 -375 l 2
 25 -389 14 -400 0 -400 c 0
 -14 -400 -25 -389 -25 -375 c 2
 -25 -72 l 1
 -148 -72 l 2
323 301 m 1
 323 449 l 2
 323 545 244 624 148 624 c 2
 -148 624 l 2
 -244 624 -323 545 -323 449 c 2
 -323 153 l 2
 -323 57 -244 -22 -148 -22 c 2
 0 -22 l 1
 148 -22 l 2
 244 -22 323 57 323 153 c 2
 323 301 l 1
EndSplineSet
Validated: 1
EndChar

StartChar: uniE075
Encoding: 57461 57461 122
Width: 600
Flags: W
HStem: -72 50<-230.393 -25 25 230.393> 276 50<373 658.802> 624 50<-230.393 -25 25 230.393>
VStem: -373 50<70.607 531.393> -25 50<-399.802 -72 674 1001.8> 323 50<70.607 276 326 531.393> 510 50<356.198 666>
CounterMasks: 1 e0
LayerCount: 2
Fore
SplineSet
427 619 m 4
 422 624 420 630 420 637 c 4
 420 644 422 651 427 656 c 6
 517 744 l 6
 522 749 528 751 535 751 c 4
 542 751 549 748 553 744 c 6
 643 656 l 6
 648 651 650 644 650 637 c 4
 650 630 648 624 643 619 c 4
 638 614 632 612 626 612 c 4
 619 612 612 614 608 619 c 6
 560 666 l 5
 560 381 l 6
 560 367 549 356 535 356 c 4
 521 356 510 367 510 381 c 6
 510 666 l 5
 462 619 l 6
 458 614 451 612 444 612 c 4
 438 612 432 614 427 619 c 4
-148 -72 m 2
 -272 -72 -373 29 -373 153 c 2
 -373 449 l 2
 -373 573 -272 674 -148 674 c 2
 -25 674 l 1
 -25 977 l 2
 -25 991 -14 1002 0 1002 c 0
 14 1002 25 991 25 977 c 2
 25 674 l 1
 148 674 l 2
 272 674 373 573 373 449 c 2
 373 326 l 1
 634 326 l 2
 648 326 659 315 659 301 c 0
 659 287 648 276 634 276 c 2
 373 276 l 1
 373 153 l 2
 373 29 272 -72 148 -72 c 2
 25 -72 l 1
 25 -375 l 2
 25 -389 14 -400 0 -400 c 0
 -14 -400 -25 -389 -25 -375 c 2
 -25 -72 l 1
 -148 -72 l 2
323 301 m 1
 323 449 l 2
 323 545 244 624 148 624 c 2
 0 624 l 1
 -148 624 l 2
 -244 624 -323 545 -323 449 c 2
 -323 153 l 2
 -323 57 -244 -22 -148 -22 c 2
 0 -22 l 1
 148 -22 l 2
 244 -22 323 57 323 153 c 2
 323 301 l 1
EndSplineSet
Validated: 1
EndChar

StartChar: uniE076
Encoding: 57462 57462 123
Width: 600
Flags: W
HStem: -72 50<-230.393 -25 25 230.393> 276 50<373 658.802> 624 50<-230.393 231.127>
VStem: -373 50<70.607 531.393> -25 50<-399.802 -72> 323 50<70.607 276 326 532.127> 510 50<356.198 666>
CounterMasks: 1 e0
LayerCount: 2
Fore
SplineSet
427 619 m 4
 422 624 420 630 420 637 c 4
 420 644 422 651 427 656 c 6
 517 744 l 6
 522 749 528 751 535 751 c 4
 542 751 549 748 553 744 c 6
 643 656 l 6
 648 651 650 644 650 637 c 4
 650 630 648 624 643 619 c 4
 638 614 632 612 626 612 c 4
 619 612 612 614 608 619 c 6
 560 666 l 5
 560 381 l 6
 560 367 549 356 535 356 c 4
 521 356 510 367 510 381 c 6
 510 666 l 5
 462 619 l 6
 458 614 451 612 444 612 c 4
 438 612 432 614 427 619 c 4
-148 -72 m 2
 -272 -72 -373 29 -373 153 c 2
 -373 449 l 2
 -373 573 -272 674 -148 674 c 2
 148 674 l 2
 198.060958778 674 244.373199381 657.53823758 281.804244519 629.74719003 c 1
 738 1115 l 2
 743 1120 750 1122 756 1122 c 0
 762 1122 769 1120 774 1115 c 0
 779 1110 782 1104 782 1097 c 0
 782 1090 779 1084 774 1079 c 2
 319.004102115 595.023471677 l 1
 352.649885906 555.686128447 373 504.660156422 373 449 c 2
 373 326 l 1
 634 326 l 2
 648 326 659 315 659 301 c 0
 659 287 648 276 634 276 c 2
 373 276 l 1
 373 153 l 2
 373 29 272 -72 148 -72 c 2
 25 -72 l 1
 25 -375 l 2
 25 -389 14 -400 0 -400 c 0
 -14 -400 -25 -389 -25 -375 c 2
 -25 -72 l 1
 -148 -72 l 2
323 301 m 1
 323 449 l 2
 323 545 244 624 148 624 c 2
 -148 624 l 2
 -244 624 -323 545 -323 449 c 2
 -323 153 l 2
 -323 57 -244 -22 -148 -22 c 2
 0 -22 l 1
 148 -22 l 2
 244 -22 323 57 323 153 c 2
 323 301 l 1
EndSplineSet
Validated: 1
EndChar

StartChar: uniE077
Encoding: 57463 57463 124
Width: 600
Flags: W
HStem: -72 50<-230.393 -25 25 230.393> 276 50<373 658.802> 624 50<-230.393 -25 25 231.127>
VStem: -373 50<70.607 531.393> -25 50<-399.802 -72 674 1001.8> 323 50<70.607 276 326 532.127> 510 50<356.198 666>
CounterMasks: 1 e0
LayerCount: 2
Fore
SplineSet
427 619 m 4
 422 624 420 630 420 637 c 4
 420 644 422 651 427 656 c 6
 517 744 l 6
 522 749 528 751 535 751 c 4
 542 751 549 748 553 744 c 6
 643 656 l 6
 648 651 650 644 650 637 c 4
 650 630 648 624 643 619 c 4
 638 614 632 612 626 612 c 4
 619 612 612 614 608 619 c 6
 560 666 l 5
 560 381 l 6
 560 367 549 356 535 356 c 4
 521 356 510 367 510 381 c 6
 510 666 l 5
 462 619 l 6
 458 614 451 612 444 612 c 4
 438 612 432 614 427 619 c 4
-148 -72 m 2
 -272 -72 -373 29 -373 153 c 2
 -373 449 l 2
 -373 573 -272 674 -148 674 c 2
 -25 674 l 1
 -25 977 l 2
 -25 991 -14 1002 0 1002 c 0
 14 1002 25 991 25 977 c 2
 25 674 l 1
 148 674 l 2
 198.060958778 674 244.373199381 657.53823758 281.804244519 629.74719003 c 1
 738 1115 l 2
 743 1120 750 1122 756 1122 c 0
 762 1122 769 1120 774 1115 c 0
 779 1110 782 1104 782 1097 c 0
 782 1090 779 1084 774 1079 c 2
 319.004102115 595.023471677 l 1
 352.649885906 555.686128447 373 504.660156422 373 449 c 2
 373 326 l 1
 634 326 l 2
 648 326 659 315 659 301 c 0
 659 287 648 276 634 276 c 2
 373 276 l 1
 373 153 l 2
 373 29 272 -72 148 -72 c 2
 25 -72 l 1
 25 -375 l 2
 25 -389 14 -400 0 -400 c 0
 -14 -400 -25 -389 -25 -375 c 2
 -25 -72 l 1
 -148 -72 l 2
323 301 m 1
 323 449 l 2
 323 545 244 624 148 624 c 2
 0 624 l 1
 -148 624 l 2
 -244 624 -323 545 -323 449 c 2
 -323 153 l 2
 -323 57 -244 -22 -148 -22 c 2
 0 -22 l 1
 148 -22 l 2
 244 -22 323 57 323 153 c 2
 323 301 l 1
EndSplineSet
Validated: 1
EndChar

StartChar: uniE078
Encoding: 57464 57464 125
Width: 600
Flags: W
HStem: -72 50<-230.393 -25 25 231.127> 624 50<-230.393 230.393>
VStem: -373 50<70.607 531.393> -25 50<-399.802 -72> 323 50<69.8726 531.393> 510 50<356.198 666>
LayerCount: 2
Fore
SplineSet
427 619 m 4
 422 624 420 630 420 637 c 4
 420 644 422 651 427 656 c 6
 517 744 l 6
 522 749 528 751 535 751 c 4
 542 751 549 748 553 744 c 6
 643 656 l 6
 648 651 650 644 650 637 c 4
 650 630 648 624 643 619 c 4
 638 614 632 612 626 612 c 4
 619 612 612 614 608 619 c 6
 560 666 l 5
 560 381 l 6
 560 367 549 356 535 356 c 4
 521 356 510 367 510 381 c 6
 510 666 l 5
 462 619 l 6
 458 614 451 612 444 612 c 4
 438 612 432 614 427 619 c 4
-148 -72 m 2
 -272 -72 -373 29 -373 153 c 2
 -373 449 l 2
 -373 573 -272 674 -148 674 c 2
 148 674 l 2
 272 674 373 573 373 449 c 2
 373 153 l 2
 373 97.3398435778 352.649885906 46.3138715533 319.004102115 6.97652832318 c 1
 774 -477 l 2
 779 -482 782 -488 782 -495 c 0
 782 -502 779 -508 774 -513 c 0
 769 -518 762 -520 756 -520 c 0
 750 -520 743 -518 738 -513 c 2
 281.804244519 -27.7471900299 l 1
 244.373199381 -55.5382375801 198.060958778 -72 148 -72 c 2
 25 -72 l 1
 25 -375 l 2
 25 -389 14 -400 0 -400 c 0
 -14 -400 -25 -389 -25 -375 c 2
 -25 -72 l 1
 -148 -72 l 2
0 -22 m 1
 148 -22 l 2
 244 -22 323 57 323 153 c 2
 323 449 l 2
 323 545 244 624 148 624 c 2
 -148 624 l 2
 -244 624 -323 545 -323 449 c 2
 -323 153 l 2
 -323 57 -244 -22 -148 -22 c 2
 0 -22 l 1
EndSplineSet
Validated: 1
EndChar

StartChar: uniE079
Encoding: 57465 57465 126
Width: 600
Flags: W
HStem: -72 50<-230.393 -25 25 231.127> 624 50<-230.393 -25 25 230.393>
VStem: -373 50<70.607 531.393> -25 50<-399.802 -72 674 1001.8> 323 50<69.8726 531.393> 510 50<356.198 666>
LayerCount: 2
Fore
SplineSet
427 619 m 4
 422 624 420 630 420 637 c 4
 420 644 422 651 427 656 c 6
 517 744 l 6
 522 749 528 751 535 751 c 4
 542 751 549 748 553 744 c 6
 643 656 l 6
 648 651 650 644 650 637 c 4
 650 630 648 624 643 619 c 4
 638 614 632 612 626 612 c 4
 619 612 612 614 608 619 c 6
 560 666 l 5
 560 381 l 6
 560 367 549 356 535 356 c 4
 521 356 510 367 510 381 c 6
 510 666 l 5
 462 619 l 6
 458 614 451 612 444 612 c 4
 438 612 432 614 427 619 c 4
-148 -72 m 2
 -272 -72 -373 29 -373 153 c 2
 -373 449 l 2
 -373 573 -272 674 -148 674 c 2
 -25 674 l 1
 -25 977 l 2
 -25 991 -14 1002 0 1002 c 0
 14 1002 25 991 25 977 c 2
 25 674 l 1
 148 674 l 2
 272 674 373 573 373 449 c 2
 373 153 l 2
 373 97.3398435778 352.649885906 46.3138715533 319.004102115 6.97652832318 c 1
 774 -477 l 2
 779 -482 782 -488 782 -495 c 0
 782 -502 779 -508 774 -513 c 0
 769 -518 762 -520 756 -520 c 0
 750 -520 743 -518 738 -513 c 2
 281.804244519 -27.7471900299 l 1
 244.373199381 -55.5382375801 198.060958778 -72 148 -72 c 2
 25 -72 l 1
 25 -375 l 2
 25 -389 14 -400 0 -400 c 0
 -14 -400 -25 -389 -25 -375 c 2
 -25 -72 l 1
 -148 -72 l 2
0 624 m 1
 -148 624 l 2
 -244 624 -323 545 -323 449 c 2
 -323 153 l 2
 -323 57 -244 -22 -148 -22 c 2
 0 -22 l 1
 148 -22 l 2
 244 -22 323 57 323 153 c 2
 323 449 l 2
 323 545 244 624 148 624 c 2
 0 624 l 1
EndSplineSet
Validated: 1
EndChar

StartChar: uniE07A
Encoding: 57466 57466 127
Width: 600
Flags: W
HStem: -72 50<-230.393 -25 25 231.127> 624 50<-230.393 231.127>
VStem: -373 50<70.607 531.393> -25 50<-399.802 -72> 323 50<69.8726 532.127> 510 50<356.198 666>
LayerCount: 2
Fore
SplineSet
427 619 m 4
 422 624 420 630 420 637 c 4
 420 644 422 651 427 656 c 6
 517 744 l 6
 522 749 528 751 535 751 c 4
 542 751 549 748 553 744 c 6
 643 656 l 6
 648 651 650 644 650 637 c 4
 650 630 648 624 643 619 c 4
 638 614 632 612 626 612 c 4
 619 612 612 614 608 619 c 6
 560 666 l 5
 560 381 l 6
 560 367 549 356 535 356 c 4
 521 356 510 367 510 381 c 6
 510 666 l 5
 462 619 l 6
 458 614 451 612 444 612 c 4
 438 612 432 614 427 619 c 4
-148 -72 m 2
 -272 -72 -373 29 -373 153 c 2
 -373 449 l 2
 -373 573 -272 674 -148 674 c 2
 148 674 l 2
 198.060958778 674 244.373199381 657.53823758 281.804244519 629.74719003 c 1
 738 1115 l 2
 743 1120 750 1122 756 1122 c 0
 762 1122 769 1120 774 1115 c 0
 779 1110 782 1104 782 1097 c 0
 782 1090 779 1084 774 1079 c 2
 319.004102115 595.023471677 l 1
 352.649885906 555.686128447 373 504.660156422 373 449 c 2
 373 153 l 2
 373 97.3398435778 352.649885906 46.3138715533 319.004102115 6.97652832318 c 1
 774 -477 l 2
 779 -482 782 -488 782 -495 c 0
 782 -502 779 -508 774 -513 c 0
 769 -518 762 -520 756 -520 c 0
 750 -520 743 -518 738 -513 c 2
 281.804244519 -27.7471900299 l 1
 244.373199381 -55.5382375801 198.060958778 -72 148 -72 c 2
 25 -72 l 1
 25 -375 l 2
 25 -389 14 -400 0 -400 c 0
 -14 -400 -25 -389 -25 -375 c 2
 -25 -72 l 1
 -148 -72 l 2
0 -22 m 1
 148 -22 l 2
 244 -22 323 57 323 153 c 2
 323 449 l 2
 323 545 244 624 148 624 c 2
 -148 624 l 2
 -244 624 -323 545 -323 449 c 2
 -323 153 l 2
 -323 57 -244 -22 -148 -22 c 2
 0 -22 l 1
EndSplineSet
Validated: 1
EndChar

StartChar: uniE07B
Encoding: 57467 57467 128
Width: 600
Flags: W
HStem: -72 50<-230.393 -25 25 231.127> 624 50<-230.393 -25 25 231.127>
VStem: -373 50<70.607 531.393> -25 50<-399.802 -72 674 1001.8> 323 50<69.8726 532.127> 510 50<356.198 666>
LayerCount: 2
Fore
SplineSet
427 619 m 4
 422 624 420 630 420 637 c 4
 420 644 422 651 427 656 c 6
 517 744 l 6
 522 749 528 751 535 751 c 4
 542 751 549 748 553 744 c 6
 643 656 l 6
 648 651 650 644 650 637 c 4
 650 630 648 624 643 619 c 4
 638 614 632 612 626 612 c 4
 619 612 612 614 608 619 c 6
 560 666 l 5
 560 381 l 6
 560 367 549 356 535 356 c 4
 521 356 510 367 510 381 c 6
 510 666 l 5
 462 619 l 6
 458 614 451 612 444 612 c 4
 438 612 432 614 427 619 c 4
-148 -72 m 2
 -272 -72 -373 29 -373 153 c 2
 -373 449 l 2
 -373 573 -272 674 -148 674 c 2
 -25 674 l 1
 -25 977 l 2
 -25 991 -14 1002 0 1002 c 0
 14 1002 25 991 25 977 c 2
 25 674 l 1
 148 674 l 2
 198.060958778 674 244.373199381 657.53823758 281.804244519 629.74719003 c 1
 738 1115 l 2
 743 1120 750 1122 756 1122 c 0
 762 1122 769 1120 774 1115 c 0
 779 1110 782 1104 782 1097 c 0
 782 1090 779 1084 774 1079 c 2
 319.004102115 595.023471677 l 1
 352.649885906 555.686128447 373 504.660156422 373 449 c 2
 373 153 l 2
 373 97.3398435778 352.649885906 46.3138715533 319.004102115 6.97652832318 c 1
 774 -477 l 2
 779 -482 782 -488 782 -495 c 0
 782 -502 779 -508 774 -513 c 0
 769 -518 762 -520 756 -520 c 0
 750 -520 743 -518 738 -513 c 2
 281.804244519 -27.7471900299 l 1
 244.373199381 -55.5382375801 198.060958778 -72 148 -72 c 2
 25 -72 l 1
 25 -375 l 2
 25 -389 14 -400 0 -400 c 0
 -14 -400 -25 -389 -25 -375 c 2
 -25 -72 l 1
 -148 -72 l 2
0 624 m 1
 -148 624 l 2
 -244 624 -323 545 -323 449 c 2
 -323 153 l 2
 -323 57 -244 -22 -148 -22 c 2
 0 -22 l 1
 148 -22 l 2
 244 -22 323 57 323 153 c 2
 323 449 l 2
 323 545 244 624 148 624 c 2
 0 624 l 1
EndSplineSet
Validated: 1
EndChar

StartChar: uniE07C
Encoding: 57468 57468 129
Width: 600
Flags: W
HStem: -72 50<-230.393 -25 25 231.127> 276 50<373 658.802> 624 50<-230.393 230.393>
VStem: -373 50<70.607 531.393> -25 50<-399.802 -72> 323 50<69.8726 276 326 531.393> 510 50<356.198 666>
CounterMasks: 1 e0
LayerCount: 2
Fore
SplineSet
427 619 m 4
 422 624 420 630 420 637 c 4
 420 644 422 651 427 656 c 6
 517 744 l 6
 522 749 528 751 535 751 c 4
 542 751 549 748 553 744 c 6
 643 656 l 6
 648 651 650 644 650 637 c 4
 650 630 648 624 643 619 c 4
 638 614 632 612 626 612 c 4
 619 612 612 614 608 619 c 6
 560 666 l 5
 560 381 l 6
 560 367 549 356 535 356 c 4
 521 356 510 367 510 381 c 6
 510 666 l 5
 462 619 l 6
 458 614 451 612 444 612 c 4
 438 612 432 614 427 619 c 4
-148 -72 m 2
 -272 -72 -373 29 -373 153 c 2
 -373 449 l 2
 -373 573 -272 674 -148 674 c 2
 148 674 l 2
 272 674 373 573 373 449 c 2
 373 326 l 1
 634 326 l 2
 648 326 659 315 659 301 c 0
 659 287 648 276 634 276 c 2
 373 276 l 1
 373 153 l 2
 373 97.3398435778 352.649885906 46.3138715533 319.004102115 6.97652832318 c 1
 774 -477 l 2
 779 -482 782 -488 782 -495 c 0
 782 -502 779 -508 774 -513 c 0
 769 -518 762 -520 756 -520 c 0
 750 -520 743 -518 738 -513 c 2
 281.804244519 -27.7471900299 l 1
 244.373199381 -55.5382375801 198.060958778 -72 148 -72 c 2
 25 -72 l 1
 25 -375 l 2
 25 -389 14 -400 0 -400 c 0
 -14 -400 -25 -389 -25 -375 c 2
 -25 -72 l 1
 -148 -72 l 2
323 301 m 1
 323 449 l 2
 323 545 244 624 148 624 c 2
 -148 624 l 2
 -244 624 -323 545 -323 449 c 2
 -323 153 l 2
 -323 57 -244 -22 -148 -22 c 2
 0 -22 l 1
 148 -22 l 2
 244 -22 323 57 323 153 c 2
 323 301 l 1
EndSplineSet
Validated: 1
EndChar

StartChar: uniE07D
Encoding: 57469 57469 130
Width: 600
Flags: W
HStem: -72 50<-230.393 -25 25 231.127> 276 50<373 658.802> 624 50<-230.393 -25 25 230.393>
VStem: -373 50<70.607 531.393> -25 50<-399.802 -72 674 1001.8> 323 50<69.8726 276 326 531.393> 510 50<356.198 666>
CounterMasks: 1 e0
LayerCount: 2
Fore
SplineSet
427 619 m 4
 422 624 420 630 420 637 c 4
 420 644 422 651 427 656 c 6
 517 744 l 6
 522 749 528 751 535 751 c 4
 542 751 549 748 553 744 c 6
 643 656 l 6
 648 651 650 644 650 637 c 4
 650 630 648 624 643 619 c 4
 638 614 632 612 626 612 c 4
 619 612 612 614 608 619 c 6
 560 666 l 5
 560 381 l 6
 560 367 549 356 535 356 c 4
 521 356 510 367 510 381 c 6
 510 666 l 5
 462 619 l 6
 458 614 451 612 444 612 c 4
 438 612 432 614 427 619 c 4
-148 -72 m 2
 -272 -72 -373 29 -373 153 c 2
 -373 449 l 2
 -373 573 -272 674 -148 674 c 2
 -25 674 l 1
 -25 977 l 2
 -25 991 -14 1002 0 1002 c 0
 14 1002 25 991 25 977 c 2
 25 674 l 1
 148 674 l 2
 272 674 373 573 373 449 c 2
 373 326 l 1
 634 326 l 2
 648 326 659 315 659 301 c 0
 659 287 648 276 634 276 c 2
 373 276 l 1
 373 153 l 2
 373 97.3398435778 352.649885906 46.3138715533 319.004102115 6.97652832318 c 1
 774 -477 l 2
 779 -482 782 -488 782 -495 c 0
 782 -502 779 -508 774 -513 c 0
 769 -518 762 -520 756 -520 c 0
 750 -520 743 -518 738 -513 c 2
 281.804244519 -27.7471900299 l 1
 244.373199381 -55.5382375801 198.060958778 -72 148 -72 c 2
 25 -72 l 1
 25 -375 l 2
 25 -389 14 -400 0 -400 c 0
 -14 -400 -25 -389 -25 -375 c 2
 -25 -72 l 1
 -148 -72 l 2
323 301 m 1
 323 449 l 2
 323 545 244 624 148 624 c 2
 0 624 l 1
 -148 624 l 2
 -244 624 -323 545 -323 449 c 2
 -323 153 l 2
 -323 57 -244 -22 -148 -22 c 2
 0 -22 l 1
 148 -22 l 2
 244 -22 323 57 323 153 c 2
 323 301 l 1
EndSplineSet
Validated: 1
EndChar

StartChar: uniE07E
Encoding: 57470 57470 131
Width: 600
Flags: W
HStem: -72 50<-230.393 -25 25 231.127> 276 50<373 658.802> 624 50<-230.393 231.127>
VStem: -373 50<70.607 531.393> -25 50<-399.802 -72> 323 50<69.8726 276 326 532.127> 510 50<356.198 666>
CounterMasks: 1 e0
LayerCount: 2
Fore
SplineSet
323 301 m 1
 323 449 l 2
 323 545 244 624 148 624 c 2
 -148 624 l 2
 -244 624 -323 545 -323 449 c 2
 -323 153 l 2
 -323 57 -244 -22 -148 -22 c 2
 0 -22 l 1
 148 -22 l 2
 244 -22 323 57 323 153 c 2
 323 301 l 1
-148 -72 m 2
 -272 -72 -373 29 -373 153 c 2
 -373 449 l 2
 -373 573 -272 674 -148 674 c 2
 148 674 l 2
 198 674 244 658 282 630 c 1
 738 1115 l 2
 743 1120 750 1122 756 1122 c 0
 762 1122 769 1120 774 1115 c 0
 779 1110 782 1104 782 1097 c 0
 782 1090 779 1084 774 1079 c 2
 319 595 l 1
 353 556 373 505 373 449 c 2
 373 326 l 1
 634 326 l 2
 648 326 659 315 659 301 c 0
 659 287 648 276 634 276 c 2
 373 276 l 1
 373 153 l 2
 373 97 353 46 319 7 c 1
 774 -477 l 2
 779 -482 782 -488 782 -495 c 0
 782 -502 779 -508 774 -513 c 0
 769 -518 762 -520 756 -520 c 0
 750 -520 743 -518 738 -513 c 2
 282 -28 l 1
 244 -56 198 -72 148 -72 c 2
 25 -72 l 1
 25 -375 l 2
 25 -389 14 -400 0 -400 c 0
 -14 -400 -25 -389 -25 -375 c 2
 -25 -72 l 1
 -148 -72 l 2
427 619 m 4
 422 624 420 630 420 637 c 4
 420 644 422 651 427 656 c 6
 517 744 l 6
 522 749 528 751 535 751 c 4
 542 751 549 748 553 744 c 6
 643 656 l 6
 648 651 650 644 650 637 c 4
 650 630 648 624 643 619 c 4
 638 614 632 612 626 612 c 4
 619 612 612 614 608 619 c 6
 560 666 l 5
 560 381 l 6
 560 367 549 356 535 356 c 4
 521 356 510 367 510 381 c 6
 510 666 l 5
 462 619 l 6
 458 614 451 612 444 612 c 4
 438 612 432 614 427 619 c 4
EndSplineSet
Validated: 1
EndChar

StartChar: uniE0C8
Encoding: 57544 57544 132
Width: 600
Flags: W
HStem: -72 50<369.607 830.393> 276 50<-58.8024 266> 624 50<369.607 830.393>
VStem: 40 50<-85.667 246.245> 227 50<70.607 531.393> 575 50<-399.802 -33 635.674 1001.8> 923 50<70.607 531.393>
CounterMasks: 1 e0
LayerCount: 2
Fore
SplineSet
173.1875 -16.134765625 m 0
 182.81640625 -25.763671875 182.81640625 -41.861328125 173.1875 -51.490234375 c 2
 82.677734375 -142 l 2
 71.9775390625 -152.700195312 54.9091796875 -149.586914062 47.322265625 -142 c 2
 -43.1875 -51.490234375 l 2
 -52.81640625 -41.861328125 -52.81640625 -25.763671875 -43.1875 -16.134765625 c 0
 -33.55859375 -6.505859375 -17.4609375 -6.505859375 -7.83203125 -16.134765625 c 2
 65 -88.966796875 l 1
 137.83203125 -16.134765625 l 2
 147.4609375 -6.505859375 163.55859375 -6.505859375 173.1875 -16.134765625 c 0
90 221.442382812 m 2
 90 -64.5576171875 l 2
 90 -78.5576171875 79 -89.5576171875 65 -89.5576171875 c 2
 51 -89.5576171875 40 -78.5576171875 40 -64.5576171875 c 2
 40 221.442382812 l 2
 40 235.442382812 51 246.442382812 65 246.442382812 c 2
 79 246.442382812 90 235.442382812 90 221.442382812 c 2
625 -47 m 2
 625 -375 l 2
 625 -389 614 -400 600 -400 c 2
 586 -400 575 -389 575 -375 c 2
 575 -47 l 2
 575 -33 586 -22 600 -22 c 2
 614 -22 625 -33 625 -47 c 2
575 649 m 2
 575 977 l 2
 575 991 586 1002 600 1002 c 2
 614 1002 625 991 625 977 c 2
 625 649 l 2
 625 635.673828125 615.033203125 625.06640625 602 624.075195312 c 0
 601.340820312 624.025390625 600.673828125 624 600 624 c 2
 586 624 575 635 575 649 c 2
333 614 m 2
 338 609 340 602 340 596 c 0
 340 590 338 583 333 578 c 2
 328 573 322 570 315 570 c 0
 308 570 302 573 297 578 c 2
 -174 1079 l 2
 -179 1084 -182 1090 -182 1097 c 0
 -182 1104 -179 1110 -174 1115 c 2
 -169 1120 -162 1122 -156 1122 c 0
 -150 1122 -143 1120 -138 1115 c 2
 333 614 l 2
333 -12 m 2
 -138 -513 l 2
 -143 -518 -150 -520 -156 -520 c 0
 -162 -520 -169 -518 -174 -513 c 2
 -179 -508 -182 -502 -182 -495 c 0
 -182 -488 -179 -482 -174 -477 c 2
 297 24 l 2
 302 29 308 32 315 32 c 0
 322 32 328 29 333 24 c 2
 338 19 340 12 340 6 c 0
 340 0 338 -7 333 -12 c 2
252 276 m 2
 -34 276 l 2
 -48 276 -59 287 -59 301 c 2
 -59 315 -48 326 -34 326 c 2
 252 326 l 2
 266 326 277 315 277 301 c 2
 277 287 266 276 252 276 c 2
748 624 m 2
 452 624 l 2
 356 624 277 545 277 449 c 2
 277 153 l 2
 277 57 356 -22 452 -22 c 2
 748 -22 l 2
 844 -22 923 57 923 153 c 2
 923 449 l 2
 923 545 844 624 748 624 c 2
748 674 m 2
 872 674 973 573 973 449 c 2
 973 153 l 2
 973 29 872 -72 748 -72 c 2
 452 -72 l 2
 328 -72 227 29 227 153 c 2
 227 449 l 2
 227 573 328 674 452 674 c 2
 748 674 l 2
EndSplineSet
Validated: 37
EndChar

StartChar: uniE0C9
Encoding: 57545 57545 133
Width: 600
Flags: W
HStem: -72 50<-230.393 230.393> 276 50<334 658.802> 624 50<-230.393 230.393>
VStem: -373 50<70.607 531.393> -25 50<-399.802 -33 635 1001.8> 323 50<70.607 276 326 531.393>
LayerCount: 2
Fore
SplineSet
426.8125 618.577148438 m 4
 417.18359375 628.206054688 417.18359375 644.303710938 426.8125 653.932617188 c 6
 517.322265625 744.442382812 l 6
 528.022460938 755.142578125 545.090820312 752.029296875 552.677734375 744.442382812 c 6
 643.1875 653.932617188 l 6
 652.81640625 644.303710938 652.81640625 628.206054688 643.1875 618.577148438 c 4
 633.55859375 608.948242188 617.4609375 608.948242188 607.83203125 618.577148438 c 6
 535 691.409179688 l 5
 462.16796875 618.577148438 l 6
 452.5390625 608.948242188 436.44140625 608.948242188 426.8125 618.577148438 c 4
510 381 m 6
 510 667 l 6
 510 681 521 692 535 692 c 6
 549 692 560 681 560 667 c 6
 560 381 l 6
 560 367 549 356 535 356 c 6
 521 356 510 367 510 381 c 6
-25 649 m 2
 -25 977 l 2
 -25 991 -14 1002 0 1002 c 2
 14 1002 25 991 25 977 c 2
 25 649 l 2
 25 635 14 624 0 624 c 2
 -14 624 -25 635 -25 649 c 2
25 -47 m 2
 25 -375 l 2
 25 -389 14 -400 0 -400 c 2
 -14 -400 -25 -389 -25 -375 c 2
 -25 -47 l 2
 -25 -33 -14 -22 0 -22 c 2
 14 -22 25 -33 25 -47 c 2
267 -12 m 2
 262 -7 260 -0 260 6 c 0
 260 12 262 19 267 24 c 2
 272 29 278 32 285 32 c 0
 292 32 298 29 303 24 c 2
 774 -477 l 2
 779 -482 782 -488 782 -495 c 0
 782 -502 779 -508 774 -513 c 2
 769 -518 762 -520 756 -520 c 0
 750 -520 743 -518 738 -513 c 2
 267 -12 l 2
267 614 m 2
 738 1115 l 2
 743 1120 750 1122 756 1122 c 0
 762 1122 769 1120 774 1115 c 2
 779 1110 782 1104 782 1097 c 0
 782 1090 779 1084 774 1079 c 2
 303 578 l 2
 298 573 292 570 285 570 c 0
 278 570 272 573 267 578 c 2
 262 583 260 590 260 596 c 0
 260 602 262 609 267 614 c 2
348 326 m 2
 634 326 l 2
 648 326 659 315 659 301 c 2
 659 287 648 276 634 276 c 2
 348 276 l 2
 334 276 323 287 323 301 c 2
 323 315 334 326 348 326 c 2
-148 -22 m 2
 148 -22 l 2
 244 -22 323 57 323 153 c 2
 323 449 l 2
 323 545 244 624 148 624 c 2
 -148 624 l 2
 -244 624 -323 545 -323 449 c 2
 -323 153 l 2
 -323 57 -244 -22 -148 -22 c 2
-148 -72 m 2
 -272 -72 -373 29 -373 153 c 2
 -373 449 l 2
 -373 573 -272 674 -148 674 c 2
 148 674 l 2
 272 674 373 573 373 449 c 2
 373 153 l 2
 373 29 272 -72 148 -72 c 2
 -148 -72 l 2
EndSplineSet
Validated: 37
EndChar

StartChar: uniE081
Encoding: 57473 57473 134
Width: 600
Flags: W
VStem: 575 50<-399.802 1001.8>
LayerCount: 2
Fore
SplineSet
575 -375 m 6
 575 977 l 6
 575 991 586 1002 600 1002 c 4
 614 1002 625 991 625 977 c 6
 625 -375 l 6
 625 -389 614 -400 600 -400 c 4
 586 -400 575 -389 575 -375 c 6
EndSplineSet
Validated: 1
EndChar

StartChar: uniE091
Encoding: 57489 57489 135
Width: 600
Flags: W
VStem: -25 50<-399.802 1001.8>
LayerCount: 2
Fore
SplineSet
-25 -375 m 2
 -25 977 l 2
 -25 991 -14 1002 0 1002 c 0
 14 1002 25 991 25 977 c 2
 25 -375 l 2
 25 -389 14 -400 0 -400 c 0
 -14 -400 -25 -389 -25 -375 c 2
EndSplineSet
Validated: 1
EndChar

StartChar: uniE082
Encoding: 57474 57474 136
Width: 600
Flags: W
LayerCount: 2
Fore
SplineSet
1364 -477 m 2
 1369 -482 1371 -489 1371 -495 c 0
 1371 -501 1369 -508 1364 -513 c 0
 1359 -518 1353 -521 1346 -521 c 0
 1339 -521 1333 -518 1328 -513 c 2
 -184 1079 l 2
 -189 1084 -192 1090 -192 1097 c 0
 -192 1104 -189 1110 -184 1115 c 0
 -179 1120 -172 1122 -166 1122 c 0
 -160 1122 -153 1120 -148 1115 c 2
 1364 -477 l 2
EndSplineSet
Validated: 1
EndChar

StartChar: uniE092
Encoding: 57490 57490 137
Width: 600
Flags: W
LayerCount: 2
Fore
SplineSet
-774 -477 m 2
 738 1115 l 2
 743 1120 750 1122 756 1122 c 0
 762 1122 769 1120 774 1115 c 0
 779 1110 782 1104 782 1097 c 0
 782 1090 779 1084 774 1079 c 2
 -738 -513 l 2
 -743 -518 -749 -521 -756 -521 c 0
 -763 -521 -769 -518 -774 -513 c 0
 -779 -508 -781 -501 -781 -495 c 0
 -781 -489 -779 -482 -774 -477 c 2
EndSplineSet
Validated: 1
EndChar

StartChar: uniE083
Encoding: 57475 57475 138
Width: 600
Flags: W
VStem: 575 50<-399.802 227.196 353.746 1001.8>
LayerCount: 2
Fore
SplineSet
1364 -477 m 2
 1369 -482 1371 -489 1371 -495 c 0
 1371 -501 1369 -508 1364 -513 c 0
 1359 -518 1353 -521 1346 -521 c 0
 1339 -521 1333 -518 1328 -513 c 2
 625 227.195767196 l 1
 625 -375 l 2
 625 -389 614 -400 600 -400 c 0
 586 -400 575 -389 575 -375 c 2
 575 279.841269841 l 1
 -184 1079 l 2
 -189 1084 -192 1090 -192 1097 c 0
 -192 1104 -189 1110 -184 1115 c 0
 -179 1120 -172 1122 -166 1122 c 0
 -160 1122 -153 1120 -148 1115 c 2
 575 353.746031746 l 1
 575 977 l 2
 575 991 586 1002 600 1002 c 0
 614 1002 625 991 625 977 c 2
 625 301.100529101 l 1
 1364 -477 l 2
EndSplineSet
Validated: 1
EndChar

StartChar: uniE084
Encoding: 57476 57476 139
Width: 600
Flags: W
HStem: 276 50<-58.8024 1258.8>
LayerCount: 2
Fore
SplineSet
-34 326 m 2
 1234 326 l 2
 1248 326 1259 315 1259 301 c 0
 1259 287 1248 276 1234 276 c 2
 -34 276 l 2
 -48 276 -59 287 -59 301 c 0
 -59 315 -48 326 -34 326 c 2
EndSplineSet
Validated: 1
EndChar

StartChar: uniE085
Encoding: 57477 57477 140
Width: 600
Flags: W
HStem: 276 50<-58.8024 575 625 1258.8>
VStem: 575 50<-399.802 276 326 1001.8>
LayerCount: 2
Fore
SplineSet
625 326 m 1
 1234 326 l 2
 1248 326 1259 315 1259 301 c 0
 1259 287 1248 276 1234 276 c 2
 625 276 l 1
 625 -375 l 2
 625 -389 614 -400 600 -400 c 0
 586 -400 575 -389 575 -375 c 2
 575 276 l 1
 -34 276 l 2
 -48 276 -59 287 -59 301 c 0
 -59 315 -48 326 -34 326 c 2
 575 326 l 1
 575 977 l 2
 575 991 586 1002 600 1002 c 0
 614 1002 625 991 625 977 c 2
 625 326 l 1
EndSplineSet
Validated: 1
EndChar

StartChar: uniE086
Encoding: 57478 57478 141
Width: 600
Flags: W
HStem: 276 50<-58.8024 531.161 648.839 1258.8>
LayerCount: 2
Fore
SplineSet
1364 -477 m 2
 1369 -482 1371 -489 1371 -495 c 0
 1371 -501 1369 -508 1364 -513 c 0
 1359 -518 1353 -521 1346 -521 c 0
 1339 -521 1333 -518 1328 -513 c 2
 578.648241206 276 l 1
 -34 276 l 2
 -48 276 -59 287 -59 301 c 0
 -59 315 -48 326 -34 326 c 2
 531.16080402 326 l 1
 -184 1079 l 2
 -189 1084 -192 1090 -192 1097 c 0
 -192 1104 -189 1110 -184 1115 c 0
 -179 1120 -172 1122 -166 1122 c 0
 -160 1122 -153 1120 -148 1115 c 2
 601.351758794 326 l 1
 1234 326 l 2
 1248 326 1259 315 1259 301 c 0
 1259 287 1248 276 1234 276 c 2
 648.83919598 276 l 1
 1364 -477 l 2
EndSplineSet
Validated: 1
EndChar

StartChar: uniE087
Encoding: 57479 57479 142
Width: 600
Flags: W
HStem: 276 50<-58.8024 531.161 648.839 1258.8>
VStem: 575 50<-399.802 227.196 353.746 1001.8>
LayerCount: 2
Fore
SplineSet
1364 -477 m 2
 1369 -482 1371 -489 1371 -495 c 0
 1371 -501 1369 -508 1364 -513 c 0
 1359 -518 1353 -521 1346 -521 c 0
 1339 -521 1333 -518 1328 -513 c 2
 625 227.195767196 l 1
 625 -375 l 2
 625 -389 614 -400 600 -400 c 0
 586 -400 575 -389 575 -375 c 2
 575 276 l 1
 -34 276 l 2
 -48 276 -59 287 -59 301 c 0
 -59 315 -48 326 -34 326 c 2
 531.16080402 326 l 1
 -184 1079 l 2
 -189 1084 -192 1090 -192 1097 c 0
 -192 1104 -189 1110 -184 1115 c 0
 -179 1120 -172 1122 -166 1122 c 0
 -160 1122 -153 1120 -148 1115 c 2
 575 353.746031746 l 1
 575 977 l 2
 575 991 586 1002 600 1002 c 0
 614 1002 625 991 625 977 c 2
 625 326 l 1
 1234 326 l 2
 1248 326 1259 315 1259 301 c 0
 1259 287 1248 276 1234 276 c 2
 648.83919598 276 l 1
 1364 -477 l 2
EndSplineSet
Validated: 1
EndChar

StartChar: uniE088
Encoding: 57480 57480 143
Width: 600
Flags: W
LayerCount: 2
Fore
SplineSet
-174 -477 m 2
 1338 1115 l 2
 1343 1120 1350 1122 1356 1122 c 0
 1362 1122 1369 1120 1374 1115 c 0
 1379 1110 1382 1104 1382 1097 c 0
 1382 1090 1379 1084 1374 1079 c 2
 -138 -513 l 2
 -143 -518 -149 -521 -156 -521 c 0
 -163 -521 -169 -518 -174 -513 c 0
 -179 -508 -181 -501 -181 -495 c 0
 -181 -489 -179 -482 -174 -477 c 2
EndSplineSet
Validated: 1
EndChar

StartChar: uniE089
Encoding: 57481 57481 144
Width: 600
Flags: W
VStem: 575 50<-399.802 237.725 364.275 1001.8>
LayerCount: 2
Fore
SplineSet
625 364.275132275 m 1
 1338 1115 l 2
 1343 1120 1350 1122 1356 1122 c 0
 1362 1122 1369 1120 1374 1115 c 0
 1379 1110 1382 1104 1382 1097 c 0
 1382 1090 1379 1084 1374 1079 c 2
 625 290.37037037 l 1
 625 -375 l 2
 625 -389 614 -400 600 -400 c 0
 586 -400 575 -389 575 -375 c 2
 575 237.724867725 l 1
 -138 -513 l 2
 -143 -518 -149 -521 -156 -521 c 0
 -163 -521 -169 -518 -174 -513 c 0
 -179 -508 -181 -501 -181 -495 c 0
 -181 -489 -179 -482 -174 -477 c 2
 575 311.62962963 l 1
 575 977 l 2
 575 991 586 1002 600 1002 c 0
 614 1002 625 991 625 977 c 2
 625 364.275132275 l 1
EndSplineSet
Validated: 1
EndChar

StartChar: uniE08A
Encoding: 57482 57482 145
Width: 600
Flags: W
LayerCount: 2
Fore
SplineSet
1364 -477 m 2
 1369 -482 1371 -489 1371 -495 c 0
 1371 -501 1369 -508 1364 -513 c 0
 1359 -518 1353 -521 1346 -521 c 0
 1339 -521 1333 -518 1328 -513 c 2
 595 258.783068783 l 1
 -138 -513 l 2
 -143 -518 -149 -521 -156 -521 c 0
 -163 -521 -169 -518 -174 -513 c 0
 -179 -508 -181 -501 -181 -495 c 0
 -181 -489 -179 -482 -174 -477 c 2
 559.904522613 295.735449735 l 1
 -184 1079 l 2
 -189 1084 -192 1090 -192 1097 c 0
 -192 1104 -189 1110 -184 1115 c 0
 -179 1120 -172 1122 -166 1122 c 0
 -160 1122 -153 1120 -148 1115 c 2
 595 332.687830688 l 1
 1338 1115 l 2
 1343 1120 1350 1122 1356 1122 c 0
 1362 1122 1369 1120 1374 1115 c 0
 1379 1110 1382 1104 1382 1097 c 0
 1382 1090 1379 1084 1374 1079 c 2
 630.095477387 295.735449735 l 1
 1364 -477 l 2
EndSplineSet
Validated: 1
EndChar

StartChar: uniE08B
Encoding: 57483 57483 146
Width: 600
Flags: W
VStem: 575 50<-399.802 227.196 364.275 1001.8>
LayerCount: 2
Fore
SplineSet
1364 -477 m 2
 1369 -482 1371 -489 1371 -495 c 0
 1371 -501 1369 -508 1364 -513 c 0
 1359 -518 1353 -521 1346 -521 c 0
 1339 -521 1333 -518 1328 -513 c 2
 625 227.195767196 l 1
 625 -375 l 2
 625 -389 614 -400 600 -400 c 0
 586 -400 575 -389 575 -375 c 2
 575 237.724867725 l 1
 -138 -513 l 2
 -143 -518 -149 -521 -156 -521 c 0
 -163 -521 -169 -518 -174 -513 c 0
 -179 -508 -181 -501 -181 -495 c 0
 -181 -489 -179 -482 -174 -477 c 2
 559.904522613 295.735449735 l 1
 -184 1079 l 2
 -189 1084 -192 1090 -192 1097 c 0
 -192 1104 -189 1110 -184 1115 c 0
 -179 1120 -172 1122 -166 1122 c 0
 -160 1122 -153 1120 -148 1115 c 2
 575 353.746031746 l 1
 575 977 l 2
 575 991 586 1002 600 1002 c 0
 614 1002 625 991 625 977 c 2
 625 364.275132275 l 1
 1338 1115 l 2
 1343 1120 1350 1122 1356 1122 c 0
 1362 1122 1369 1120 1374 1115 c 0
 1379 1110 1382 1104 1382 1097 c 0
 1382 1090 1379 1084 1374 1079 c 2
 630.095477387 295.735449735 l 1
 1364 -477 l 2
EndSplineSet
Validated: 1
EndChar

StartChar: uniE08C
Encoding: 57484 57484 147
Width: 600
Flags: W
HStem: 276 50<-58.8024 541.161 658.839 1258.8>
LayerCount: 2
Fore
SplineSet
541.16080402 276 m 1
 -34 276 l 2
 -48 276 -59 287 -59 301 c 0
 -59 315 -48 326 -34 326 c 2
 588.648241206 326 l 1
 1338 1115 l 2
 1343 1120 1350 1122 1356 1122 c 0
 1362 1122 1369 1120 1374 1115 c 0
 1379 1110 1382 1104 1382 1097 c 0
 1382 1090 1379 1084 1374 1079 c 2
 658.83919598 326 l 1
 1234 326 l 2
 1248 326 1259 315 1259 301 c 0
 1259 287 1248 276 1234 276 c 2
 611.351758794 276 l 1
 -138 -513 l 2
 -143 -518 -149 -521 -156 -521 c 0
 -163 -521 -169 -518 -174 -513 c 0
 -179 -508 -181 -501 -181 -495 c 0
 -181 -489 -179 -482 -174 -477 c 2
 541.16080402 276 l 1
EndSplineSet
Validated: 1
EndChar

StartChar: uniE08D
Encoding: 57485 57485 148
Width: 600
Flags: W
HStem: 276 50<-58.8024 541.161 658.839 1258.8>
VStem: 575 50<-399.802 237.725 364.275 1001.8>
LayerCount: 2
Fore
SplineSet
541.16080402 276 m 1
 -34 276 l 2
 -48 276 -59 287 -59 301 c 0
 -59 315 -48 326 -34 326 c 2
 575 326 l 1
 575 977 l 2
 575 991 586 1002 600 1002 c 0
 614 1002 625 991 625 977 c 2
 625 364.275132275 l 1
 1338 1115 l 2
 1343 1120 1350 1122 1356 1122 c 0
 1362 1122 1369 1120 1374 1115 c 0
 1379 1110 1382 1104 1382 1097 c 0
 1382 1090 1379 1084 1374 1079 c 2
 658.83919598 326 l 1
 1234 326 l 2
 1248 326 1259 315 1259 301 c 0
 1259 287 1248 276 1234 276 c 2
 625 276 l 1
 625 -375 l 2
 625 -389 614 -400 600 -400 c 0
 586 -400 575 -389 575 -375 c 2
 575 237.724867725 l 1
 -138 -513 l 2
 -143 -518 -149 -521 -156 -521 c 0
 -163 -521 -169 -518 -174 -513 c 0
 -179 -508 -181 -501 -181 -495 c 0
 -181 -489 -179 -482 -174 -477 c 2
 541.16080402 276 l 1
EndSplineSet
Validated: 1
EndChar

StartChar: uniE08E
Encoding: 57486 57486 149
Width: 600
Flags: W
HStem: 276 50<-58.8024 531.161 658.839 1258.8>
LayerCount: 2
Fore
SplineSet
1364 -477 m 2
 1369 -482 1371 -489 1371 -495 c 0
 1371 -501 1369 -508 1364 -513 c 0
 1359 -518 1353 -521 1346 -521 c 0
 1339 -521 1333 -518 1328 -513 c 2
 595 258.783068783 l 1
 -138 -513 l 2
 -143 -518 -149 -521 -156 -521 c 0
 -163 -521 -169 -518 -174 -513 c 0
 -179 -508 -181 -501 -181 -495 c 0
 -181 -489 -179 -482 -174 -477 c 2
 541.16080402 276 l 1
 -34 276 l 2
 -48 276 -59 287 -59 301 c 0
 -59 315 -48 326 -34 326 c 2
 531.16080402 326 l 1
 -184 1079 l 2
 -189 1084 -192 1090 -192 1097 c 0
 -192 1104 -189 1110 -184 1115 c 0
 -179 1120 -172 1122 -166 1122 c 0
 -160 1122 -153 1120 -148 1115 c 2
 595 332.687830688 l 1
 1338 1115 l 2
 1343 1120 1350 1122 1356 1122 c 0
 1362 1122 1369 1120 1374 1115 c 0
 1379 1110 1382 1104 1382 1097 c 0
 1382 1090 1379 1084 1374 1079 c 2
 658.83919598 326 l 1
 1234 326 l 2
 1248 326 1259 315 1259 301 c 0
 1259 287 1248 276 1234 276 c 2
 648.83919598 276 l 1
 1364 -477 l 2
EndSplineSet
Validated: 1
EndChar

StartChar: uniE08F
Encoding: 57487 57487 150
Width: 600
Flags: W
HStem: 276 50<-58.8024 531.161 658.839 1258.8>
VStem: 575 50<-399.802 227.196 364.275 1001.8>
LayerCount: 2
Fore
SplineSet
1364 -477 m 2
 1369 -482 1371 -489 1371 -495 c 0
 1371 -501 1369 -508 1364 -513 c 0
 1359 -518 1353 -521 1346 -521 c 0
 1339 -521 1333 -518 1328 -513 c 2
 625 227.195767196 l 1
 625 -375 l 2
 625 -389 614 -400 600 -400 c 0
 586 -400 575 -389 575 -375 c 2
 575 237.724867725 l 1
 -138 -513 l 2
 -143 -518 -149 -521 -156 -521 c 0
 -163 -521 -169 -518 -174 -513 c 0
 -179 -508 -181 -501 -181 -495 c 0
 -181 -489 -179 -482 -174 -477 c 2
 541.16080402 276 l 1
 -34 276 l 2
 -48 276 -59 287 -59 301 c 0
 -59 315 -48 326 -34 326 c 2
 531.16080402 326 l 1
 -184 1079 l 2
 -189 1084 -192 1090 -192 1097 c 0
 -192 1104 -189 1110 -184 1115 c 0
 -179 1120 -172 1122 -166 1122 c 0
 -160 1122 -153 1120 -148 1115 c 2
 575 353.746031746 l 1
 575 977 l 2
 575 991 586 1002 600 1002 c 0
 614 1002 625 991 625 977 c 2
 625 364.275132275 l 1
 1338 1115 l 2
 1343 1120 1350 1122 1356 1122 c 0
 1362 1122 1369 1120 1374 1115 c 0
 1379 1110 1382 1104 1382 1097 c 0
 1382 1090 1379 1084 1374 1079 c 2
 658.83919598 326 l 1
 1234 326 l 2
 1248 326 1259 315 1259 301 c 0
 1259 287 1248 276 1234 276 c 2
 648.83919598 276 l 1
 1364 -477 l 2
EndSplineSet
Validated: 1
EndChar

StartChar: uniE093
Encoding: 57491 57491 151
Width: 600
Flags: W
VStem: -25 50<-399.802 237.725 364.275 1001.8>
LayerCount: 2
Fore
SplineSet
25 364.275132275 m 1
 738 1115 l 2
 743 1120 750 1122 756 1122 c 0
 762 1122 769 1120 774 1115 c 0
 779 1110 782 1104 782 1097 c 0
 782 1090 779 1084 774 1079 c 2
 25 290.37037037 l 1
 25 -375 l 2
 25 -389 14 -400 0 -400 c 0
 -14 -400 -25 -389 -25 -375 c 2
 -25 237.724867725 l 1
 -738 -513 l 2
 -743 -518 -749 -521 -756 -521 c 0
 -763 -521 -769 -518 -774 -513 c 0
 -779 -508 -781 -501 -781 -495 c 0
 -781 -489 -779 -482 -774 -477 c 2
 -25 311.62962963 l 1
 -25 977 l 2
 -25 991 -14 1002 0 1002 c 0
 14 1002 25 991 25 977 c 2
 25 364.275132275 l 1
EndSplineSet
Validated: 1
EndChar

StartChar: uniE094
Encoding: 57492 57492 152
Width: 600
Flags: W
HStem: 276 50<-658.802 658.802>
LayerCount: 2
Fore
SplineSet
-634 326 m 2
 634 326 l 2
 648 326 659 315 659 301 c 0
 659 287 648 276 634 276 c 2
 -634 276 l 2
 -648 276 -659 287 -659 301 c 0
 -659 315 -648 326 -634 326 c 2
EndSplineSet
Validated: 1
EndChar

StartChar: uniE095
Encoding: 57493 57493 153
Width: 600
Flags: W
HStem: 276 50<-658.802 -25 25 658.802>
VStem: -25 50<-399.802 276 326 1001.8>
LayerCount: 2
Fore
SplineSet
25 326 m 1
 634 326 l 2
 648 326 659 315 659 301 c 0
 659 287 648 276 634 276 c 2
 25 276 l 1
 25 -375 l 2
 25 -389 14 -400 0 -400 c 0
 -14 -400 -25 -389 -25 -375 c 2
 -25 276 l 1
 -634 276 l 2
 -648 276 -659 287 -659 301 c 0
 -659 315 -648 326 -634 326 c 2
 -25 326 l 1
 -25 977 l 2
 -25 991 -14 1002 0 1002 c 0
 14 1002 25 991 25 977 c 2
 25 326 l 1
EndSplineSet
Validated: 1
EndChar

StartChar: uniE096
Encoding: 57494 57494 154
Width: 600
Flags: W
HStem: 276 50<-658.802 -58.8392 58.8392 658.802>
LayerCount: 2
Fore
SplineSet
-58.8391959799 276 m 1
 -634 276 l 2
 -648 276 -659 287 -659 301 c 0
 -659 315 -648 326 -634 326 c 2
 -11.351758794 326 l 1
 738 1115 l 2
 743 1120 750 1122 756 1122 c 0
 762 1122 769 1120 774 1115 c 0
 779 1110 782 1104 782 1097 c 0
 782 1090 779 1084 774 1079 c 2
 58.8391959799 326 l 1
 634 326 l 2
 648 326 659 315 659 301 c 0
 659 287 648 276 634 276 c 2
 11.351758794 276 l 1
 -738 -513 l 2
 -743 -518 -749 -521 -756 -521 c 0
 -763 -521 -769 -518 -774 -513 c 0
 -779 -508 -781 -501 -781 -495 c 0
 -781 -489 -779 -482 -774 -477 c 2
 -58.8391959799 276 l 1
EndSplineSet
Validated: 1
EndChar

StartChar: uniE097
Encoding: 57495 57495 155
Width: 600
Flags: W
HStem: 276 50<-658.802 -58.8392 58.8392 658.802>
VStem: -25 50<-399.802 237.725 364.275 1001.8>
LayerCount: 2
Fore
SplineSet
-58.8391959799 276 m 1
 -634 276 l 2
 -648 276 -659 287 -659 301 c 0
 -659 315 -648 326 -634 326 c 2
 -25 326 l 1
 -25 977 l 2
 -25 991 -14 1002 0 1002 c 0
 14 1002 25 991 25 977 c 2
 25 364.275132275 l 1
 738 1115 l 2
 743 1120 750 1122 756 1122 c 0
 762 1122 769 1120 774 1115 c 0
 779 1110 782 1104 782 1097 c 0
 782 1090 779 1084 774 1079 c 2
 58.8391959799 326 l 1
 634 326 l 2
 648 326 659 315 659 301 c 0
 659 287 648 276 634 276 c 2
 25 276 l 1
 25 -375 l 2
 25 -389 14 -400 0 -400 c 0
 -14 -400 -25 -389 -25 -375 c 2
 -25 237.724867725 l 1
 -738 -513 l 2
 -743 -518 -749 -521 -756 -521 c 0
 -763 -521 -769 -518 -774 -513 c 0
 -779 -508 -781 -501 -781 -495 c 0
 -781 -489 -779 -482 -774 -477 c 2
 -58.8391959799 276 l 1
EndSplineSet
Validated: 1
EndChar

StartChar: uniE098
Encoding: 57496 57496 156
Width: 600
Flags: W
LayerCount: 2
Fore
SplineSet
774 -477 m 2
 779 -482 781 -489 781 -495 c 0
 781 -501 779 -508 774 -513 c 0
 769 -518 763 -521 756 -521 c 0
 749 -521 743 -518 738 -513 c 2
 -774 1079 l 2
 -779 1084 -782 1090 -782 1097 c 0
 -782 1104 -779 1110 -774 1115 c 0
 -769 1120 -762 1122 -756 1122 c 0
 -750 1122 -743 1120 -738 1115 c 2
 774 -477 l 2
EndSplineSet
Validated: 1
EndChar

